G04 EAGLE Gerber RS-274X export*
G75*
%MOMM*%
%FSLAX34Y34*%
%LPD*%
%INBottom Copper*%
%IPPOS*%
%AMOC8*
5,1,8,0,0,1.08239X$1,22.5*%
G01*
%ADD10R,2.000000X0.650000*%
%ADD11R,0.650000X2.000000*%
%ADD12C,1.879600*%
%ADD13R,1.500000X0.700000*%
%ADD14R,0.600000X1.000000*%
%ADD15R,0.800000X1.000000*%
%ADD16C,1.270000*%
%ADD17C,1.058000*%
%ADD18C,1.676400*%
%ADD19C,0.300000*%
%ADD20R,1.700000X1.000000*%
%ADD21R,1.676400X0.355600*%
%ADD22R,2.460000X2.310000*%
%ADD23C,0.406400*%
%ADD24C,0.756400*%
%ADD25C,0.254000*%
%ADD26C,0.508000*%
%ADD27C,0.152400*%

G36*
X281400Y86888D02*
X281400Y86888D01*
X281491Y86896D01*
X281521Y86908D01*
X281553Y86913D01*
X281633Y86956D01*
X281717Y86992D01*
X281749Y87018D01*
X281770Y87029D01*
X281792Y87052D01*
X281848Y87097D01*
X284645Y89894D01*
X285047Y89894D01*
X285117Y89905D01*
X285189Y89907D01*
X285238Y89925D01*
X285289Y89933D01*
X285353Y89967D01*
X285420Y89992D01*
X285461Y90024D01*
X285507Y90049D01*
X285556Y90100D01*
X285612Y90145D01*
X285640Y90189D01*
X285676Y90227D01*
X285706Y90292D01*
X285745Y90352D01*
X285758Y90403D01*
X285780Y90450D01*
X285788Y90521D01*
X285805Y90591D01*
X285801Y90643D01*
X285807Y90694D01*
X285792Y90765D01*
X285786Y90836D01*
X285766Y90884D01*
X285755Y90935D01*
X285718Y90996D01*
X285690Y91062D01*
X285645Y91118D01*
X285628Y91146D01*
X285611Y91161D01*
X285585Y91193D01*
X279656Y97122D01*
X279598Y97164D01*
X279546Y97213D01*
X279499Y97235D01*
X279457Y97265D01*
X279388Y97286D01*
X279323Y97317D01*
X279271Y97322D01*
X279221Y97338D01*
X279150Y97336D01*
X279079Y97344D01*
X279028Y97333D01*
X278976Y97331D01*
X278908Y97307D01*
X278838Y97292D01*
X278794Y97265D01*
X278745Y97247D01*
X278689Y97202D01*
X278627Y97165D01*
X278593Y97126D01*
X278553Y97093D01*
X278514Y97033D01*
X278467Y96978D01*
X278448Y96930D01*
X278420Y96886D01*
X278402Y96817D01*
X278375Y96750D01*
X278367Y96679D01*
X278359Y96648D01*
X278361Y96624D01*
X278357Y96584D01*
X278357Y93052D01*
X275248Y89943D01*
X270852Y89943D01*
X267743Y93052D01*
X267743Y97448D01*
X270852Y100557D01*
X274384Y100557D01*
X274454Y100568D01*
X274526Y100570D01*
X274575Y100588D01*
X274626Y100596D01*
X274690Y100630D01*
X274757Y100655D01*
X274798Y100687D01*
X274844Y100712D01*
X274893Y100764D01*
X274949Y100808D01*
X274977Y100852D01*
X275013Y100890D01*
X275043Y100955D01*
X275082Y101015D01*
X275095Y101066D01*
X275117Y101113D01*
X275125Y101184D01*
X275142Y101254D01*
X275138Y101306D01*
X275144Y101357D01*
X275129Y101428D01*
X275123Y101499D01*
X275103Y101547D01*
X275092Y101598D01*
X275055Y101659D01*
X275027Y101725D01*
X274982Y101781D01*
X274965Y101809D01*
X274948Y101824D01*
X274922Y101856D01*
X268008Y108770D01*
X267934Y108823D01*
X267864Y108883D01*
X267834Y108895D01*
X267808Y108914D01*
X267721Y108941D01*
X267636Y108975D01*
X267595Y108979D01*
X267573Y108986D01*
X267541Y108985D01*
X267469Y108993D01*
X263514Y108993D01*
X260717Y111790D01*
X260643Y111843D01*
X260573Y111903D01*
X260543Y111915D01*
X260517Y111934D01*
X260430Y111961D01*
X260345Y111995D01*
X260304Y111999D01*
X260282Y112006D01*
X260250Y112005D01*
X260179Y112013D01*
X176853Y112013D01*
X165988Y122878D01*
X165988Y146332D01*
X165985Y146352D01*
X165987Y146371D01*
X165965Y146473D01*
X165949Y146575D01*
X165939Y146592D01*
X165935Y146612D01*
X165882Y146701D01*
X165833Y146792D01*
X165819Y146806D01*
X165809Y146823D01*
X165730Y146890D01*
X165655Y146962D01*
X165637Y146970D01*
X165622Y146983D01*
X165526Y147022D01*
X165432Y147065D01*
X165412Y147067D01*
X165394Y147075D01*
X165227Y147093D01*
X162902Y147093D01*
X159793Y150202D01*
X159793Y154598D01*
X162902Y157707D01*
X167298Y157707D01*
X170407Y154598D01*
X170407Y150643D01*
X170421Y150552D01*
X170429Y150462D01*
X170441Y150432D01*
X170446Y150400D01*
X170489Y150319D01*
X170525Y150235D01*
X170551Y150203D01*
X170562Y150182D01*
X170562Y125088D01*
X170576Y124997D01*
X170584Y124907D01*
X170596Y124877D01*
X170601Y124845D01*
X170644Y124764D01*
X170680Y124680D01*
X170706Y124648D01*
X170717Y124627D01*
X170740Y124605D01*
X170785Y124549D01*
X174369Y120965D01*
X174427Y120923D01*
X174479Y120874D01*
X174526Y120852D01*
X174568Y120822D01*
X174637Y120801D01*
X174702Y120770D01*
X174754Y120765D01*
X174804Y120749D01*
X174875Y120751D01*
X174946Y120743D01*
X174997Y120754D01*
X175049Y120756D01*
X175117Y120780D01*
X175187Y120795D01*
X175232Y120822D01*
X175280Y120840D01*
X175336Y120885D01*
X175398Y120922D01*
X175432Y120961D01*
X175472Y120994D01*
X175511Y121054D01*
X175558Y121109D01*
X175577Y121157D01*
X175605Y121201D01*
X175623Y121270D01*
X175650Y121337D01*
X175658Y121408D01*
X175666Y121439D01*
X175664Y121463D01*
X175668Y121503D01*
X175668Y122848D01*
X178777Y125957D01*
X183173Y125957D01*
X185970Y123160D01*
X186044Y123107D01*
X186114Y123047D01*
X186144Y123035D01*
X186170Y123016D01*
X186257Y122989D01*
X186342Y122955D01*
X186383Y122951D01*
X186405Y122944D01*
X186437Y122945D01*
X186508Y122937D01*
X210367Y122937D01*
X210457Y122951D01*
X210548Y122959D01*
X210577Y122971D01*
X210609Y122976D01*
X210690Y123019D01*
X210774Y123055D01*
X210806Y123081D01*
X210827Y123092D01*
X210849Y123115D01*
X210905Y123160D01*
X213702Y125957D01*
X218098Y125957D01*
X221207Y122848D01*
X221207Y118452D01*
X220641Y117886D01*
X220599Y117828D01*
X220550Y117776D01*
X220528Y117729D01*
X220498Y117687D01*
X220476Y117618D01*
X220446Y117553D01*
X220441Y117501D01*
X220425Y117451D01*
X220427Y117380D01*
X220419Y117309D01*
X220430Y117258D01*
X220432Y117206D01*
X220456Y117138D01*
X220471Y117068D01*
X220498Y117023D01*
X220516Y116975D01*
X220561Y116919D01*
X220598Y116857D01*
X220637Y116823D01*
X220670Y116783D01*
X220730Y116744D01*
X220785Y116697D01*
X220833Y116678D01*
X220877Y116650D01*
X220946Y116632D01*
X221013Y116605D01*
X221084Y116597D01*
X221115Y116589D01*
X221138Y116591D01*
X221179Y116587D01*
X260179Y116587D01*
X260269Y116601D01*
X260360Y116609D01*
X260389Y116621D01*
X260421Y116626D01*
X260502Y116669D01*
X260586Y116705D01*
X260618Y116731D01*
X260639Y116742D01*
X260661Y116765D01*
X260717Y116810D01*
X263514Y119607D01*
X265847Y119607D01*
X265917Y119618D01*
X265989Y119620D01*
X266038Y119638D01*
X266089Y119646D01*
X266153Y119680D01*
X266220Y119705D01*
X266261Y119737D01*
X266307Y119762D01*
X266356Y119814D01*
X266412Y119858D01*
X266440Y119902D01*
X266476Y119940D01*
X266506Y120005D01*
X266545Y120065D01*
X266558Y120116D01*
X266580Y120163D01*
X266588Y120234D01*
X266605Y120304D01*
X266601Y120356D01*
X266607Y120407D01*
X266592Y120478D01*
X266586Y120549D01*
X266566Y120597D01*
X266555Y120648D01*
X266518Y120709D01*
X266490Y120775D01*
X266445Y120831D01*
X266428Y120859D01*
X266411Y120874D01*
X266385Y120906D01*
X246926Y140365D01*
X246852Y140418D01*
X246782Y140478D01*
X246752Y140490D01*
X246726Y140509D01*
X246639Y140536D01*
X246554Y140570D01*
X246513Y140574D01*
X246491Y140581D01*
X246459Y140580D01*
X246387Y140588D01*
X240483Y140588D01*
X240393Y140574D01*
X240302Y140566D01*
X240273Y140554D01*
X240241Y140549D01*
X240160Y140506D01*
X240076Y140470D01*
X240044Y140444D01*
X240023Y140433D01*
X240001Y140410D01*
X239945Y140365D01*
X237148Y137568D01*
X232752Y137568D01*
X229643Y140677D01*
X229643Y145073D01*
X232752Y148182D01*
X236176Y148182D01*
X236246Y148193D01*
X236318Y148195D01*
X236367Y148213D01*
X236418Y148221D01*
X236482Y148255D01*
X236549Y148280D01*
X236590Y148312D01*
X236636Y148337D01*
X236685Y148389D01*
X236741Y148433D01*
X236769Y148477D01*
X236805Y148515D01*
X236835Y148580D01*
X236874Y148640D01*
X236887Y148691D01*
X236909Y148738D01*
X236917Y148809D01*
X236934Y148879D01*
X236930Y148931D01*
X236936Y148982D01*
X236921Y149053D01*
X236915Y149124D01*
X236895Y149172D01*
X236884Y149223D01*
X236847Y149284D01*
X236819Y149350D01*
X236774Y149406D01*
X236757Y149434D01*
X236740Y149449D01*
X236714Y149481D01*
X235993Y150202D01*
X235993Y154598D01*
X239102Y157707D01*
X243498Y157707D01*
X246607Y154598D01*
X246607Y150643D01*
X246621Y150553D01*
X246629Y150462D01*
X246641Y150432D01*
X246646Y150400D01*
X246689Y150319D01*
X246725Y150235D01*
X246751Y150203D01*
X246762Y150182D01*
X246785Y150160D01*
X246830Y150104D01*
X247272Y149662D01*
X247330Y149620D01*
X247382Y149571D01*
X247429Y149549D01*
X247472Y149519D01*
X247540Y149497D01*
X247605Y149467D01*
X247657Y149462D01*
X247707Y149446D01*
X247778Y149448D01*
X247850Y149440D01*
X247900Y149451D01*
X247952Y149453D01*
X248020Y149477D01*
X248090Y149492D01*
X248135Y149519D01*
X248183Y149537D01*
X248239Y149582D01*
X248301Y149619D01*
X248335Y149658D01*
X248376Y149691D01*
X248414Y149751D01*
X248461Y149806D01*
X248480Y149854D01*
X248509Y149898D01*
X248526Y149967D01*
X248553Y150034D01*
X248561Y150105D01*
X248569Y150136D01*
X248567Y150159D01*
X248571Y150200D01*
X248571Y154598D01*
X251680Y157707D01*
X256076Y157707D01*
X259185Y154598D01*
X259185Y150643D01*
X259200Y150552D01*
X259207Y150462D01*
X259219Y150432D01*
X259225Y150400D01*
X259267Y150319D01*
X259303Y150235D01*
X259329Y150203D01*
X259340Y150182D01*
X259363Y150160D01*
X259408Y150104D01*
X282217Y127295D01*
X282290Y127242D01*
X282360Y127183D01*
X282390Y127171D01*
X282416Y127152D01*
X282503Y127125D01*
X282588Y127091D01*
X282629Y127086D01*
X282651Y127080D01*
X282684Y127080D01*
X282755Y127072D01*
X285889Y127072D01*
X288514Y124448D01*
X288572Y124406D01*
X288624Y124356D01*
X288671Y124334D01*
X288713Y124304D01*
X288782Y124283D01*
X288847Y124253D01*
X288899Y124247D01*
X288949Y124232D01*
X289020Y124234D01*
X289091Y124226D01*
X289142Y124237D01*
X289194Y124238D01*
X289262Y124263D01*
X289332Y124278D01*
X289377Y124305D01*
X289425Y124323D01*
X289481Y124367D01*
X289543Y124404D01*
X289577Y124444D01*
X289617Y124476D01*
X289656Y124537D01*
X289703Y124591D01*
X289722Y124639D01*
X289750Y124683D01*
X289768Y124753D01*
X289795Y124819D01*
X289803Y124891D01*
X289811Y124922D01*
X289809Y124945D01*
X289813Y124986D01*
X289813Y162872D01*
X299115Y172174D01*
X299168Y172248D01*
X299228Y172318D01*
X299240Y172348D01*
X299259Y172374D01*
X299286Y172461D01*
X299320Y172546D01*
X299324Y172587D01*
X299331Y172609D01*
X299330Y172641D01*
X299338Y172713D01*
X299338Y184277D01*
X299335Y184297D01*
X299337Y184316D01*
X299315Y184418D01*
X299299Y184520D01*
X299289Y184537D01*
X299285Y184557D01*
X299232Y184646D01*
X299183Y184737D01*
X299169Y184751D01*
X299159Y184768D01*
X299080Y184835D01*
X299005Y184907D01*
X298987Y184915D01*
X298972Y184928D01*
X298876Y184967D01*
X298782Y185010D01*
X298762Y185012D01*
X298744Y185020D01*
X298577Y185038D01*
X268113Y185038D01*
X254073Y199078D01*
X254073Y207346D01*
X254118Y207398D01*
X254130Y207428D01*
X254149Y207454D01*
X254176Y207541D01*
X254210Y207626D01*
X254214Y207667D01*
X254221Y207689D01*
X254220Y207721D01*
X254228Y207793D01*
X254228Y211748D01*
X257337Y214857D01*
X261733Y214857D01*
X264842Y211748D01*
X264842Y207352D01*
X261733Y204243D01*
X259408Y204243D01*
X259388Y204240D01*
X259368Y204242D01*
X259267Y204220D01*
X259165Y204204D01*
X259148Y204194D01*
X259128Y204190D01*
X259039Y204137D01*
X258948Y204088D01*
X258934Y204074D01*
X258917Y204064D01*
X258850Y203985D01*
X258778Y203910D01*
X258770Y203892D01*
X258757Y203877D01*
X258718Y203781D01*
X258675Y203687D01*
X258673Y203667D01*
X258665Y203649D01*
X258647Y203482D01*
X258647Y201288D01*
X258661Y201197D01*
X258668Y201107D01*
X258681Y201077D01*
X258686Y201045D01*
X258729Y200964D01*
X258765Y200880D01*
X258791Y200848D01*
X258801Y200827D01*
X258825Y200805D01*
X258837Y200790D01*
X258843Y200780D01*
X258850Y200774D01*
X258870Y200749D01*
X262389Y197229D01*
X262448Y197187D01*
X262500Y197138D01*
X262547Y197116D01*
X262589Y197086D01*
X262658Y197065D01*
X262723Y197034D01*
X262775Y197029D01*
X262824Y197013D01*
X262896Y197015D01*
X262967Y197007D01*
X263018Y197018D01*
X263070Y197020D01*
X263138Y197044D01*
X263208Y197060D01*
X263252Y197086D01*
X263301Y197104D01*
X263357Y197149D01*
X263419Y197186D01*
X263453Y197225D01*
X263493Y197258D01*
X263532Y197318D01*
X263579Y197373D01*
X263598Y197421D01*
X263626Y197465D01*
X263644Y197534D01*
X263671Y197601D01*
X263678Y197672D01*
X263686Y197703D01*
X263684Y197727D01*
X263689Y197768D01*
X263689Y198169D01*
X266486Y200966D01*
X266539Y201040D01*
X266599Y201109D01*
X266611Y201139D01*
X266630Y201166D01*
X266656Y201253D01*
X266691Y201337D01*
X266695Y201378D01*
X266702Y201401D01*
X266701Y201433D01*
X266709Y201504D01*
X266709Y231843D01*
X268271Y233405D01*
X268272Y233405D01*
X317484Y282618D01*
X319047Y284181D01*
X327842Y284181D01*
X327932Y284195D01*
X328023Y284203D01*
X328052Y284215D01*
X328084Y284220D01*
X328165Y284263D01*
X328249Y284299D01*
X328281Y284325D01*
X328302Y284336D01*
X328324Y284359D01*
X328380Y284404D01*
X331177Y287201D01*
X335573Y287201D01*
X338682Y284092D01*
X338682Y279696D01*
X335573Y276587D01*
X331177Y276587D01*
X328380Y279384D01*
X328306Y279437D01*
X328236Y279497D01*
X328206Y279509D01*
X328180Y279528D01*
X328093Y279555D01*
X328008Y279589D01*
X327967Y279593D01*
X327945Y279600D01*
X327913Y279599D01*
X327842Y279607D01*
X321256Y279607D01*
X321166Y279593D01*
X321075Y279585D01*
X321046Y279573D01*
X321014Y279568D01*
X320933Y279525D01*
X320849Y279489D01*
X320817Y279463D01*
X320796Y279452D01*
X320774Y279429D01*
X320718Y279384D01*
X271505Y230172D01*
X271452Y230098D01*
X271393Y230028D01*
X271381Y229998D01*
X271362Y229972D01*
X271335Y229885D01*
X271301Y229800D01*
X271296Y229759D01*
X271290Y229737D01*
X271290Y229705D01*
X271282Y229633D01*
X271282Y201504D01*
X271297Y201414D01*
X271304Y201323D01*
X271317Y201293D01*
X271322Y201261D01*
X271365Y201181D01*
X271401Y201097D01*
X271426Y201065D01*
X271437Y201044D01*
X271461Y201022D01*
X271505Y200966D01*
X274302Y198169D01*
X274302Y193773D01*
X271441Y190911D01*
X271399Y190853D01*
X271350Y190801D01*
X271328Y190754D01*
X271298Y190712D01*
X271276Y190643D01*
X271246Y190578D01*
X271241Y190526D01*
X271225Y190476D01*
X271227Y190405D01*
X271219Y190334D01*
X271230Y190283D01*
X271232Y190231D01*
X271256Y190163D01*
X271271Y190093D01*
X271298Y190048D01*
X271316Y190000D01*
X271361Y189944D01*
X271398Y189882D01*
X271437Y189848D01*
X271470Y189808D01*
X271530Y189769D01*
X271585Y189722D01*
X271633Y189703D01*
X271677Y189675D01*
X271746Y189657D01*
X271813Y189630D01*
X271884Y189622D01*
X271915Y189614D01*
X271938Y189616D01*
X271979Y189612D01*
X295557Y189612D01*
X295577Y189615D01*
X295596Y189613D01*
X295698Y189635D01*
X295800Y189651D01*
X295817Y189661D01*
X295837Y189665D01*
X295926Y189718D01*
X296017Y189767D01*
X296031Y189781D01*
X296048Y189791D01*
X296115Y189870D01*
X296187Y189945D01*
X296195Y189963D01*
X296208Y189978D01*
X296247Y190074D01*
X296290Y190168D01*
X296292Y190188D01*
X296300Y190206D01*
X296318Y190373D01*
X296318Y192698D01*
X299427Y195807D01*
X299923Y195807D01*
X299994Y195818D01*
X300066Y195820D01*
X300115Y195838D01*
X300166Y195846D01*
X300229Y195880D01*
X300297Y195905D01*
X300337Y195937D01*
X300383Y195962D01*
X300433Y196014D01*
X300489Y196058D01*
X300517Y196102D01*
X300553Y196140D01*
X300583Y196205D01*
X300622Y196265D01*
X300634Y196316D01*
X300656Y196363D01*
X300664Y196434D01*
X300682Y196504D01*
X300678Y196556D01*
X300683Y196607D01*
X300668Y196678D01*
X300663Y196749D01*
X300642Y196797D01*
X300631Y196848D01*
X300594Y196909D01*
X300566Y196975D01*
X300522Y197031D01*
X300505Y197059D01*
X300487Y197074D01*
X300461Y197106D01*
X291221Y206347D01*
X291147Y206400D01*
X291077Y206459D01*
X291047Y206472D01*
X291021Y206490D01*
X290934Y206517D01*
X290849Y206551D01*
X290808Y206556D01*
X290786Y206563D01*
X290754Y206562D01*
X290682Y206570D01*
X286727Y206570D01*
X283618Y209678D01*
X283618Y212725D01*
X283615Y212745D01*
X283617Y212765D01*
X283595Y212866D01*
X283579Y212968D01*
X283569Y212985D01*
X283565Y213005D01*
X283512Y213094D01*
X283463Y213185D01*
X283449Y213199D01*
X283439Y213216D01*
X283360Y213283D01*
X283285Y213355D01*
X283267Y213363D01*
X283252Y213376D01*
X283156Y213415D01*
X283062Y213458D01*
X283042Y213460D01*
X283024Y213468D01*
X282857Y213486D01*
X280377Y213486D01*
X277268Y216595D01*
X277268Y220991D01*
X280377Y224100D01*
X284332Y224100D01*
X284423Y224115D01*
X284513Y224122D01*
X284543Y224134D01*
X284575Y224140D01*
X284656Y224182D01*
X284740Y224218D01*
X284772Y224244D01*
X284793Y224255D01*
X284800Y224262D01*
X284801Y224263D01*
X284817Y224279D01*
X284871Y224323D01*
X297785Y237237D01*
X322587Y237237D01*
X322678Y237251D01*
X322768Y237259D01*
X322798Y237271D01*
X322830Y237276D01*
X322911Y237319D01*
X322995Y237355D01*
X323027Y237381D01*
X323048Y237392D01*
X323070Y237415D01*
X323126Y237460D01*
X343814Y258148D01*
X343826Y258164D01*
X343841Y258177D01*
X343897Y258264D01*
X343958Y258348D01*
X343963Y258367D01*
X343974Y258384D01*
X344000Y258484D01*
X344030Y258583D01*
X344029Y258603D01*
X344034Y258622D01*
X344026Y258725D01*
X344024Y258829D01*
X344017Y258848D01*
X344015Y258867D01*
X343975Y258962D01*
X343939Y259060D01*
X343927Y259075D01*
X343919Y259094D01*
X343814Y259225D01*
X342828Y260211D01*
X342828Y264607D01*
X345936Y267716D01*
X350332Y267716D01*
X353441Y264607D01*
X353441Y263263D01*
X353453Y263192D01*
X353454Y263120D01*
X353472Y263071D01*
X353481Y263020D01*
X353514Y262957D01*
X353539Y262889D01*
X353571Y262849D01*
X353596Y262803D01*
X353648Y262753D01*
X353693Y262697D01*
X353736Y262669D01*
X353774Y262633D01*
X353839Y262603D01*
X353899Y262564D01*
X353950Y262552D01*
X353997Y262530D01*
X354068Y262522D01*
X354138Y262504D01*
X354190Y262508D01*
X354242Y262502D01*
X354312Y262518D01*
X354383Y262523D01*
X354431Y262544D01*
X354482Y262555D01*
X354544Y262592D01*
X354610Y262620D01*
X354665Y262664D01*
X354693Y262681D01*
X354708Y262699D01*
X354741Y262724D01*
X361003Y268987D01*
X378772Y268987D01*
X385054Y262705D01*
X385128Y262652D01*
X385198Y262592D01*
X385228Y262580D01*
X385254Y262561D01*
X385341Y262534D01*
X385426Y262500D01*
X385467Y262496D01*
X385489Y262489D01*
X385521Y262490D01*
X385593Y262482D01*
X389548Y262482D01*
X392657Y259373D01*
X392657Y254977D01*
X389548Y251868D01*
X385152Y251868D01*
X382043Y254977D01*
X382043Y258932D01*
X382029Y259023D01*
X382021Y259113D01*
X382009Y259143D01*
X382004Y259175D01*
X381961Y259256D01*
X381925Y259340D01*
X381899Y259372D01*
X381888Y259393D01*
X381865Y259415D01*
X381820Y259471D01*
X377101Y264190D01*
X377027Y264243D01*
X376957Y264303D01*
X376927Y264315D01*
X376901Y264334D01*
X376814Y264361D01*
X376729Y264395D01*
X376688Y264399D01*
X376666Y264406D01*
X376634Y264405D01*
X376562Y264413D01*
X363213Y264413D01*
X363122Y264399D01*
X363032Y264391D01*
X363002Y264379D01*
X362970Y264374D01*
X362889Y264331D01*
X362805Y264295D01*
X362773Y264269D01*
X362752Y264258D01*
X362730Y264235D01*
X362674Y264190D01*
X348195Y249711D01*
X348181Y249691D01*
X348162Y249676D01*
X348109Y249591D01*
X348051Y249511D01*
X348044Y249488D01*
X348031Y249468D01*
X348008Y249371D01*
X347979Y249276D01*
X347979Y249252D01*
X347974Y249228D01*
X347983Y249130D01*
X347985Y249030D01*
X347993Y249007D01*
X347996Y248983D01*
X348035Y248893D01*
X348070Y248799D01*
X348085Y248780D01*
X348094Y248758D01*
X348161Y248685D01*
X348223Y248607D01*
X348244Y248594D01*
X348260Y248576D01*
X348346Y248528D01*
X348430Y248474D01*
X348454Y248468D01*
X348475Y248456D01*
X348572Y248438D01*
X348669Y248414D01*
X348693Y248416D01*
X348716Y248411D01*
X348815Y248425D01*
X348914Y248433D01*
X348936Y248442D01*
X348960Y248446D01*
X349114Y248513D01*
X349294Y248618D01*
X349941Y248791D01*
X357252Y248791D01*
X357252Y242773D01*
X347734Y242773D01*
X347734Y246584D01*
X347907Y247231D01*
X348012Y247411D01*
X348020Y247434D01*
X348034Y247454D01*
X348064Y247548D01*
X348099Y247641D01*
X348100Y247666D01*
X348107Y247689D01*
X348104Y247788D01*
X348108Y247887D01*
X348101Y247910D01*
X348100Y247934D01*
X348066Y248028D01*
X348038Y248123D01*
X348024Y248143D01*
X348016Y248165D01*
X347954Y248243D01*
X347897Y248324D01*
X347877Y248339D01*
X347862Y248358D01*
X347778Y248411D01*
X347698Y248470D01*
X347676Y248477D01*
X347655Y248491D01*
X347559Y248515D01*
X347464Y248545D01*
X347440Y248545D01*
X347417Y248551D01*
X347318Y248543D01*
X347218Y248541D01*
X347195Y248533D01*
X347172Y248531D01*
X347080Y248493D01*
X346986Y248459D01*
X346967Y248445D01*
X346945Y248435D01*
X346814Y248330D01*
X336865Y238381D01*
X336823Y238323D01*
X336774Y238271D01*
X336752Y238224D01*
X336722Y238182D01*
X336701Y238113D01*
X336670Y238048D01*
X336665Y237996D01*
X336649Y237946D01*
X336651Y237875D01*
X336643Y237804D01*
X336654Y237753D01*
X336656Y237701D01*
X336680Y237633D01*
X336695Y237563D01*
X336722Y237519D01*
X336740Y237470D01*
X336785Y237414D01*
X336822Y237352D01*
X336861Y237318D01*
X336894Y237278D01*
X336954Y237239D01*
X337009Y237192D01*
X337057Y237173D01*
X337101Y237145D01*
X337170Y237127D01*
X337237Y237100D01*
X337308Y237092D01*
X337339Y237084D01*
X337363Y237086D01*
X337403Y237082D01*
X338748Y237082D01*
X341545Y234285D01*
X341619Y234232D01*
X341689Y234172D01*
X341719Y234160D01*
X341745Y234141D01*
X341832Y234114D01*
X341917Y234080D01*
X341958Y234076D01*
X341980Y234069D01*
X342012Y234070D01*
X342083Y234062D01*
X347286Y234062D01*
X347380Y234077D01*
X347475Y234086D01*
X347501Y234097D01*
X347529Y234101D01*
X347613Y234146D01*
X347700Y234184D01*
X347721Y234203D01*
X347746Y234217D01*
X347812Y234286D01*
X347882Y234350D01*
X347896Y234374D01*
X347916Y234395D01*
X347956Y234481D01*
X348002Y234565D01*
X348007Y234592D01*
X348019Y234618D01*
X348030Y234713D01*
X348047Y234807D01*
X348043Y234834D01*
X348046Y234862D01*
X348026Y234956D01*
X348013Y235050D01*
X347999Y235082D01*
X347994Y235103D01*
X347977Y235131D01*
X347945Y235204D01*
X347907Y235269D01*
X347734Y235916D01*
X347734Y239727D01*
X358013Y239727D01*
X358033Y239730D01*
X358052Y239728D01*
X358154Y239750D01*
X358256Y239767D01*
X358273Y239776D01*
X358293Y239780D01*
X358382Y239833D01*
X358473Y239882D01*
X358487Y239896D01*
X358504Y239906D01*
X358571Y239985D01*
X358642Y240060D01*
X358651Y240078D01*
X358664Y240093D01*
X358703Y240189D01*
X358746Y240283D01*
X358748Y240303D01*
X358756Y240321D01*
X358774Y240488D01*
X358774Y241251D01*
X358776Y241251D01*
X358776Y240488D01*
X358779Y240468D01*
X358777Y240449D01*
X358799Y240347D01*
X358816Y240245D01*
X358825Y240228D01*
X358829Y240208D01*
X358882Y240119D01*
X358931Y240028D01*
X358945Y240014D01*
X358955Y239997D01*
X359034Y239930D01*
X359109Y239859D01*
X359127Y239850D01*
X359142Y239837D01*
X359238Y239798D01*
X359332Y239755D01*
X359352Y239753D01*
X359370Y239745D01*
X359537Y239727D01*
X369816Y239727D01*
X369816Y235915D01*
X369643Y235269D01*
X369605Y235204D01*
X369571Y235114D01*
X369531Y235028D01*
X369528Y235000D01*
X369518Y234974D01*
X369514Y234878D01*
X369504Y234784D01*
X369510Y234756D01*
X369509Y234728D01*
X369536Y234636D01*
X369556Y234543D01*
X369570Y234519D01*
X369578Y234492D01*
X369633Y234414D01*
X369682Y234332D01*
X369704Y234314D01*
X369720Y234291D01*
X369797Y234234D01*
X369869Y234172D01*
X369895Y234162D01*
X369918Y234145D01*
X370009Y234116D01*
X370097Y234080D01*
X370132Y234076D01*
X370152Y234070D01*
X370185Y234070D01*
X370264Y234062D01*
X372422Y234062D01*
X373985Y232499D01*
X380744Y225740D01*
X380802Y225698D01*
X380854Y225649D01*
X380901Y225627D01*
X380943Y225597D01*
X381012Y225576D01*
X381077Y225545D01*
X381129Y225540D01*
X381179Y225524D01*
X381250Y225526D01*
X381321Y225518D01*
X381372Y225529D01*
X381424Y225531D01*
X381492Y225555D01*
X381562Y225570D01*
X381607Y225597D01*
X381655Y225615D01*
X381711Y225660D01*
X381773Y225697D01*
X381807Y225736D01*
X381847Y225769D01*
X381886Y225829D01*
X381933Y225884D01*
X381952Y225932D01*
X381980Y225976D01*
X381998Y226045D01*
X382025Y226112D01*
X382033Y226183D01*
X382041Y226214D01*
X382039Y226238D01*
X382043Y226278D01*
X382043Y230798D01*
X385152Y233907D01*
X389107Y233907D01*
X389198Y233921D01*
X389288Y233929D01*
X389318Y233941D01*
X389350Y233946D01*
X389431Y233989D01*
X389515Y234025D01*
X389547Y234051D01*
X389568Y234062D01*
X389590Y234085D01*
X389646Y234130D01*
X397695Y242179D01*
X397748Y242253D01*
X397808Y242323D01*
X397820Y242353D01*
X397839Y242379D01*
X397866Y242466D01*
X397900Y242551D01*
X397904Y242592D01*
X397911Y242614D01*
X397910Y242646D01*
X397918Y242718D01*
X397918Y246797D01*
X397907Y246867D01*
X397905Y246939D01*
X397887Y246988D01*
X397879Y247039D01*
X397845Y247103D01*
X397820Y247170D01*
X397788Y247211D01*
X397763Y247257D01*
X397711Y247306D01*
X397667Y247362D01*
X397623Y247390D01*
X397585Y247426D01*
X397520Y247456D01*
X397460Y247495D01*
X397409Y247508D01*
X397362Y247530D01*
X397291Y247538D01*
X397221Y247555D01*
X397169Y247551D01*
X397118Y247557D01*
X397047Y247542D01*
X396976Y247536D01*
X396928Y247516D01*
X396877Y247505D01*
X396816Y247468D01*
X396750Y247440D01*
X396694Y247395D01*
X396666Y247378D01*
X396651Y247361D01*
X396619Y247335D01*
X392880Y243596D01*
X392827Y243522D01*
X392767Y243452D01*
X392755Y243422D01*
X392736Y243396D01*
X392709Y243309D01*
X392675Y243224D01*
X392671Y243183D01*
X392664Y243161D01*
X392665Y243129D01*
X392657Y243057D01*
X392657Y242277D01*
X389548Y239168D01*
X385152Y239168D01*
X382043Y242277D01*
X382043Y246673D01*
X385152Y249782D01*
X389548Y249782D01*
X390535Y248795D01*
X390551Y248784D01*
X390563Y248768D01*
X390651Y248712D01*
X390734Y248652D01*
X390753Y248646D01*
X390770Y248635D01*
X390871Y248610D01*
X390969Y248579D01*
X390989Y248580D01*
X391009Y248575D01*
X391112Y248583D01*
X391215Y248586D01*
X391234Y248593D01*
X391254Y248594D01*
X391349Y248634D01*
X391446Y248670D01*
X391462Y248683D01*
X391480Y248690D01*
X391611Y248795D01*
X400870Y258054D01*
X400923Y258128D01*
X400983Y258198D01*
X400995Y258228D01*
X401014Y258254D01*
X401041Y258341D01*
X401075Y258426D01*
X401079Y258467D01*
X401086Y258489D01*
X401085Y258521D01*
X401093Y258593D01*
X401093Y262548D01*
X404202Y265657D01*
X408598Y265657D01*
X411707Y262548D01*
X411707Y258152D01*
X408598Y255043D01*
X404643Y255043D01*
X404552Y255029D01*
X404462Y255021D01*
X404432Y255009D01*
X404400Y255004D01*
X404319Y254961D01*
X404235Y254925D01*
X404203Y254899D01*
X404182Y254888D01*
X404160Y254865D01*
X404104Y254820D01*
X400365Y251081D01*
X400323Y251023D01*
X400274Y250971D01*
X400252Y250924D01*
X400222Y250882D01*
X400201Y250813D01*
X400170Y250748D01*
X400165Y250696D01*
X400149Y250646D01*
X400151Y250575D01*
X400143Y250504D01*
X400154Y250453D01*
X400156Y250401D01*
X400180Y250333D01*
X400195Y250263D01*
X400222Y250218D01*
X400240Y250170D01*
X400285Y250114D01*
X400322Y250052D01*
X400361Y250018D01*
X400394Y249978D01*
X400454Y249939D01*
X400509Y249892D01*
X400557Y249873D01*
X400601Y249845D01*
X400670Y249827D01*
X400737Y249800D01*
X400808Y249792D01*
X400839Y249784D01*
X400863Y249786D01*
X400903Y249782D01*
X405423Y249782D01*
X408532Y246673D01*
X408532Y242277D01*
X405423Y239168D01*
X401468Y239168D01*
X401377Y239154D01*
X401287Y239146D01*
X401257Y239134D01*
X401225Y239129D01*
X401144Y239086D01*
X401060Y239050D01*
X401028Y239024D01*
X401007Y239013D01*
X400985Y238990D01*
X400929Y238945D01*
X392880Y230896D01*
X392827Y230822D01*
X392767Y230752D01*
X392755Y230722D01*
X392736Y230696D01*
X392709Y230609D01*
X392675Y230524D01*
X392671Y230483D01*
X392664Y230461D01*
X392665Y230429D01*
X392657Y230357D01*
X392657Y226402D01*
X389548Y223293D01*
X385028Y223293D01*
X384958Y223282D01*
X384886Y223280D01*
X384837Y223262D01*
X384786Y223254D01*
X384722Y223220D01*
X384655Y223195D01*
X384614Y223163D01*
X384568Y223138D01*
X384519Y223086D01*
X384463Y223042D01*
X384435Y222998D01*
X384399Y222960D01*
X384369Y222895D01*
X384330Y222835D01*
X384317Y222784D01*
X384295Y222737D01*
X384287Y222666D01*
X384270Y222596D01*
X384274Y222544D01*
X384268Y222493D01*
X384283Y222422D01*
X384289Y222351D01*
X384309Y222303D01*
X384320Y222252D01*
X384357Y222191D01*
X384385Y222125D01*
X384430Y222069D01*
X384447Y222041D01*
X384464Y222026D01*
X384490Y221994D01*
X392812Y213672D01*
X392812Y185413D01*
X392825Y185333D01*
X392825Y170646D01*
X392839Y170556D01*
X392847Y170465D01*
X392859Y170436D01*
X392864Y170404D01*
X392907Y170323D01*
X392943Y170239D01*
X392969Y170207D01*
X392980Y170186D01*
X393003Y170164D01*
X393048Y170108D01*
X395845Y167311D01*
X395845Y162915D01*
X392736Y159806D01*
X392335Y159806D01*
X392264Y159795D01*
X392192Y159793D01*
X392143Y159775D01*
X392092Y159767D01*
X392029Y159733D01*
X391961Y159708D01*
X391921Y159676D01*
X391875Y159651D01*
X391825Y159600D01*
X391769Y159555D01*
X391741Y159511D01*
X391705Y159473D01*
X391675Y159408D01*
X391636Y159348D01*
X391624Y159297D01*
X391602Y159250D01*
X391594Y159179D01*
X391576Y159109D01*
X391580Y159057D01*
X391575Y159006D01*
X391590Y158935D01*
X391595Y158864D01*
X391616Y158816D01*
X391627Y158765D01*
X391664Y158704D01*
X391692Y158638D01*
X391737Y158582D01*
X391753Y158554D01*
X391771Y158539D01*
X391797Y158507D01*
X426779Y123524D01*
X426873Y123457D01*
X426968Y123386D01*
X426974Y123384D01*
X426979Y123381D01*
X427090Y123346D01*
X427202Y123310D01*
X427208Y123310D01*
X427214Y123308D01*
X427331Y123311D01*
X427448Y123312D01*
X427455Y123314D01*
X427460Y123315D01*
X427477Y123321D01*
X427609Y123359D01*
X428712Y123816D01*
X431423Y123816D01*
X433928Y122779D01*
X435845Y120862D01*
X436729Y118729D01*
X436732Y118724D01*
X436733Y118718D01*
X436796Y118620D01*
X436858Y118520D01*
X436863Y118516D01*
X436866Y118511D01*
X436957Y118438D01*
X437048Y118363D01*
X437053Y118361D01*
X437058Y118357D01*
X437168Y118317D01*
X437277Y118275D01*
X437283Y118274D01*
X437289Y118272D01*
X437406Y118269D01*
X437523Y118264D01*
X437529Y118266D01*
X437535Y118266D01*
X437647Y118300D01*
X437759Y118333D01*
X437764Y118336D01*
X437770Y118338D01*
X437865Y118406D01*
X437961Y118473D01*
X437965Y118478D01*
X437970Y118481D01*
X438075Y118612D01*
X446312Y131592D01*
X446318Y131605D01*
X446327Y131616D01*
X446364Y131714D01*
X446400Y131792D01*
X446401Y131802D01*
X446409Y131819D01*
X446410Y131832D01*
X446415Y131846D01*
X446419Y131955D01*
X446422Y131985D01*
X446427Y132036D01*
X446426Y132042D01*
X446428Y132064D01*
X446425Y132077D01*
X446425Y132091D01*
X446395Y132197D01*
X446379Y132258D01*
X446375Y132277D01*
X446374Y132278D01*
X446368Y132302D01*
X446361Y132314D01*
X446357Y132328D01*
X446294Y132417D01*
X446235Y132509D01*
X446224Y132518D01*
X446216Y132530D01*
X446129Y132595D01*
X446043Y132663D01*
X446030Y132668D01*
X446019Y132676D01*
X445915Y132710D01*
X445813Y132748D01*
X445798Y132748D01*
X445785Y132753D01*
X445722Y132752D01*
X445667Y132758D01*
X445661Y132758D01*
X445629Y132753D01*
X445567Y132754D01*
X445553Y132750D01*
X445539Y132750D01*
X445443Y132722D01*
X445418Y132718D01*
X445406Y132711D01*
X445378Y132703D01*
X444123Y132184D01*
X441412Y132184D01*
X438908Y133221D01*
X436991Y135138D01*
X435953Y137643D01*
X435953Y140354D01*
X436410Y141458D01*
X436437Y141571D01*
X436466Y141685D01*
X436465Y141691D01*
X436466Y141697D01*
X436455Y141814D01*
X436446Y141930D01*
X436444Y141936D01*
X436443Y141942D01*
X436396Y142050D01*
X436350Y142156D01*
X436345Y142162D01*
X436343Y142167D01*
X436331Y142180D01*
X436245Y142287D01*
X429513Y149019D01*
X429513Y169092D01*
X429499Y169182D01*
X429491Y169273D01*
X429479Y169302D01*
X429474Y169334D01*
X429431Y169415D01*
X429395Y169499D01*
X429369Y169531D01*
X429358Y169552D01*
X429335Y169574D01*
X429290Y169630D01*
X426493Y172427D01*
X426493Y176823D01*
X429602Y179932D01*
X433998Y179932D01*
X437107Y176823D01*
X437107Y172427D01*
X434310Y169630D01*
X434257Y169556D01*
X434197Y169486D01*
X434185Y169456D01*
X434166Y169430D01*
X434139Y169343D01*
X434105Y169258D01*
X434101Y169217D01*
X434094Y169195D01*
X434095Y169163D01*
X434087Y169092D01*
X434087Y151229D01*
X434101Y151139D01*
X434109Y151048D01*
X434121Y151018D01*
X434126Y150986D01*
X434169Y150906D01*
X434205Y150822D01*
X434231Y150790D01*
X434242Y150769D01*
X434265Y150747D01*
X434310Y150691D01*
X439479Y145521D01*
X439574Y145453D01*
X439668Y145383D01*
X439674Y145381D01*
X439679Y145378D01*
X439790Y145343D01*
X439902Y145307D01*
X439908Y145307D01*
X439914Y145305D01*
X440031Y145308D01*
X440148Y145309D01*
X440155Y145311D01*
X440160Y145312D01*
X440177Y145318D01*
X440309Y145356D01*
X441412Y145813D01*
X442335Y145813D01*
X442381Y145821D01*
X442427Y145819D01*
X442501Y145840D01*
X442578Y145853D01*
X442619Y145874D01*
X442663Y145887D01*
X442727Y145932D01*
X442796Y145968D01*
X442827Y146001D01*
X442865Y146028D01*
X442911Y146090D01*
X442965Y146146D01*
X442984Y146188D01*
X443012Y146225D01*
X443036Y146299D01*
X443069Y146369D01*
X443074Y146415D01*
X443088Y146459D01*
X443087Y146537D01*
X443096Y146614D01*
X443086Y146659D01*
X443085Y146705D01*
X443047Y146836D01*
X443043Y146854D01*
X443041Y146859D01*
X443039Y146866D01*
X442303Y148641D01*
X442303Y151353D01*
X443341Y153857D01*
X445258Y155774D01*
X447762Y156812D01*
X450473Y156812D01*
X452978Y155774D01*
X454895Y153857D01*
X455675Y151974D01*
X455704Y151928D01*
X455723Y151878D01*
X455768Y151824D01*
X455805Y151765D01*
X455846Y151730D01*
X455881Y151689D01*
X455941Y151652D01*
X455994Y151608D01*
X456045Y151589D01*
X456091Y151560D01*
X456159Y151545D01*
X456224Y151520D01*
X456278Y151517D01*
X456330Y151505D01*
X456400Y151512D01*
X456470Y151509D01*
X456522Y151524D01*
X456575Y151530D01*
X456639Y151558D01*
X456706Y151578D01*
X456750Y151608D01*
X456799Y151631D01*
X456851Y151678D01*
X456908Y151718D01*
X456940Y151761D01*
X456980Y151798D01*
X457037Y151892D01*
X457055Y151915D01*
X457058Y151926D01*
X457067Y151941D01*
X463644Y165916D01*
X463652Y165946D01*
X463679Y166005D01*
X472930Y194478D01*
X472935Y194509D01*
X472954Y194571D01*
X478564Y223978D01*
X478565Y224009D01*
X478576Y224073D01*
X480456Y253952D01*
X480453Y253983D01*
X480456Y254048D01*
X478576Y283927D01*
X478569Y283957D01*
X478564Y284022D01*
X472954Y313429D01*
X472943Y313459D01*
X472930Y313522D01*
X463679Y341995D01*
X463665Y342022D01*
X463644Y342084D01*
X457067Y356059D01*
X457037Y356103D01*
X457015Y356153D01*
X456968Y356204D01*
X456928Y356262D01*
X456885Y356294D01*
X456849Y356334D01*
X456787Y356367D01*
X456731Y356409D01*
X456680Y356426D01*
X456633Y356452D01*
X456564Y356465D01*
X456498Y356487D01*
X456444Y356486D01*
X456391Y356496D01*
X456322Y356486D01*
X456252Y356486D01*
X456201Y356468D01*
X456148Y356460D01*
X456085Y356429D01*
X456019Y356406D01*
X455977Y356373D01*
X455928Y356349D01*
X455879Y356299D01*
X455824Y356256D01*
X455794Y356212D01*
X455756Y356173D01*
X455703Y356076D01*
X455687Y356052D01*
X455684Y356042D01*
X455675Y356026D01*
X454895Y354143D01*
X452978Y352226D01*
X450473Y351188D01*
X447762Y351188D01*
X447702Y351213D01*
X447638Y351228D01*
X447577Y351253D01*
X447494Y351262D01*
X447462Y351269D01*
X447443Y351268D01*
X447411Y351271D01*
X440065Y351271D01*
X440045Y351268D01*
X440026Y351270D01*
X439924Y351248D01*
X439822Y351231D01*
X439805Y351222D01*
X439785Y351218D01*
X439696Y351165D01*
X439605Y351116D01*
X439591Y351102D01*
X439574Y351092D01*
X439507Y351013D01*
X439436Y350938D01*
X439427Y350920D01*
X439414Y350905D01*
X439375Y350809D01*
X439332Y350715D01*
X439330Y350695D01*
X439322Y350677D01*
X439304Y350510D01*
X439304Y297749D01*
X418280Y276725D01*
X418227Y276651D01*
X418167Y276581D01*
X418155Y276551D01*
X418136Y276525D01*
X418109Y276438D01*
X418075Y276353D01*
X418071Y276312D01*
X418064Y276290D01*
X418065Y276258D01*
X418057Y276186D01*
X418057Y274027D01*
X414948Y270918D01*
X410552Y270918D01*
X409025Y272445D01*
X408951Y272498D01*
X408881Y272558D01*
X408851Y272570D01*
X408825Y272589D01*
X408738Y272616D01*
X408653Y272650D01*
X408612Y272654D01*
X408590Y272661D01*
X408558Y272660D01*
X408487Y272668D01*
X391613Y272668D01*
X391523Y272654D01*
X391432Y272646D01*
X391403Y272634D01*
X391371Y272629D01*
X391290Y272586D01*
X391206Y272550D01*
X391174Y272524D01*
X391153Y272513D01*
X391131Y272490D01*
X391075Y272445D01*
X389548Y270918D01*
X385152Y270918D01*
X382043Y274027D01*
X382043Y278423D01*
X383570Y279950D01*
X383623Y280024D01*
X383683Y280094D01*
X383695Y280124D01*
X383714Y280150D01*
X383741Y280237D01*
X383775Y280322D01*
X383779Y280363D01*
X383786Y280385D01*
X383785Y280417D01*
X383793Y280488D01*
X383793Y305082D01*
X383790Y305102D01*
X383792Y305121D01*
X383770Y305223D01*
X383754Y305325D01*
X383744Y305342D01*
X383740Y305362D01*
X383687Y305451D01*
X383638Y305542D01*
X383624Y305556D01*
X383614Y305573D01*
X383535Y305640D01*
X383460Y305712D01*
X383442Y305720D01*
X383427Y305733D01*
X383331Y305772D01*
X383237Y305815D01*
X383217Y305817D01*
X383199Y305825D01*
X383032Y305843D01*
X381977Y305843D01*
X378868Y308952D01*
X378868Y313348D01*
X381977Y316457D01*
X386373Y316457D01*
X389482Y313348D01*
X389482Y311189D01*
X389496Y311098D01*
X389504Y311008D01*
X389516Y310978D01*
X389521Y310946D01*
X389564Y310865D01*
X389600Y310781D01*
X389626Y310749D01*
X389637Y310728D01*
X389660Y310706D01*
X389705Y310650D01*
X390907Y309448D01*
X390907Y280543D01*
X390910Y280523D01*
X390908Y280504D01*
X390930Y280402D01*
X390946Y280300D01*
X390956Y280283D01*
X390960Y280263D01*
X391013Y280174D01*
X391062Y280083D01*
X391076Y280069D01*
X391086Y280052D01*
X391165Y279985D01*
X391240Y279913D01*
X391258Y279905D01*
X391273Y279892D01*
X391369Y279853D01*
X391463Y279810D01*
X391483Y279808D01*
X391501Y279800D01*
X391668Y279782D01*
X408487Y279782D01*
X408577Y279796D01*
X408668Y279804D01*
X408697Y279816D01*
X408729Y279821D01*
X408810Y279864D01*
X408894Y279900D01*
X408926Y279926D01*
X408947Y279937D01*
X408969Y279960D01*
X409025Y280005D01*
X410552Y281532D01*
X412711Y281532D01*
X412802Y281546D01*
X412892Y281554D01*
X412922Y281566D01*
X412954Y281571D01*
X413035Y281614D01*
X413119Y281650D01*
X413151Y281676D01*
X413172Y281687D01*
X413194Y281710D01*
X413250Y281755D01*
X431967Y300472D01*
X432012Y300534D01*
X432042Y300566D01*
X432048Y300578D01*
X432080Y300616D01*
X432092Y300646D01*
X432111Y300672D01*
X432138Y300759D01*
X432172Y300844D01*
X432176Y300885D01*
X432183Y300907D01*
X432182Y300939D01*
X432190Y301011D01*
X432190Y337123D01*
X432179Y337193D01*
X432177Y337265D01*
X432159Y337314D01*
X432151Y337365D01*
X432117Y337429D01*
X432092Y337496D01*
X432060Y337537D01*
X432036Y337583D01*
X431984Y337632D01*
X431939Y337688D01*
X431895Y337716D01*
X431857Y337752D01*
X431792Y337782D01*
X431732Y337821D01*
X431681Y337834D01*
X431634Y337856D01*
X431563Y337864D01*
X431493Y337881D01*
X431441Y337877D01*
X431390Y337883D01*
X431319Y337868D01*
X431248Y337862D01*
X431200Y337842D01*
X431149Y337831D01*
X431088Y337794D01*
X431022Y337766D01*
X430966Y337721D01*
X430938Y337704D01*
X430923Y337687D01*
X430891Y337661D01*
X427648Y334418D01*
X423252Y334418D01*
X420143Y337527D01*
X420143Y341923D01*
X422940Y344720D01*
X422993Y344794D01*
X423053Y344864D01*
X423065Y344894D01*
X423084Y344920D01*
X423111Y345007D01*
X423145Y345092D01*
X423149Y345133D01*
X423156Y345155D01*
X423155Y345187D01*
X423163Y345258D01*
X423163Y347987D01*
X423149Y348078D01*
X423141Y348168D01*
X423129Y348198D01*
X423124Y348230D01*
X423081Y348311D01*
X423045Y348395D01*
X423019Y348427D01*
X423008Y348448D01*
X422985Y348470D01*
X422940Y348526D01*
X421396Y350070D01*
X421322Y350123D01*
X421252Y350183D01*
X421222Y350195D01*
X421196Y350214D01*
X421109Y350241D01*
X421024Y350275D01*
X420983Y350279D01*
X420961Y350286D01*
X420929Y350285D01*
X420857Y350293D01*
X416902Y350293D01*
X416336Y350859D01*
X416278Y350901D01*
X416226Y350950D01*
X416179Y350972D01*
X416137Y351002D01*
X416068Y351024D01*
X416003Y351054D01*
X415951Y351059D01*
X415901Y351075D01*
X415830Y351073D01*
X415759Y351081D01*
X415708Y351070D01*
X415656Y351068D01*
X415588Y351044D01*
X415518Y351029D01*
X415473Y351002D01*
X415425Y350984D01*
X415369Y350939D01*
X415307Y350902D01*
X415273Y350863D01*
X415233Y350830D01*
X415194Y350770D01*
X415147Y350715D01*
X415128Y350667D01*
X415100Y350623D01*
X415082Y350554D01*
X415055Y350487D01*
X415047Y350416D01*
X415039Y350385D01*
X415041Y350362D01*
X415037Y350321D01*
X415037Y329383D01*
X415051Y329293D01*
X415059Y329202D01*
X415071Y329173D01*
X415076Y329141D01*
X415119Y329060D01*
X415155Y328976D01*
X415181Y328944D01*
X415192Y328923D01*
X415215Y328901D01*
X415260Y328845D01*
X418057Y326048D01*
X418057Y321652D01*
X414948Y318543D01*
X410552Y318543D01*
X407443Y321652D01*
X407443Y326048D01*
X410240Y328845D01*
X410293Y328919D01*
X410353Y328989D01*
X410365Y329019D01*
X410384Y329045D01*
X410411Y329132D01*
X410445Y329217D01*
X410449Y329258D01*
X410456Y329280D01*
X410455Y329312D01*
X410463Y329383D01*
X410463Y350321D01*
X410452Y350391D01*
X410450Y350463D01*
X410432Y350512D01*
X410424Y350563D01*
X410390Y350627D01*
X410365Y350694D01*
X410333Y350735D01*
X410308Y350781D01*
X410256Y350830D01*
X410212Y350886D01*
X410168Y350914D01*
X410130Y350950D01*
X410065Y350980D01*
X410005Y351019D01*
X409954Y351032D01*
X409907Y351054D01*
X409836Y351062D01*
X409766Y351079D01*
X409714Y351075D01*
X409663Y351081D01*
X409592Y351066D01*
X409521Y351060D01*
X409473Y351040D01*
X409422Y351029D01*
X409361Y350992D01*
X409295Y350964D01*
X409239Y350919D01*
X409211Y350902D01*
X409196Y350885D01*
X409164Y350859D01*
X408598Y350293D01*
X404202Y350293D01*
X401093Y353402D01*
X401093Y357357D01*
X401092Y357365D01*
X401092Y357366D01*
X401091Y357374D01*
X401079Y357448D01*
X401071Y357538D01*
X401059Y357568D01*
X401054Y357600D01*
X401011Y357681D01*
X400975Y357765D01*
X400949Y357797D01*
X400938Y357818D01*
X400938Y405137D01*
X400924Y405228D01*
X400916Y405318D01*
X400904Y405348D01*
X400899Y405380D01*
X400856Y405461D01*
X400820Y405545D01*
X400794Y405577D01*
X400783Y405598D01*
X400760Y405620D01*
X400715Y405676D01*
X374161Y432230D01*
X374129Y432253D01*
X374102Y432283D01*
X374029Y432325D01*
X373962Y432373D01*
X373923Y432385D01*
X373888Y432405D01*
X373806Y432421D01*
X373727Y432446D01*
X373686Y432444D01*
X373647Y432452D01*
X373564Y432441D01*
X373481Y432439D01*
X373443Y432425D01*
X373403Y432420D01*
X373328Y432383D01*
X373250Y432355D01*
X373218Y432330D01*
X373182Y432312D01*
X373123Y432253D01*
X373058Y432201D01*
X373036Y432167D01*
X373007Y432139D01*
X372970Y432064D01*
X372925Y431994D01*
X372915Y431955D01*
X372897Y431919D01*
X372885Y431836D01*
X372865Y431756D01*
X372868Y431715D01*
X372862Y431675D01*
X372884Y431513D01*
X372884Y431510D01*
X372884Y431509D01*
X373595Y428625D01*
X371897Y421738D01*
X367194Y416428D01*
X360561Y413913D01*
X353520Y414768D01*
X347682Y418798D01*
X344386Y425078D01*
X344386Y432172D01*
X347682Y438452D01*
X353520Y442482D01*
X360561Y443337D01*
X361261Y443071D01*
X361346Y443054D01*
X361428Y443029D01*
X361466Y443030D01*
X361502Y443022D01*
X361588Y443033D01*
X361674Y443035D01*
X361709Y443048D01*
X361747Y443053D01*
X361824Y443090D01*
X361905Y443120D01*
X361934Y443143D01*
X361968Y443160D01*
X362030Y443220D01*
X362097Y443273D01*
X362117Y443305D01*
X362144Y443331D01*
X362183Y443408D01*
X362230Y443480D01*
X362239Y443517D01*
X362256Y443550D01*
X362269Y443636D01*
X362290Y443719D01*
X362287Y443756D01*
X362293Y443794D01*
X362277Y443879D01*
X362271Y443964D01*
X362256Y443999D01*
X362249Y444036D01*
X362208Y444111D01*
X362174Y444190D01*
X362144Y444228D01*
X362131Y444252D01*
X362109Y444273D01*
X362070Y444321D01*
X354876Y451515D01*
X354802Y451568D01*
X354732Y451628D01*
X354702Y451640D01*
X354676Y451659D01*
X354589Y451686D01*
X354504Y451720D01*
X354463Y451724D01*
X354441Y451731D01*
X354409Y451730D01*
X354337Y451738D01*
X192728Y451738D01*
X170726Y473740D01*
X170652Y473793D01*
X170582Y473853D01*
X170552Y473865D01*
X170526Y473884D01*
X170439Y473911D01*
X170354Y473945D01*
X170313Y473949D01*
X170291Y473956D01*
X170259Y473955D01*
X170187Y473963D01*
X168951Y473963D01*
X168870Y473950D01*
X168788Y473946D01*
X168736Y473928D01*
X168708Y473924D01*
X168682Y473910D01*
X168629Y473892D01*
X128099Y454992D01*
X128084Y454983D01*
X128068Y454977D01*
X127983Y454913D01*
X127896Y454854D01*
X127885Y454840D01*
X127871Y454829D01*
X127811Y454742D01*
X127747Y454658D01*
X127742Y454641D01*
X127732Y454627D01*
X127703Y454524D01*
X127669Y454424D01*
X127669Y454407D01*
X127664Y454390D01*
X127669Y454284D01*
X127670Y454178D01*
X127675Y454162D01*
X127676Y454145D01*
X127715Y454045D01*
X127748Y453945D01*
X127759Y453932D01*
X127765Y453915D01*
X127833Y453834D01*
X127897Y453750D01*
X127912Y453740D01*
X127923Y453727D01*
X128013Y453671D01*
X128101Y453612D01*
X128118Y453607D01*
X128132Y453598D01*
X128236Y453574D01*
X128338Y453546D01*
X128355Y453547D01*
X128372Y453543D01*
X128540Y453551D01*
X129830Y453755D01*
X131710Y453755D01*
X133566Y453461D01*
X135353Y452880D01*
X137027Y452027D01*
X138548Y450923D01*
X139876Y449594D01*
X140881Y448212D01*
X130817Y443519D01*
X130800Y443508D01*
X130782Y443501D01*
X130699Y443439D01*
X130614Y443380D01*
X130602Y443364D01*
X130586Y443352D01*
X130528Y443267D01*
X130465Y443184D01*
X130459Y443165D01*
X130448Y443149D01*
X130420Y443049D01*
X130387Y442951D01*
X130387Y442931D01*
X130382Y442912D01*
X130387Y442808D01*
X130388Y442705D01*
X130394Y442686D01*
X130395Y442666D01*
X130449Y442507D01*
X130771Y441816D01*
X130769Y441815D01*
X130447Y442507D01*
X130436Y442523D01*
X130429Y442542D01*
X130367Y442624D01*
X130308Y442710D01*
X130293Y442722D01*
X130281Y442738D01*
X130195Y442796D01*
X130112Y442858D01*
X130093Y442864D01*
X130077Y442876D01*
X129978Y442903D01*
X129879Y442936D01*
X129859Y442936D01*
X129840Y442942D01*
X129737Y442936D01*
X129633Y442936D01*
X129614Y442929D01*
X129594Y442928D01*
X129435Y442875D01*
X119394Y438192D01*
X119125Y439021D01*
X118831Y440877D01*
X118831Y442756D01*
X119125Y444612D01*
X119706Y446399D01*
X120559Y448073D01*
X121664Y449594D01*
X122992Y450923D01*
X123085Y450990D01*
X123121Y451026D01*
X123162Y451054D01*
X123206Y451113D01*
X123258Y451165D01*
X123280Y451210D01*
X123311Y451251D01*
X123334Y451320D01*
X123366Y451386D01*
X123373Y451436D01*
X123389Y451484D01*
X123389Y451557D01*
X123398Y451629D01*
X123389Y451679D01*
X123388Y451730D01*
X123365Y451799D01*
X123351Y451871D01*
X123326Y451915D01*
X123310Y451963D01*
X123265Y452021D01*
X123229Y452084D01*
X123191Y452118D01*
X123161Y452159D01*
X123100Y452200D01*
X123046Y452248D01*
X122999Y452268D01*
X122957Y452297D01*
X122887Y452316D01*
X122820Y452345D01*
X122769Y452349D01*
X122720Y452362D01*
X122647Y452359D01*
X122574Y452364D01*
X122525Y452352D01*
X122475Y452349D01*
X122361Y452311D01*
X122336Y452305D01*
X122326Y452299D01*
X122316Y452296D01*
X105625Y444513D01*
X105599Y444495D01*
X105510Y444446D01*
X103130Y442780D01*
X103107Y442758D01*
X103028Y442694D01*
X75535Y415201D01*
X75482Y415127D01*
X75422Y415057D01*
X75410Y415027D01*
X75391Y415001D01*
X75364Y414914D01*
X75330Y414829D01*
X75326Y414788D01*
X75319Y414766D01*
X75320Y414734D01*
X75312Y414663D01*
X75312Y411933D01*
X75326Y411843D01*
X75334Y411752D01*
X75346Y411723D01*
X75351Y411691D01*
X75394Y411610D01*
X75430Y411526D01*
X75456Y411494D01*
X75467Y411473D01*
X75490Y411451D01*
X75535Y411395D01*
X78332Y408598D01*
X78332Y404202D01*
X75223Y401093D01*
X70827Y401093D01*
X67718Y404202D01*
X67718Y408598D01*
X70515Y411395D01*
X70568Y411469D01*
X70628Y411539D01*
X70640Y411569D01*
X70659Y411595D01*
X70686Y411682D01*
X70720Y411767D01*
X70724Y411808D01*
X70731Y411830D01*
X70730Y411862D01*
X70738Y411933D01*
X70738Y416872D01*
X72301Y418435D01*
X94034Y440168D01*
X94071Y440220D01*
X94116Y440265D01*
X94142Y440319D01*
X94177Y440367D01*
X94196Y440428D01*
X94224Y440486D01*
X94232Y440545D01*
X94250Y440603D01*
X94248Y440666D01*
X94256Y440730D01*
X94245Y440788D01*
X94243Y440848D01*
X94221Y440908D01*
X94209Y440971D01*
X94179Y441023D01*
X94159Y441079D01*
X94119Y441129D01*
X94087Y441185D01*
X94043Y441225D01*
X94005Y441271D01*
X93951Y441306D01*
X93904Y441348D01*
X93849Y441372D01*
X93798Y441404D01*
X93736Y441420D01*
X93678Y441445D01*
X93618Y441450D01*
X93560Y441465D01*
X93496Y441460D01*
X93432Y441465D01*
X93374Y441450D01*
X93315Y441445D01*
X93256Y441420D01*
X93194Y441405D01*
X93118Y441362D01*
X93088Y441349D01*
X93069Y441334D01*
X93048Y441322D01*
X88893Y438303D01*
X88871Y438281D01*
X88820Y438242D01*
X66996Y417748D01*
X66977Y417724D01*
X66930Y417679D01*
X60416Y409804D01*
X60411Y409796D01*
X60404Y409789D01*
X60349Y409689D01*
X60292Y409592D01*
X60290Y409582D01*
X60285Y409573D01*
X60265Y409461D01*
X60242Y409351D01*
X60243Y409341D01*
X60241Y409331D01*
X60258Y409219D01*
X60271Y409107D01*
X60276Y409098D01*
X60277Y409088D01*
X60328Y408987D01*
X60377Y408885D01*
X60384Y408878D01*
X60389Y408869D01*
X60470Y408789D01*
X60548Y408708D01*
X60557Y408703D01*
X60564Y408696D01*
X60711Y408616D01*
X62742Y407774D01*
X64659Y405857D01*
X65697Y403353D01*
X65697Y400528D01*
X65712Y400437D01*
X65719Y400347D01*
X65731Y400317D01*
X65737Y400285D01*
X65779Y400204D01*
X65815Y400120D01*
X65841Y400088D01*
X65852Y400067D01*
X65875Y400045D01*
X65920Y399989D01*
X74275Y391634D01*
X74349Y391581D01*
X74419Y391521D01*
X74449Y391509D01*
X74475Y391490D01*
X74562Y391463D01*
X74647Y391429D01*
X74688Y391425D01*
X74710Y391418D01*
X74742Y391419D01*
X74814Y391411D01*
X81847Y391411D01*
X81917Y391422D01*
X81989Y391424D01*
X82038Y391442D01*
X82089Y391451D01*
X82153Y391484D01*
X82220Y391509D01*
X82261Y391541D01*
X82307Y391566D01*
X82356Y391618D01*
X82412Y391662D01*
X82440Y391706D01*
X82476Y391744D01*
X82506Y391809D01*
X82545Y391869D01*
X82558Y391920D01*
X82580Y391967D01*
X82588Y392038D01*
X82605Y392108D01*
X82601Y392160D01*
X82607Y392212D01*
X82592Y392282D01*
X82586Y392353D01*
X82566Y392401D01*
X82555Y392452D01*
X82518Y392513D01*
X82490Y392579D01*
X82445Y392635D01*
X82428Y392663D01*
X82411Y392678D01*
X82385Y392710D01*
X80418Y394677D01*
X80418Y399073D01*
X83527Y402182D01*
X85686Y402182D01*
X85777Y402196D01*
X85867Y402204D01*
X85897Y402216D01*
X85929Y402221D01*
X86010Y402264D01*
X86094Y402300D01*
X86126Y402326D01*
X86147Y402337D01*
X86169Y402360D01*
X86225Y402405D01*
X100127Y416307D01*
X103687Y416307D01*
X103777Y416321D01*
X103868Y416329D01*
X103897Y416341D01*
X103929Y416346D01*
X104010Y416389D01*
X104094Y416425D01*
X104126Y416451D01*
X104147Y416462D01*
X104169Y416485D01*
X104225Y416530D01*
X105752Y418057D01*
X110148Y418057D01*
X113257Y414948D01*
X113257Y410428D01*
X113268Y410358D01*
X113270Y410286D01*
X113288Y410237D01*
X113296Y410186D01*
X113330Y410122D01*
X113355Y410055D01*
X113387Y410014D01*
X113412Y409968D01*
X113464Y409919D01*
X113508Y409863D01*
X113552Y409835D01*
X113590Y409799D01*
X113655Y409769D01*
X113715Y409730D01*
X113766Y409717D01*
X113813Y409695D01*
X113884Y409687D01*
X113954Y409670D01*
X114006Y409674D01*
X114057Y409668D01*
X114128Y409683D01*
X114199Y409689D01*
X114247Y409709D01*
X114298Y409720D01*
X114359Y409757D01*
X114425Y409785D01*
X114481Y409830D01*
X114509Y409847D01*
X114524Y409864D01*
X114556Y409890D01*
X127665Y422999D01*
X129228Y424562D01*
X312097Y424562D01*
X335464Y401195D01*
X335480Y401184D01*
X335492Y401168D01*
X335580Y401112D01*
X335664Y401052D01*
X335682Y401046D01*
X335699Y401035D01*
X335800Y401010D01*
X335899Y400979D01*
X335919Y400980D01*
X335938Y400975D01*
X336041Y400983D01*
X336144Y400986D01*
X336163Y400993D01*
X336183Y400994D01*
X336278Y401034D01*
X336375Y401070D01*
X336391Y401083D01*
X336409Y401090D01*
X336540Y401195D01*
X337527Y402182D01*
X341923Y402182D01*
X345032Y399073D01*
X345032Y394677D01*
X341923Y391568D01*
X337527Y391568D01*
X334418Y394677D01*
X334418Y395457D01*
X334404Y395548D01*
X334396Y395638D01*
X334384Y395668D01*
X334379Y395700D01*
X334336Y395781D01*
X334300Y395865D01*
X334274Y395897D01*
X334263Y395918D01*
X334240Y395940D01*
X334195Y395996D01*
X310426Y419765D01*
X310352Y419818D01*
X310282Y419878D01*
X310252Y419890D01*
X310226Y419909D01*
X310139Y419936D01*
X310054Y419970D01*
X310013Y419974D01*
X309991Y419981D01*
X309959Y419980D01*
X309887Y419988D01*
X131438Y419988D01*
X131347Y419974D01*
X131257Y419966D01*
X131227Y419954D01*
X131195Y419949D01*
X131114Y419906D01*
X131030Y419870D01*
X130998Y419844D01*
X130977Y419833D01*
X130955Y419810D01*
X130899Y419765D01*
X113480Y402346D01*
X113427Y402272D01*
X113367Y402202D01*
X113355Y402172D01*
X113336Y402146D01*
X113309Y402059D01*
X113275Y401974D01*
X113271Y401933D01*
X113264Y401911D01*
X113265Y401879D01*
X113257Y401807D01*
X113257Y399247D01*
X113260Y399228D01*
X113258Y399208D01*
X113280Y399107D01*
X113296Y399005D01*
X113306Y398987D01*
X113310Y398968D01*
X113363Y398879D01*
X113412Y398787D01*
X113426Y398774D01*
X113436Y398756D01*
X113515Y398689D01*
X113590Y398618D01*
X113608Y398610D01*
X113623Y398597D01*
X113719Y398558D01*
X113813Y398514D01*
X113833Y398512D01*
X113851Y398505D01*
X114018Y398486D01*
X114861Y398486D01*
X114881Y398489D01*
X114901Y398487D01*
X115002Y398509D01*
X115104Y398526D01*
X115122Y398535D01*
X115141Y398539D01*
X115230Y398593D01*
X115322Y398641D01*
X115335Y398655D01*
X115352Y398666D01*
X115420Y398744D01*
X115491Y398819D01*
X115499Y398837D01*
X115512Y398853D01*
X115551Y398949D01*
X115595Y399042D01*
X115597Y399062D01*
X115604Y399081D01*
X115623Y399247D01*
X115623Y401564D01*
X122344Y408285D01*
X124850Y408285D01*
X130315Y402820D01*
X130389Y402767D01*
X130458Y402708D01*
X130488Y402696D01*
X130515Y402677D01*
X130602Y402650D01*
X130686Y402616D01*
X130727Y402611D01*
X130750Y402604D01*
X130782Y402605D01*
X130853Y402597D01*
X194362Y402597D01*
X204079Y392880D01*
X204153Y392827D01*
X204223Y392767D01*
X204253Y392755D01*
X204279Y392736D01*
X204366Y392709D01*
X204451Y392675D01*
X204492Y392671D01*
X204514Y392664D01*
X204546Y392665D01*
X204618Y392657D01*
X208573Y392657D01*
X211682Y389548D01*
X211682Y385152D01*
X208573Y382043D01*
X204177Y382043D01*
X201068Y385152D01*
X201068Y389107D01*
X201054Y389198D01*
X201046Y389288D01*
X201034Y389318D01*
X201029Y389350D01*
X200986Y389431D01*
X200950Y389515D01*
X200924Y389547D01*
X200913Y389568D01*
X200890Y389590D01*
X200845Y389646D01*
X192690Y397801D01*
X192616Y397854D01*
X192547Y397914D01*
X192517Y397926D01*
X192490Y397944D01*
X192403Y397971D01*
X192319Y398005D01*
X192278Y398010D01*
X192255Y398017D01*
X192223Y398016D01*
X192152Y398024D01*
X130853Y398024D01*
X130763Y398009D01*
X130672Y398002D01*
X130642Y397989D01*
X130610Y397984D01*
X130530Y397941D01*
X130446Y397906D01*
X130414Y397880D01*
X130393Y397869D01*
X130371Y397846D01*
X130315Y397801D01*
X124850Y392336D01*
X122246Y392336D01*
X122226Y392333D01*
X122206Y392335D01*
X122105Y392313D01*
X122003Y392296D01*
X121985Y392287D01*
X121966Y392283D01*
X121877Y392230D01*
X121786Y392181D01*
X121772Y392167D01*
X121755Y392157D01*
X121687Y392078D01*
X121616Y392003D01*
X121608Y391985D01*
X121595Y391970D01*
X121556Y391874D01*
X121513Y391780D01*
X121510Y391760D01*
X121503Y391742D01*
X121484Y391575D01*
X121484Y389259D01*
X114763Y382537D01*
X112257Y382537D01*
X110720Y384074D01*
X110646Y384127D01*
X110577Y384187D01*
X110546Y384199D01*
X110520Y384218D01*
X110433Y384245D01*
X110348Y384279D01*
X110308Y384283D01*
X110285Y384290D01*
X110253Y384289D01*
X110182Y384297D01*
X108633Y384297D01*
X108563Y384286D01*
X108491Y384284D01*
X108442Y384266D01*
X108391Y384258D01*
X108327Y384224D01*
X108260Y384199D01*
X108219Y384167D01*
X108173Y384143D01*
X108124Y384091D01*
X108068Y384046D01*
X108040Y384002D01*
X108004Y383964D01*
X107974Y383899D01*
X107935Y383839D01*
X107922Y383788D01*
X107900Y383741D01*
X107892Y383670D01*
X107875Y383600D01*
X107879Y383548D01*
X107873Y383497D01*
X107888Y383426D01*
X107894Y383355D01*
X107914Y383307D01*
X107925Y383256D01*
X107962Y383195D01*
X107990Y383129D01*
X108035Y383073D01*
X108052Y383045D01*
X108069Y383030D01*
X108095Y382998D01*
X111070Y380023D01*
X111070Y375627D01*
X107961Y372518D01*
X106193Y372518D01*
X106102Y372504D01*
X106012Y372496D01*
X105982Y372484D01*
X105950Y372479D01*
X105869Y372436D01*
X105785Y372400D01*
X105753Y372374D01*
X105732Y372363D01*
X105710Y372340D01*
X105654Y372295D01*
X94585Y361226D01*
X94532Y361152D01*
X94472Y361082D01*
X94460Y361052D01*
X94441Y361026D01*
X94414Y360939D01*
X94380Y360854D01*
X94376Y360813D01*
X94369Y360791D01*
X94370Y360759D01*
X94362Y360687D01*
X94362Y348303D01*
X88235Y342176D01*
X88182Y342102D01*
X88122Y342032D01*
X88110Y342002D01*
X88091Y341976D01*
X88064Y341889D01*
X88030Y341804D01*
X88026Y341763D01*
X88019Y341741D01*
X88020Y341709D01*
X88012Y341637D01*
X88012Y312413D01*
X88015Y312393D01*
X88013Y312374D01*
X88028Y312304D01*
X88034Y312232D01*
X88046Y312202D01*
X88051Y312170D01*
X88061Y312152D01*
X88065Y312133D01*
X88101Y312073D01*
X88130Y312005D01*
X88156Y311973D01*
X88167Y311952D01*
X88182Y311938D01*
X88191Y311922D01*
X88208Y311908D01*
X88235Y311874D01*
X105499Y294610D01*
X105573Y294557D01*
X105643Y294497D01*
X105673Y294485D01*
X105699Y294466D01*
X105786Y294439D01*
X105871Y294405D01*
X105912Y294401D01*
X105934Y294394D01*
X105966Y294395D01*
X106038Y294387D01*
X130992Y294387D01*
X131082Y294401D01*
X131173Y294409D01*
X131202Y294421D01*
X131234Y294426D01*
X131315Y294469D01*
X131399Y294505D01*
X131431Y294531D01*
X131452Y294542D01*
X131474Y294565D01*
X131530Y294610D01*
X134327Y297407D01*
X138723Y297407D01*
X141832Y294298D01*
X141832Y289902D01*
X138723Y286793D01*
X134327Y286793D01*
X131530Y289590D01*
X131456Y289643D01*
X131386Y289703D01*
X131356Y289715D01*
X131330Y289734D01*
X131243Y289761D01*
X131158Y289795D01*
X131117Y289799D01*
X131095Y289806D01*
X131063Y289805D01*
X130992Y289813D01*
X103828Y289813D01*
X91216Y302426D01*
X91157Y302467D01*
X91105Y302517D01*
X91058Y302539D01*
X91016Y302569D01*
X90947Y302590D01*
X90882Y302620D01*
X90830Y302626D01*
X90781Y302641D01*
X90709Y302640D01*
X90638Y302648D01*
X90587Y302636D01*
X90535Y302635D01*
X90467Y302610D01*
X90397Y302595D01*
X90353Y302569D01*
X90304Y302551D01*
X90248Y302506D01*
X90186Y302469D01*
X90152Y302430D01*
X90112Y302397D01*
X90073Y302337D01*
X90026Y302282D01*
X90007Y302234D01*
X89979Y302190D01*
X89961Y302121D01*
X89934Y302054D01*
X89927Y301983D01*
X89919Y301952D01*
X89921Y301928D01*
X89916Y301887D01*
X89916Y301486D01*
X86807Y298378D01*
X86315Y298378D01*
X86245Y298366D01*
X86173Y298364D01*
X86124Y298346D01*
X86073Y298338D01*
X86009Y298304D01*
X85942Y298280D01*
X85901Y298247D01*
X85855Y298223D01*
X85806Y298171D01*
X85750Y298126D01*
X85722Y298082D01*
X85686Y298044D01*
X85656Y297979D01*
X85617Y297919D01*
X85604Y297868D01*
X85582Y297821D01*
X85574Y297750D01*
X85557Y297680D01*
X85561Y297629D01*
X85555Y297577D01*
X85570Y297507D01*
X85576Y297435D01*
X85596Y297387D01*
X85607Y297336D01*
X85644Y297275D01*
X85672Y297209D01*
X85717Y297153D01*
X85733Y297125D01*
X85751Y297110D01*
X85777Y297078D01*
X96500Y286355D01*
X96574Y286302D01*
X96644Y286242D01*
X96674Y286230D01*
X96700Y286211D01*
X96787Y286184D01*
X96872Y286150D01*
X96913Y286146D01*
X96935Y286139D01*
X96967Y286140D01*
X97039Y286132D01*
X128473Y286132D01*
X131425Y283180D01*
X131499Y283127D01*
X131569Y283067D01*
X131599Y283055D01*
X131625Y283036D01*
X131712Y283009D01*
X131797Y282975D01*
X131838Y282971D01*
X131860Y282964D01*
X131892Y282965D01*
X131964Y282957D01*
X153873Y282957D01*
X167775Y269055D01*
X167849Y269002D01*
X167919Y268942D01*
X167949Y268930D01*
X167975Y268911D01*
X168062Y268884D01*
X168147Y268850D01*
X168188Y268846D01*
X168210Y268839D01*
X168242Y268840D01*
X168314Y268832D01*
X170473Y268832D01*
X171166Y268139D01*
X171224Y268097D01*
X171276Y268048D01*
X171323Y268026D01*
X171365Y267996D01*
X171434Y267974D01*
X171499Y267944D01*
X171551Y267939D01*
X171601Y267923D01*
X171672Y267925D01*
X171743Y267917D01*
X171794Y267928D01*
X171846Y267930D01*
X171914Y267954D01*
X171984Y267969D01*
X172029Y267996D01*
X172077Y268014D01*
X172133Y268059D01*
X172195Y268096D01*
X172229Y268135D01*
X172269Y268168D01*
X172308Y268228D01*
X172355Y268283D01*
X172374Y268331D01*
X172402Y268375D01*
X172420Y268444D01*
X172447Y268511D01*
X172455Y268582D01*
X172463Y268613D01*
X172461Y268636D01*
X172465Y268677D01*
X172465Y289575D01*
X172462Y289597D01*
X172464Y289615D01*
X172449Y289682D01*
X172443Y289756D01*
X172431Y289786D01*
X172426Y289818D01*
X172416Y289837D01*
X172411Y289855D01*
X172376Y289915D01*
X172347Y289982D01*
X172321Y290014D01*
X172310Y290035D01*
X172296Y290049D01*
X172285Y290066D01*
X172268Y290081D01*
X172242Y290113D01*
X166940Y295415D01*
X166866Y295468D01*
X166797Y295528D01*
X166767Y295540D01*
X166740Y295559D01*
X166654Y295586D01*
X166569Y295620D01*
X166528Y295624D01*
X166505Y295631D01*
X166473Y295630D01*
X166402Y295638D01*
X163126Y295638D01*
X163036Y295624D01*
X162945Y295616D01*
X162915Y295604D01*
X162883Y295599D01*
X162802Y295556D01*
X162719Y295520D01*
X162686Y295494D01*
X162666Y295483D01*
X162644Y295460D01*
X162588Y295415D01*
X161795Y294622D01*
X143767Y294622D01*
X142874Y295515D01*
X142874Y300335D01*
X143176Y300637D01*
X143188Y300653D01*
X143204Y300665D01*
X143260Y300752D01*
X143320Y300836D01*
X143326Y300855D01*
X143337Y300872D01*
X143362Y300973D01*
X143392Y301071D01*
X143392Y301091D01*
X143397Y301111D01*
X143389Y301214D01*
X143386Y301317D01*
X143379Y301336D01*
X143378Y301356D01*
X143337Y301451D01*
X143302Y301548D01*
X143289Y301564D01*
X143281Y301582D01*
X143176Y301713D01*
X142874Y302015D01*
X142874Y306835D01*
X143176Y307137D01*
X143188Y307153D01*
X143204Y307165D01*
X143260Y307252D01*
X143320Y307336D01*
X143326Y307355D01*
X143337Y307372D01*
X143362Y307473D01*
X143392Y307571D01*
X143392Y307591D01*
X143397Y307611D01*
X143389Y307714D01*
X143386Y307817D01*
X143379Y307836D01*
X143378Y307856D01*
X143337Y307951D01*
X143302Y308048D01*
X143289Y308064D01*
X143281Y308082D01*
X143176Y308213D01*
X142974Y308415D01*
X142900Y308468D01*
X142831Y308528D01*
X142801Y308540D01*
X142775Y308559D01*
X142688Y308586D01*
X142603Y308620D01*
X142562Y308624D01*
X142540Y308631D01*
X142507Y308630D01*
X142436Y308638D01*
X132628Y308638D01*
X124713Y316553D01*
X124713Y318317D01*
X124699Y318407D01*
X124691Y318498D01*
X124679Y318527D01*
X124674Y318559D01*
X124631Y318640D01*
X124595Y318724D01*
X124569Y318756D01*
X124558Y318777D01*
X124535Y318799D01*
X124490Y318855D01*
X121693Y321652D01*
X121693Y326048D01*
X124802Y329157D01*
X126753Y329157D01*
X126823Y329168D01*
X126895Y329170D01*
X126944Y329188D01*
X126995Y329196D01*
X127059Y329230D01*
X127126Y329255D01*
X127167Y329287D01*
X127213Y329312D01*
X127262Y329363D01*
X127318Y329408D01*
X127346Y329452D01*
X127382Y329490D01*
X127412Y329555D01*
X127451Y329615D01*
X127464Y329666D01*
X127486Y329713D01*
X127494Y329784D01*
X127511Y329854D01*
X127507Y329906D01*
X127513Y329957D01*
X127498Y330028D01*
X127492Y330099D01*
X127472Y330147D01*
X127461Y330198D01*
X127424Y330259D01*
X127396Y330325D01*
X127351Y330381D01*
X127334Y330409D01*
X127331Y330412D01*
X127331Y330413D01*
X127315Y330426D01*
X127291Y330456D01*
X126657Y331090D01*
X126583Y331144D01*
X126513Y331203D01*
X126483Y331215D01*
X126457Y331234D01*
X126370Y331261D01*
X126285Y331295D01*
X126244Y331299D01*
X126222Y331306D01*
X126190Y331305D01*
X126118Y331313D01*
X106263Y331313D01*
X106172Y331299D01*
X106082Y331291D01*
X106052Y331279D01*
X106020Y331274D01*
X105939Y331231D01*
X105855Y331195D01*
X105823Y331169D01*
X105802Y331158D01*
X105780Y331135D01*
X105724Y331090D01*
X100780Y326146D01*
X100727Y326072D01*
X100667Y326002D01*
X100655Y325972D01*
X100636Y325946D01*
X100609Y325859D01*
X100575Y325774D01*
X100571Y325733D01*
X100564Y325711D01*
X100565Y325679D01*
X100557Y325607D01*
X100557Y321652D01*
X97448Y318543D01*
X93052Y318543D01*
X89943Y321652D01*
X89943Y326048D01*
X93052Y329157D01*
X97007Y329157D01*
X97098Y329171D01*
X97188Y329179D01*
X97218Y329191D01*
X97250Y329196D01*
X97331Y329239D01*
X97415Y329275D01*
X97447Y329301D01*
X97468Y329312D01*
X97471Y329315D01*
X97491Y329336D01*
X97546Y329380D01*
X100869Y332703D01*
X100911Y332761D01*
X100961Y332813D01*
X100982Y332861D01*
X101013Y332903D01*
X101034Y332971D01*
X101064Y333037D01*
X101070Y333088D01*
X101085Y333138D01*
X101083Y333210D01*
X101091Y333281D01*
X101080Y333332D01*
X101079Y333384D01*
X101054Y333451D01*
X101039Y333521D01*
X101012Y333566D01*
X100994Y333615D01*
X100950Y333671D01*
X100913Y333732D01*
X100873Y333766D01*
X100841Y333807D01*
X100780Y333846D01*
X100726Y333892D01*
X100678Y333912D01*
X100634Y333940D01*
X100564Y333957D01*
X100498Y333984D01*
X100426Y333992D01*
X100395Y334000D01*
X100372Y333998D01*
X100331Y334003D01*
X99839Y334003D01*
X96730Y337111D01*
X96730Y341508D01*
X99527Y344305D01*
X99580Y344379D01*
X99640Y344448D01*
X99652Y344478D01*
X99671Y344504D01*
X99698Y344591D01*
X99732Y344676D01*
X99736Y344717D01*
X99743Y344739D01*
X99742Y344772D01*
X99750Y344843D01*
X99750Y353809D01*
X113353Y367412D01*
X128071Y367412D01*
X128141Y367423D01*
X128213Y367425D01*
X128262Y367443D01*
X128313Y367451D01*
X128377Y367485D01*
X128444Y367510D01*
X128485Y367542D01*
X128531Y367567D01*
X128580Y367619D01*
X128636Y367663D01*
X128664Y367707D01*
X128700Y367745D01*
X128730Y367810D01*
X128769Y367870D01*
X128782Y367921D01*
X128804Y367968D01*
X128812Y368039D01*
X128829Y368109D01*
X128825Y368161D01*
X128831Y368212D01*
X128816Y368283D01*
X128810Y368354D01*
X128790Y368402D01*
X128779Y368453D01*
X128742Y368514D01*
X128714Y368580D01*
X128669Y368636D01*
X128652Y368664D01*
X128635Y368679D01*
X128609Y368711D01*
X128043Y369277D01*
X128043Y369373D01*
X128040Y369393D01*
X128042Y369413D01*
X128020Y369514D01*
X128004Y369616D01*
X127994Y369634D01*
X127990Y369653D01*
X127937Y369742D01*
X127888Y369833D01*
X127874Y369847D01*
X127864Y369864D01*
X127785Y369932D01*
X127710Y370003D01*
X127692Y370011D01*
X127677Y370024D01*
X127581Y370063D01*
X127487Y370106D01*
X127467Y370109D01*
X127449Y370116D01*
X127282Y370135D01*
X124660Y370135D01*
X117938Y376856D01*
X117938Y379362D01*
X124660Y386084D01*
X127264Y386084D01*
X127284Y386087D01*
X127304Y386085D01*
X127405Y386107D01*
X127507Y386123D01*
X127524Y386133D01*
X127544Y386137D01*
X127633Y386190D01*
X127724Y386238D01*
X127738Y386253D01*
X127755Y386263D01*
X127822Y386342D01*
X127894Y386417D01*
X127902Y386435D01*
X127915Y386450D01*
X127954Y386546D01*
X127997Y386640D01*
X127999Y386660D01*
X128007Y386678D01*
X128025Y386845D01*
X128025Y389161D01*
X134747Y395882D01*
X137253Y395882D01*
X142717Y390418D01*
X142791Y390365D01*
X142861Y390305D01*
X142891Y390293D01*
X142917Y390274D01*
X143004Y390247D01*
X143089Y390213D01*
X143130Y390209D01*
X143152Y390202D01*
X143184Y390203D01*
X143256Y390195D01*
X159139Y390195D01*
X165979Y383355D01*
X166053Y383302D01*
X166123Y383242D01*
X166153Y383230D01*
X166179Y383211D01*
X166266Y383184D01*
X166351Y383150D01*
X166392Y383146D01*
X166414Y383139D01*
X166446Y383140D01*
X166518Y383132D01*
X170473Y383132D01*
X173582Y380023D01*
X173582Y375627D01*
X170473Y372518D01*
X166077Y372518D01*
X162968Y375627D01*
X162968Y379582D01*
X162954Y379673D01*
X162946Y379763D01*
X162934Y379793D01*
X162929Y379825D01*
X162886Y379906D01*
X162850Y379990D01*
X162824Y380022D01*
X162813Y380043D01*
X162790Y380065D01*
X162745Y380121D01*
X157468Y385398D01*
X157394Y385451D01*
X157324Y385511D01*
X157294Y385523D01*
X157268Y385542D01*
X157181Y385569D01*
X157096Y385603D01*
X157055Y385607D01*
X157033Y385614D01*
X157001Y385613D01*
X156929Y385621D01*
X143256Y385621D01*
X143166Y385607D01*
X143075Y385599D01*
X143045Y385587D01*
X143013Y385582D01*
X142932Y385539D01*
X142848Y385503D01*
X142816Y385477D01*
X142796Y385466D01*
X142773Y385443D01*
X142717Y385398D01*
X137253Y379934D01*
X134648Y379934D01*
X134629Y379930D01*
X134609Y379933D01*
X134508Y379911D01*
X134406Y379894D01*
X134388Y379885D01*
X134369Y379880D01*
X134280Y379827D01*
X134188Y379779D01*
X134175Y379764D01*
X134157Y379754D01*
X134090Y379675D01*
X134019Y379600D01*
X134011Y379582D01*
X133998Y379567D01*
X133959Y379471D01*
X133915Y379377D01*
X133913Y379358D01*
X133906Y379339D01*
X133887Y379172D01*
X133887Y377543D01*
X133890Y377523D01*
X133888Y377504D01*
X133910Y377402D01*
X133927Y377300D01*
X133936Y377283D01*
X133940Y377263D01*
X133994Y377174D01*
X134042Y377083D01*
X134056Y377069D01*
X134067Y377052D01*
X134145Y376985D01*
X134220Y376913D01*
X134238Y376905D01*
X134254Y376892D01*
X134350Y376853D01*
X134443Y376810D01*
X134463Y376808D01*
X134482Y376800D01*
X134648Y376782D01*
X135548Y376782D01*
X138657Y373673D01*
X138657Y369277D01*
X138091Y368711D01*
X138049Y368653D01*
X138000Y368601D01*
X137978Y368554D01*
X137948Y368512D01*
X137926Y368443D01*
X137896Y368378D01*
X137891Y368326D01*
X137875Y368276D01*
X137877Y368205D01*
X137869Y368134D01*
X137880Y368083D01*
X137882Y368031D01*
X137906Y367963D01*
X137921Y367893D01*
X137948Y367848D01*
X137966Y367800D01*
X138011Y367744D01*
X138048Y367682D01*
X138087Y367648D01*
X138120Y367608D01*
X138180Y367569D01*
X138235Y367522D01*
X138283Y367503D01*
X138327Y367475D01*
X138396Y367457D01*
X138463Y367430D01*
X138534Y367422D01*
X138565Y367414D01*
X138588Y367416D01*
X138629Y367412D01*
X150172Y367412D01*
X170562Y347022D01*
X170562Y338778D01*
X167985Y336201D01*
X167849Y336065D01*
X167807Y336007D01*
X167758Y335955D01*
X167736Y335908D01*
X167706Y335866D01*
X167685Y335797D01*
X167654Y335732D01*
X167649Y335680D01*
X167633Y335631D01*
X167635Y335559D01*
X167627Y335488D01*
X167638Y335437D01*
X167640Y335385D01*
X167664Y335317D01*
X167679Y335247D01*
X167706Y335202D01*
X167724Y335154D01*
X167769Y335098D01*
X167806Y335036D01*
X167845Y335002D01*
X167878Y334962D01*
X167938Y334923D01*
X167993Y334876D01*
X168041Y334857D01*
X168085Y334829D01*
X168154Y334811D01*
X168221Y334784D01*
X168292Y334776D01*
X168323Y334768D01*
X168346Y334770D01*
X168387Y334766D01*
X179452Y334766D01*
X179452Y322198D01*
X166134Y322198D01*
X166134Y332559D01*
X166307Y333206D01*
X166475Y333496D01*
X166509Y333585D01*
X166549Y333672D01*
X166552Y333700D01*
X166562Y333726D01*
X166566Y333822D01*
X166576Y333916D01*
X166570Y333944D01*
X166571Y333972D01*
X166544Y334064D01*
X166524Y334157D01*
X166510Y334181D01*
X166502Y334208D01*
X166447Y334286D01*
X166398Y334368D01*
X166376Y334386D01*
X166360Y334409D01*
X166283Y334466D01*
X166211Y334528D01*
X166185Y334538D01*
X166162Y334555D01*
X166071Y334584D01*
X165983Y334620D01*
X165947Y334624D01*
X165928Y334630D01*
X165895Y334629D01*
X165816Y334638D01*
X163126Y334638D01*
X163036Y334624D01*
X162945Y334616D01*
X162915Y334604D01*
X162883Y334598D01*
X162803Y334556D01*
X162719Y334520D01*
X162686Y334494D01*
X162666Y334483D01*
X162644Y334460D01*
X162588Y334415D01*
X162386Y334213D01*
X162374Y334197D01*
X162358Y334185D01*
X162303Y334098D01*
X162242Y334014D01*
X162236Y333994D01*
X162225Y333978D01*
X162200Y333878D01*
X162170Y333779D01*
X162170Y333758D01*
X162165Y333739D01*
X162173Y333636D01*
X162176Y333533D01*
X162183Y333514D01*
X162184Y333494D01*
X162225Y333399D01*
X162260Y333302D01*
X162273Y333286D01*
X162281Y333268D01*
X162386Y333137D01*
X162688Y332835D01*
X162688Y328087D01*
X162702Y327997D01*
X162710Y327906D01*
X162722Y327876D01*
X162727Y327844D01*
X162770Y327763D01*
X162806Y327679D01*
X162832Y327647D01*
X162843Y327627D01*
X162866Y327604D01*
X162911Y327548D01*
X163196Y327263D01*
X163531Y326684D01*
X163704Y326037D01*
X163704Y324813D01*
X152908Y324813D01*
X152889Y324810D01*
X152869Y324812D01*
X152799Y324797D01*
X152654Y324813D01*
X141858Y324813D01*
X141858Y326037D01*
X142031Y326684D01*
X142212Y326996D01*
X142246Y327086D01*
X142286Y327172D01*
X142289Y327200D01*
X142299Y327226D01*
X142302Y327322D01*
X142313Y327416D01*
X142307Y327444D01*
X142308Y327472D01*
X142281Y327564D01*
X142261Y327657D01*
X142246Y327681D01*
X142238Y327708D01*
X142183Y327786D01*
X142135Y327868D01*
X142113Y327886D01*
X142097Y327909D01*
X142020Y327966D01*
X141948Y328028D01*
X141921Y328038D01*
X141899Y328055D01*
X141808Y328084D01*
X141719Y328120D01*
X141684Y328124D01*
X141664Y328130D01*
X141632Y328130D01*
X141553Y328138D01*
X132054Y328138D01*
X131984Y328127D01*
X131912Y328125D01*
X131863Y328107D01*
X131812Y328099D01*
X131748Y328065D01*
X131681Y328040D01*
X131640Y328008D01*
X131594Y327983D01*
X131545Y327931D01*
X131489Y327887D01*
X131461Y327843D01*
X131425Y327805D01*
X131395Y327740D01*
X131356Y327680D01*
X131343Y327629D01*
X131321Y327582D01*
X131313Y327511D01*
X131296Y327441D01*
X131300Y327389D01*
X131294Y327338D01*
X131309Y327267D01*
X131315Y327196D01*
X131335Y327148D01*
X131346Y327097D01*
X131383Y327036D01*
X131411Y326970D01*
X131456Y326914D01*
X131473Y326886D01*
X131490Y326871D01*
X131516Y326839D01*
X132307Y326048D01*
X132307Y322895D01*
X132318Y322824D01*
X132320Y322752D01*
X132338Y322703D01*
X132346Y322652D01*
X132380Y322589D01*
X132405Y322521D01*
X132437Y322481D01*
X132462Y322435D01*
X132513Y322385D01*
X132558Y322329D01*
X132602Y322301D01*
X132640Y322265D01*
X132705Y322235D01*
X132765Y322196D01*
X132816Y322184D01*
X132863Y322162D01*
X132934Y322154D01*
X133004Y322136D01*
X133056Y322140D01*
X133107Y322135D01*
X133178Y322150D01*
X133249Y322155D01*
X133297Y322176D01*
X133348Y322187D01*
X133409Y322224D01*
X133475Y322252D01*
X133531Y322297D01*
X133559Y322313D01*
X133574Y322331D01*
X133606Y322357D01*
X133720Y322470D01*
X138116Y322470D01*
X139382Y321205D01*
X139456Y321152D01*
X139525Y321092D01*
X139555Y321080D01*
X139581Y321061D01*
X139668Y321034D01*
X139753Y321000D01*
X139794Y320996D01*
X139816Y320989D01*
X139849Y320990D01*
X139920Y320982D01*
X141097Y320982D01*
X141117Y320985D01*
X141136Y320983D01*
X141238Y321005D01*
X141340Y321021D01*
X141357Y321031D01*
X141377Y321035D01*
X141466Y321088D01*
X141557Y321137D01*
X141571Y321151D01*
X141588Y321161D01*
X141655Y321240D01*
X141727Y321315D01*
X141735Y321333D01*
X141748Y321348D01*
X141787Y321444D01*
X141830Y321538D01*
X141832Y321558D01*
X141840Y321576D01*
X141858Y321743D01*
X141858Y323037D01*
X152654Y323037D01*
X152673Y323040D01*
X152693Y323038D01*
X152763Y323053D01*
X152908Y323037D01*
X163704Y323037D01*
X163704Y321812D01*
X163531Y321166D01*
X163196Y320587D01*
X162911Y320302D01*
X162858Y320228D01*
X162798Y320158D01*
X162786Y320128D01*
X162767Y320102D01*
X162740Y320015D01*
X162706Y319930D01*
X162702Y319889D01*
X162695Y319867D01*
X162696Y319835D01*
X162688Y319763D01*
X162688Y315015D01*
X162386Y314713D01*
X162374Y314697D01*
X162358Y314685D01*
X162302Y314598D01*
X162242Y314514D01*
X162236Y314495D01*
X162225Y314478D01*
X162200Y314377D01*
X162170Y314278D01*
X162170Y314258D01*
X162165Y314239D01*
X162173Y314136D01*
X162176Y314033D01*
X162183Y314014D01*
X162184Y313994D01*
X162225Y313899D01*
X162260Y313802D01*
X162273Y313786D01*
X162281Y313768D01*
X162386Y313637D01*
X162688Y313335D01*
X162688Y308515D01*
X162386Y308213D01*
X162374Y308197D01*
X162358Y308185D01*
X162302Y308097D01*
X162242Y308014D01*
X162236Y307995D01*
X162225Y307978D01*
X162200Y307877D01*
X162170Y307778D01*
X162170Y307758D01*
X162165Y307739D01*
X162173Y307636D01*
X162176Y307533D01*
X162183Y307514D01*
X162184Y307494D01*
X162225Y307399D01*
X162260Y307302D01*
X162273Y307286D01*
X162281Y307268D01*
X162386Y307137D01*
X162588Y306935D01*
X162662Y306882D01*
X162731Y306822D01*
X162761Y306810D01*
X162787Y306791D01*
X162874Y306764D01*
X162959Y306730D01*
X163000Y306726D01*
X163022Y306719D01*
X163055Y306720D01*
X163126Y306712D01*
X165816Y306712D01*
X165910Y306727D01*
X166005Y306736D01*
X166031Y306747D01*
X166059Y306751D01*
X166143Y306796D01*
X166230Y306834D01*
X166251Y306853D01*
X166276Y306867D01*
X166342Y306936D01*
X166412Y307000D01*
X166426Y307024D01*
X166446Y307045D01*
X166486Y307131D01*
X166532Y307215D01*
X166537Y307242D01*
X166549Y307268D01*
X166560Y307363D01*
X166577Y307456D01*
X166573Y307484D01*
X166576Y307512D01*
X166556Y307606D01*
X166543Y307700D01*
X166528Y307732D01*
X166524Y307753D01*
X166507Y307781D01*
X166475Y307854D01*
X166307Y308144D01*
X166134Y308791D01*
X166134Y319152D01*
X180213Y319152D01*
X180233Y319155D01*
X180252Y319153D01*
X180354Y319175D01*
X180456Y319192D01*
X180473Y319201D01*
X180493Y319205D01*
X180582Y319258D01*
X180673Y319307D01*
X180687Y319321D01*
X180704Y319331D01*
X180771Y319410D01*
X180842Y319485D01*
X180851Y319503D01*
X180864Y319518D01*
X180903Y319614D01*
X180946Y319708D01*
X180948Y319728D01*
X180956Y319746D01*
X180974Y319913D01*
X180974Y320676D01*
X181737Y320676D01*
X181757Y320679D01*
X181776Y320677D01*
X181878Y320699D01*
X181980Y320716D01*
X181997Y320725D01*
X182017Y320729D01*
X182106Y320782D01*
X182197Y320831D01*
X182211Y320845D01*
X182228Y320855D01*
X182295Y320934D01*
X182366Y321009D01*
X182375Y321027D01*
X182388Y321042D01*
X182427Y321138D01*
X182470Y321232D01*
X182472Y321252D01*
X182480Y321270D01*
X182498Y321437D01*
X182498Y334766D01*
X193609Y334766D01*
X194256Y334593D01*
X194835Y334258D01*
X195308Y333785D01*
X195643Y333206D01*
X195816Y332559D01*
X195816Y331062D01*
X195827Y330992D01*
X195829Y330920D01*
X195847Y330871D01*
X195855Y330820D01*
X195889Y330756D01*
X195914Y330689D01*
X195946Y330648D01*
X195971Y330602D01*
X196023Y330553D01*
X196067Y330497D01*
X196111Y330469D01*
X196149Y330433D01*
X196214Y330403D01*
X196274Y330364D01*
X196325Y330351D01*
X196372Y330329D01*
X196443Y330321D01*
X196513Y330304D01*
X196565Y330308D01*
X196616Y330302D01*
X196687Y330317D01*
X196758Y330323D01*
X196806Y330343D01*
X196857Y330354D01*
X196918Y330391D01*
X196984Y330419D01*
X197040Y330464D01*
X197068Y330481D01*
X197083Y330498D01*
X197115Y330524D01*
X199039Y332448D01*
X199084Y332511D01*
X199111Y332539D01*
X199116Y332549D01*
X199152Y332592D01*
X199164Y332622D01*
X199183Y332648D01*
X199210Y332735D01*
X199241Y332814D01*
X199564Y333137D01*
X199576Y333153D01*
X199592Y333165D01*
X199648Y333252D01*
X199708Y333336D01*
X199714Y333355D01*
X199725Y333372D01*
X199750Y333473D01*
X199780Y333572D01*
X199780Y333592D01*
X199785Y333611D01*
X199777Y333714D01*
X199774Y333817D01*
X199767Y333836D01*
X199766Y333856D01*
X199725Y333951D01*
X199690Y334048D01*
X199677Y334064D01*
X199669Y334082D01*
X199564Y334213D01*
X199262Y334515D01*
X199262Y336832D01*
X199259Y336852D01*
X199261Y336871D01*
X199239Y336973D01*
X199223Y337075D01*
X199213Y337092D01*
X199209Y337112D01*
X199156Y337201D01*
X199107Y337292D01*
X199093Y337306D01*
X199083Y337323D01*
X199004Y337390D01*
X198929Y337462D01*
X198911Y337470D01*
X198896Y337483D01*
X198800Y337522D01*
X198706Y337565D01*
X198686Y337567D01*
X198668Y337575D01*
X198501Y337593D01*
X194652Y337593D01*
X191543Y340702D01*
X191543Y345098D01*
X194652Y348207D01*
X199048Y348207D01*
X200050Y347205D01*
X200124Y347152D01*
X200194Y347092D01*
X200224Y347080D01*
X200250Y347061D01*
X200337Y347034D01*
X200422Y347000D01*
X200463Y346996D01*
X200485Y346989D01*
X200517Y346990D01*
X200588Y346982D01*
X210642Y346982D01*
X210673Y346951D01*
X210747Y346898D01*
X210817Y346838D01*
X210847Y346826D01*
X210873Y346807D01*
X210960Y346780D01*
X211045Y346746D01*
X211086Y346742D01*
X211108Y346735D01*
X211140Y346736D01*
X211212Y346728D01*
X218183Y346728D01*
X219076Y345835D01*
X219076Y343419D01*
X219087Y343348D01*
X219089Y343276D01*
X219107Y343227D01*
X219115Y343176D01*
X219149Y343112D01*
X219174Y343045D01*
X219206Y343004D01*
X219231Y342958D01*
X219283Y342909D01*
X219327Y342853D01*
X219371Y342825D01*
X219409Y342789D01*
X219474Y342759D01*
X219534Y342720D01*
X219585Y342707D01*
X219632Y342685D01*
X219703Y342677D01*
X219773Y342660D01*
X219825Y342664D01*
X219876Y342658D01*
X219947Y342674D01*
X220018Y342679D01*
X220066Y342699D01*
X220117Y342711D01*
X220178Y342747D01*
X220244Y342775D01*
X220300Y342820D01*
X220328Y342837D01*
X220343Y342855D01*
X220375Y342880D01*
X231170Y353675D01*
X233477Y355982D01*
X261823Y355982D01*
X273284Y344521D01*
X273358Y344468D01*
X273428Y344408D01*
X273458Y344396D01*
X273484Y344377D01*
X273571Y344350D01*
X273656Y344316D01*
X273697Y344312D01*
X273719Y344305D01*
X273751Y344306D01*
X273823Y344298D01*
X275223Y344298D01*
X279237Y342635D01*
X282310Y339562D01*
X283973Y335548D01*
X283973Y331202D01*
X282310Y327188D01*
X279237Y324115D01*
X275223Y322452D01*
X270877Y322452D01*
X266863Y324115D01*
X263790Y327188D01*
X262127Y331202D01*
X262127Y335548D01*
X263790Y339562D01*
X265448Y341220D01*
X265460Y341236D01*
X265475Y341249D01*
X265531Y341336D01*
X265592Y341420D01*
X265598Y341439D01*
X265608Y341456D01*
X265634Y341556D01*
X265664Y341655D01*
X265664Y341675D01*
X265668Y341694D01*
X265660Y341797D01*
X265658Y341901D01*
X265651Y341920D01*
X265649Y341940D01*
X265609Y342034D01*
X265573Y342132D01*
X265561Y342148D01*
X265553Y342166D01*
X265448Y342297D01*
X259100Y348645D01*
X259026Y348698D01*
X258956Y348758D01*
X258926Y348770D01*
X258900Y348789D01*
X258813Y348816D01*
X258728Y348850D01*
X258687Y348854D01*
X258665Y348861D01*
X258633Y348860D01*
X258561Y348868D01*
X243686Y348868D01*
X243616Y348857D01*
X243544Y348855D01*
X243495Y348837D01*
X243444Y348829D01*
X243380Y348795D01*
X243313Y348770D01*
X243272Y348738D01*
X243226Y348713D01*
X243177Y348661D01*
X243121Y348617D01*
X243093Y348573D01*
X243057Y348535D01*
X243027Y348470D01*
X242988Y348410D01*
X242975Y348359D01*
X242953Y348312D01*
X242945Y348241D01*
X242928Y348171D01*
X242932Y348119D01*
X242926Y348068D01*
X242941Y347997D01*
X242947Y347926D01*
X242967Y347878D01*
X242978Y347827D01*
X243015Y347766D01*
X243043Y347700D01*
X243088Y347644D01*
X243105Y347616D01*
X243122Y347601D01*
X243148Y347569D01*
X243432Y347285D01*
X243432Y344590D01*
X243439Y344544D01*
X243437Y344499D01*
X243459Y344424D01*
X243471Y344347D01*
X243493Y344306D01*
X243506Y344262D01*
X243550Y344198D01*
X243587Y344130D01*
X243620Y344098D01*
X243646Y344060D01*
X243708Y344014D01*
X243765Y343960D01*
X243807Y343941D01*
X243843Y343913D01*
X243917Y343889D01*
X243988Y343857D01*
X244034Y343852D01*
X244077Y343837D01*
X244155Y343838D01*
X244232Y343829D01*
X244277Y343839D01*
X244323Y343840D01*
X244455Y343878D01*
X244473Y343882D01*
X244477Y343884D01*
X244484Y343886D01*
X245477Y344298D01*
X249823Y344298D01*
X253837Y342635D01*
X256910Y339562D01*
X258573Y335548D01*
X258573Y331202D01*
X256910Y327188D01*
X253837Y324115D01*
X249823Y322452D01*
X245477Y322452D01*
X243317Y323347D01*
X243203Y323374D01*
X243090Y323402D01*
X243083Y323402D01*
X243077Y323403D01*
X242961Y323392D01*
X242844Y323383D01*
X242839Y323381D01*
X242832Y323380D01*
X242725Y323333D01*
X242618Y323287D01*
X242612Y323282D01*
X242608Y323280D01*
X242594Y323268D01*
X242487Y323182D01*
X239673Y320368D01*
X238950Y320368D01*
X238879Y320357D01*
X238807Y320355D01*
X238758Y320337D01*
X238707Y320329D01*
X238644Y320295D01*
X238576Y320270D01*
X238535Y320238D01*
X238489Y320213D01*
X238440Y320162D01*
X238384Y320117D01*
X238356Y320073D01*
X238320Y320035D01*
X238290Y319970D01*
X238251Y319910D01*
X238238Y319859D01*
X238216Y319812D01*
X238208Y319741D01*
X238191Y319671D01*
X238195Y319619D01*
X238189Y319568D01*
X238205Y319497D01*
X238210Y319426D01*
X238230Y319378D01*
X238242Y319327D01*
X238278Y319266D01*
X238306Y319200D01*
X238351Y319144D01*
X238368Y319116D01*
X238386Y319101D01*
X238411Y319069D01*
X242487Y314993D01*
X242582Y314925D01*
X242676Y314855D01*
X242682Y314853D01*
X242687Y314849D01*
X242798Y314815D01*
X242910Y314779D01*
X242916Y314779D01*
X242922Y314777D01*
X243039Y314780D01*
X243156Y314781D01*
X243163Y314783D01*
X243168Y314783D01*
X243185Y314790D01*
X243317Y314828D01*
X245477Y315723D01*
X249823Y315723D01*
X253837Y314060D01*
X256910Y310987D01*
X258573Y306973D01*
X258573Y302627D01*
X256910Y298613D01*
X253837Y295540D01*
X249989Y293946D01*
X249906Y293895D01*
X249820Y293849D01*
X249802Y293830D01*
X249780Y293817D01*
X249718Y293742D01*
X249651Y293671D01*
X249640Y293647D01*
X249623Y293627D01*
X249588Y293536D01*
X249547Y293448D01*
X249545Y293422D01*
X249535Y293398D01*
X249531Y293300D01*
X249520Y293204D01*
X249526Y293178D01*
X249525Y293152D01*
X249552Y293058D01*
X249573Y292963D01*
X249586Y292941D01*
X249593Y292916D01*
X249649Y292836D01*
X249699Y292752D01*
X249719Y292735D01*
X249734Y292714D01*
X249812Y292655D01*
X249886Y292592D01*
X249910Y292582D01*
X249931Y292567D01*
X250023Y292537D01*
X250114Y292500D01*
X250146Y292497D01*
X250165Y292491D01*
X250198Y292491D01*
X250281Y292482D01*
X261736Y292482D01*
X261827Y292496D01*
X261917Y292504D01*
X261947Y292516D01*
X261979Y292521D01*
X262060Y292564D01*
X262144Y292600D01*
X262176Y292626D01*
X262197Y292637D01*
X262219Y292660D01*
X262275Y292705D01*
X265448Y295878D01*
X265460Y295894D01*
X265475Y295907D01*
X265531Y295994D01*
X265592Y296078D01*
X265598Y296097D01*
X265608Y296114D01*
X265634Y296214D01*
X265664Y296313D01*
X265664Y296333D01*
X265668Y296352D01*
X265660Y296455D01*
X265658Y296559D01*
X265651Y296578D01*
X265649Y296597D01*
X265612Y296684D01*
X265608Y296707D01*
X265598Y296723D01*
X265573Y296790D01*
X265561Y296806D01*
X265553Y296824D01*
X265492Y296900D01*
X265481Y296918D01*
X265470Y296927D01*
X265448Y296955D01*
X263790Y298613D01*
X262127Y302627D01*
X262127Y306973D01*
X263790Y310987D01*
X266863Y314060D01*
X270877Y315723D01*
X275223Y315723D01*
X279237Y314060D01*
X282310Y310987D01*
X283973Y306973D01*
X283973Y302768D01*
X283976Y302748D01*
X283974Y302729D01*
X283996Y302627D01*
X284012Y302525D01*
X284022Y302508D01*
X284026Y302488D01*
X284079Y302399D01*
X284128Y302308D01*
X284142Y302294D01*
X284152Y302277D01*
X284231Y302210D01*
X284306Y302138D01*
X284324Y302130D01*
X284339Y302117D01*
X284435Y302078D01*
X284529Y302035D01*
X284549Y302033D01*
X284567Y302025D01*
X284734Y302007D01*
X332609Y302007D01*
X332699Y302021D01*
X332790Y302029D01*
X332820Y302041D01*
X332852Y302046D01*
X332933Y302089D01*
X333017Y302125D01*
X333049Y302151D01*
X333069Y302162D01*
X333092Y302185D01*
X333148Y302230D01*
X335743Y304825D01*
X340139Y304825D01*
X343248Y301716D01*
X343248Y297320D01*
X340139Y294211D01*
X335743Y294211D01*
X335284Y294670D01*
X335210Y294723D01*
X335140Y294783D01*
X335110Y294795D01*
X335084Y294814D01*
X334997Y294841D01*
X334912Y294875D01*
X334871Y294879D01*
X334849Y294886D01*
X334817Y294885D01*
X334745Y294893D01*
X287539Y294893D01*
X287448Y294879D01*
X287358Y294871D01*
X287328Y294859D01*
X287296Y294854D01*
X287215Y294811D01*
X287131Y294775D01*
X287099Y294749D01*
X287078Y294738D01*
X287056Y294715D01*
X287000Y294670D01*
X272656Y280326D01*
X272603Y280252D01*
X272543Y280183D01*
X272531Y280152D01*
X272512Y280126D01*
X272486Y280039D01*
X272461Y279979D01*
X269324Y276842D01*
X264928Y276842D01*
X261820Y279951D01*
X261820Y284607D01*
X261816Y284627D01*
X261818Y284646D01*
X261796Y284748D01*
X261780Y284850D01*
X261770Y284867D01*
X261766Y284887D01*
X261713Y284976D01*
X261665Y285067D01*
X261650Y285081D01*
X261640Y285098D01*
X261561Y285165D01*
X261486Y285237D01*
X261468Y285245D01*
X261453Y285258D01*
X261357Y285297D01*
X261263Y285340D01*
X261244Y285342D01*
X261225Y285350D01*
X261058Y285368D01*
X233477Y285368D01*
X231170Y287675D01*
X220375Y298470D01*
X220317Y298512D01*
X220265Y298561D01*
X220218Y298583D01*
X220176Y298613D01*
X220107Y298634D01*
X220042Y298665D01*
X219990Y298670D01*
X219940Y298686D01*
X219869Y298684D01*
X219798Y298692D01*
X219747Y298681D01*
X219695Y298679D01*
X219627Y298655D01*
X219557Y298639D01*
X219512Y298613D01*
X219464Y298595D01*
X219408Y298550D01*
X219346Y298513D01*
X219312Y298474D01*
X219272Y298441D01*
X219233Y298381D01*
X219186Y298326D01*
X219167Y298278D01*
X219139Y298234D01*
X219121Y298165D01*
X219094Y298098D01*
X219086Y298027D01*
X219078Y297996D01*
X219080Y297972D01*
X219076Y297931D01*
X219076Y295515D01*
X218183Y294622D01*
X206845Y294622D01*
X206775Y294611D01*
X206703Y294609D01*
X206654Y294591D01*
X206603Y294583D01*
X206539Y294549D01*
X206472Y294524D01*
X206431Y294492D01*
X206385Y294467D01*
X206336Y294415D01*
X206280Y294371D01*
X206252Y294327D01*
X206216Y294289D01*
X206186Y294224D01*
X206147Y294164D01*
X206134Y294113D01*
X206112Y294066D01*
X206104Y293995D01*
X206087Y293925D01*
X206091Y293873D01*
X206085Y293822D01*
X206100Y293751D01*
X206106Y293680D01*
X206126Y293632D01*
X206137Y293581D01*
X206174Y293520D01*
X206202Y293454D01*
X206247Y293398D01*
X206264Y293370D01*
X206281Y293355D01*
X206307Y293323D01*
X208507Y291123D01*
X208507Y288964D01*
X208521Y288873D01*
X208529Y288783D01*
X208541Y288753D01*
X208546Y288721D01*
X208589Y288640D01*
X208625Y288556D01*
X208651Y288524D01*
X208662Y288503D01*
X208685Y288481D01*
X208730Y288425D01*
X216078Y281077D01*
X216152Y281023D01*
X216222Y280964D01*
X216252Y280952D01*
X216278Y280933D01*
X216365Y280906D01*
X216450Y280872D01*
X216491Y280867D01*
X216513Y280861D01*
X216545Y280861D01*
X216617Y280854D01*
X246280Y280854D01*
X246370Y280868D01*
X246461Y280875D01*
X246490Y280888D01*
X246522Y280893D01*
X246603Y280936D01*
X246687Y280972D01*
X246719Y280997D01*
X246740Y281008D01*
X246762Y281032D01*
X246818Y281077D01*
X248345Y282604D01*
X252741Y282604D01*
X255850Y279495D01*
X255850Y275099D01*
X252741Y271990D01*
X248345Y271990D01*
X246818Y273517D01*
X246744Y273570D01*
X246674Y273630D01*
X246644Y273642D01*
X246618Y273661D01*
X246531Y273687D01*
X246446Y273722D01*
X246405Y273726D01*
X246383Y273733D01*
X246351Y273732D01*
X246280Y273740D01*
X213355Y273740D01*
X203700Y283395D01*
X203626Y283448D01*
X203556Y283508D01*
X203526Y283520D01*
X203500Y283539D01*
X203413Y283566D01*
X203328Y283600D01*
X203287Y283604D01*
X203265Y283611D01*
X203233Y283610D01*
X203161Y283618D01*
X201002Y283618D01*
X197893Y286727D01*
X197893Y291123D01*
X200236Y293466D01*
X200247Y293482D01*
X200263Y293494D01*
X200319Y293582D01*
X200379Y293665D01*
X200385Y293684D01*
X200396Y293701D01*
X200421Y293802D01*
X200452Y293900D01*
X200451Y293920D01*
X200456Y293940D01*
X200448Y294043D01*
X200445Y294146D01*
X200438Y294165D01*
X200437Y294185D01*
X200396Y294280D01*
X200361Y294377D01*
X200348Y294393D01*
X200340Y294411D01*
X200236Y294542D01*
X200132Y294646D01*
X200115Y294658D01*
X200103Y294673D01*
X200016Y294729D01*
X199932Y294790D01*
X199913Y294796D01*
X199896Y294806D01*
X199796Y294832D01*
X199697Y294862D01*
X199677Y294862D01*
X199658Y294866D01*
X199555Y294858D01*
X199451Y294856D01*
X199432Y294849D01*
X199412Y294847D01*
X199318Y294807D01*
X199220Y294771D01*
X199204Y294759D01*
X199186Y294751D01*
X199055Y294646D01*
X196185Y291776D01*
X196132Y291702D01*
X196072Y291632D01*
X196060Y291602D01*
X196041Y291576D01*
X196014Y291489D01*
X195980Y291404D01*
X195976Y291363D01*
X195969Y291341D01*
X195970Y291309D01*
X195962Y291238D01*
X195962Y236213D01*
X195976Y236122D01*
X195984Y236032D01*
X195996Y236002D01*
X196001Y235970D01*
X196044Y235889D01*
X196080Y235805D01*
X196106Y235773D01*
X196117Y235752D01*
X196140Y235730D01*
X196185Y235674D01*
X221994Y209865D01*
X222052Y209823D01*
X222104Y209774D01*
X222123Y209765D01*
X222135Y209755D01*
X222163Y209743D01*
X222193Y209722D01*
X222262Y209701D01*
X222327Y209670D01*
X222351Y209668D01*
X222363Y209663D01*
X222397Y209659D01*
X222429Y209649D01*
X222474Y209650D01*
X222530Y209644D01*
X222532Y209644D01*
X222544Y209646D01*
X222571Y209643D01*
X222622Y209654D01*
X222674Y209656D01*
X222733Y209677D01*
X222775Y209684D01*
X222786Y209690D01*
X222812Y209695D01*
X222857Y209722D01*
X222905Y209740D01*
X222954Y209779D01*
X222992Y209799D01*
X223001Y209809D01*
X223023Y209822D01*
X223057Y209861D01*
X223097Y209894D01*
X223130Y209944D01*
X223162Y209977D01*
X223168Y209991D01*
X223183Y210009D01*
X223202Y210057D01*
X223230Y210101D01*
X223244Y210156D01*
X223265Y210200D01*
X223267Y210217D01*
X223275Y210237D01*
X223283Y210308D01*
X223291Y210339D01*
X223289Y210363D01*
X223293Y210403D01*
X223293Y211748D01*
X226402Y214857D01*
X228126Y214857D01*
X228216Y214871D01*
X228307Y214879D01*
X228337Y214891D01*
X228369Y214896D01*
X228449Y214939D01*
X228533Y214975D01*
X228565Y215001D01*
X228586Y215012D01*
X228608Y215035D01*
X228664Y215080D01*
X232440Y218856D01*
X232493Y218930D01*
X232553Y218999D01*
X232565Y219029D01*
X232584Y219055D01*
X232611Y219142D01*
X232645Y219227D01*
X232649Y219268D01*
X232656Y219291D01*
X232655Y219323D01*
X232663Y219394D01*
X232663Y227337D01*
X232649Y227428D01*
X232641Y227518D01*
X232629Y227548D01*
X232624Y227580D01*
X232581Y227661D01*
X232545Y227745D01*
X232519Y227777D01*
X232508Y227798D01*
X232485Y227820D01*
X232440Y227876D01*
X218351Y241965D01*
X218277Y242018D01*
X218207Y242078D01*
X218177Y242090D01*
X218151Y242109D01*
X218064Y242136D01*
X217979Y242170D01*
X217938Y242174D01*
X217916Y242181D01*
X217884Y242180D01*
X217812Y242188D01*
X211908Y242188D01*
X211818Y242174D01*
X211727Y242166D01*
X211698Y242154D01*
X211666Y242149D01*
X211585Y242106D01*
X211501Y242070D01*
X211469Y242044D01*
X211448Y242033D01*
X211426Y242010D01*
X211370Y241965D01*
X208573Y239168D01*
X204177Y239168D01*
X201068Y242277D01*
X201068Y246673D01*
X204177Y249782D01*
X208573Y249782D01*
X211370Y246985D01*
X211444Y246932D01*
X211514Y246872D01*
X211544Y246860D01*
X211570Y246841D01*
X211657Y246814D01*
X211742Y246780D01*
X211783Y246776D01*
X211805Y246769D01*
X211837Y246770D01*
X211908Y246762D01*
X220022Y246762D01*
X237237Y229547D01*
X237237Y218793D01*
X237240Y218773D01*
X237238Y218754D01*
X237260Y218652D01*
X237276Y218550D01*
X237286Y218533D01*
X237290Y218513D01*
X237343Y218424D01*
X237392Y218333D01*
X237406Y218319D01*
X237416Y218302D01*
X237495Y218235D01*
X237570Y218163D01*
X237588Y218155D01*
X237603Y218142D01*
X237699Y218103D01*
X237793Y218060D01*
X237813Y218058D01*
X237831Y218050D01*
X237998Y218032D01*
X240323Y218032D01*
X243432Y214923D01*
X243432Y210527D01*
X240858Y207953D01*
X240846Y207937D01*
X240830Y207924D01*
X240774Y207837D01*
X240714Y207753D01*
X240708Y207734D01*
X240697Y207717D01*
X240672Y207617D01*
X240642Y207518D01*
X240642Y207498D01*
X240637Y207479D01*
X240645Y207376D01*
X240648Y207272D01*
X240655Y207253D01*
X240657Y207234D01*
X240697Y207139D01*
X240733Y207041D01*
X240745Y207025D01*
X240753Y207007D01*
X240858Y206876D01*
X246762Y200972D01*
X246762Y195779D01*
X246773Y195709D01*
X246775Y195637D01*
X246793Y195588D01*
X246801Y195537D01*
X246835Y195473D01*
X246860Y195406D01*
X246892Y195365D01*
X246917Y195319D01*
X246969Y195270D01*
X247013Y195214D01*
X247057Y195186D01*
X247095Y195150D01*
X247160Y195120D01*
X247220Y195081D01*
X247271Y195068D01*
X247318Y195046D01*
X247389Y195038D01*
X247459Y195021D01*
X247511Y195025D01*
X247562Y195019D01*
X247633Y195034D01*
X247704Y195040D01*
X247752Y195060D01*
X247803Y195071D01*
X247864Y195108D01*
X247930Y195136D01*
X247986Y195181D01*
X248014Y195198D01*
X248029Y195215D01*
X248061Y195241D01*
X248627Y195807D01*
X253023Y195807D01*
X256132Y192698D01*
X256132Y188302D01*
X253335Y185505D01*
X253282Y185431D01*
X253222Y185361D01*
X253210Y185331D01*
X253191Y185305D01*
X253164Y185218D01*
X253130Y185133D01*
X253126Y185092D01*
X253119Y185070D01*
X253120Y185038D01*
X253112Y184967D01*
X253112Y183333D01*
X253126Y183243D01*
X253134Y183152D01*
X253146Y183123D01*
X253151Y183091D01*
X253194Y183010D01*
X253230Y182926D01*
X253256Y182894D01*
X253267Y182873D01*
X253290Y182851D01*
X253335Y182795D01*
X256132Y179998D01*
X256132Y175602D01*
X253023Y172493D01*
X248627Y172493D01*
X248061Y173059D01*
X248003Y173101D01*
X247951Y173150D01*
X247904Y173172D01*
X247862Y173202D01*
X247793Y173224D01*
X247728Y173254D01*
X247676Y173259D01*
X247626Y173275D01*
X247555Y173273D01*
X247484Y173281D01*
X247433Y173270D01*
X247381Y173268D01*
X247313Y173244D01*
X247243Y173229D01*
X247198Y173202D01*
X247150Y173184D01*
X247094Y173139D01*
X247032Y173102D01*
X246998Y173063D01*
X246958Y173030D01*
X246919Y172970D01*
X246872Y172915D01*
X246853Y172867D01*
X246825Y172823D01*
X246807Y172754D01*
X246780Y172687D01*
X246772Y172616D01*
X246764Y172585D01*
X246766Y172562D01*
X246762Y172521D01*
X246762Y168463D01*
X231587Y153288D01*
X220338Y153288D01*
X220247Y153274D01*
X220157Y153266D01*
X220127Y153254D01*
X220095Y153249D01*
X220014Y153206D01*
X219930Y153170D01*
X219898Y153144D01*
X219877Y153133D01*
X219855Y153110D01*
X219799Y153065D01*
X202380Y135646D01*
X202327Y135572D01*
X202267Y135502D01*
X202255Y135472D01*
X202236Y135446D01*
X202209Y135359D01*
X202175Y135274D01*
X202171Y135233D01*
X202164Y135211D01*
X202165Y135179D01*
X202157Y135107D01*
X202157Y131152D01*
X199048Y128043D01*
X194652Y128043D01*
X191543Y131152D01*
X191543Y135548D01*
X194652Y138657D01*
X198607Y138657D01*
X198698Y138671D01*
X198788Y138679D01*
X198818Y138691D01*
X198850Y138696D01*
X198931Y138739D01*
X199015Y138775D01*
X199047Y138801D01*
X199068Y138812D01*
X199090Y138835D01*
X199146Y138880D01*
X205905Y145639D01*
X205947Y145697D01*
X205996Y145749D01*
X206018Y145796D01*
X206048Y145838D01*
X206069Y145907D01*
X206100Y145972D01*
X206105Y146024D01*
X206121Y146074D01*
X206119Y146145D01*
X206127Y146216D01*
X206116Y146267D01*
X206114Y146319D01*
X206090Y146387D01*
X206075Y146457D01*
X206048Y146502D01*
X206030Y146550D01*
X205985Y146606D01*
X205948Y146668D01*
X205909Y146702D01*
X205876Y146742D01*
X205816Y146781D01*
X205761Y146828D01*
X205713Y146847D01*
X205669Y146875D01*
X205600Y146893D01*
X205533Y146920D01*
X205462Y146928D01*
X205431Y146936D01*
X205407Y146934D01*
X205367Y146938D01*
X192880Y146938D01*
X170647Y169171D01*
X170573Y169225D01*
X170504Y169284D01*
X170473Y169296D01*
X170447Y169315D01*
X170360Y169342D01*
X170275Y169376D01*
X170234Y169381D01*
X170212Y169387D01*
X170180Y169387D01*
X170109Y169394D01*
X167993Y169394D01*
X167973Y169391D01*
X167954Y169393D01*
X167852Y169371D01*
X167750Y169355D01*
X167733Y169345D01*
X167713Y169341D01*
X167624Y169288D01*
X167533Y169240D01*
X167519Y169225D01*
X167502Y169215D01*
X167435Y169136D01*
X167363Y169061D01*
X167355Y169043D01*
X167342Y169028D01*
X167303Y168932D01*
X167260Y168838D01*
X167258Y168818D01*
X167250Y168800D01*
X167232Y168633D01*
X167232Y166077D01*
X164123Y162968D01*
X159727Y162968D01*
X156618Y166077D01*
X156618Y166452D01*
X156615Y166472D01*
X156617Y166491D01*
X156595Y166593D01*
X156579Y166695D01*
X156569Y166712D01*
X156565Y166732D01*
X156512Y166821D01*
X156463Y166912D01*
X156449Y166926D01*
X156439Y166943D01*
X156360Y167010D01*
X156285Y167082D01*
X156267Y167090D01*
X156252Y167103D01*
X156156Y167142D01*
X156062Y167185D01*
X156042Y167187D01*
X156024Y167195D01*
X155857Y167213D01*
X151986Y167213D01*
X151966Y167210D01*
X151947Y167212D01*
X151845Y167190D01*
X151743Y167174D01*
X151726Y167164D01*
X151706Y167160D01*
X151617Y167107D01*
X151526Y167058D01*
X151512Y167044D01*
X151495Y167034D01*
X151428Y166955D01*
X151356Y166880D01*
X151348Y166862D01*
X151335Y166847D01*
X151296Y166751D01*
X151253Y166657D01*
X151251Y166637D01*
X151243Y166619D01*
X151225Y166452D01*
X151225Y165618D01*
X150332Y164725D01*
X129068Y164725D01*
X128175Y165618D01*
X128175Y173382D01*
X129068Y174275D01*
X150332Y174275D01*
X151225Y173382D01*
X151225Y172548D01*
X151228Y172528D01*
X151226Y172509D01*
X151248Y172407D01*
X151264Y172305D01*
X151274Y172288D01*
X151278Y172268D01*
X151331Y172179D01*
X151380Y172088D01*
X151394Y172074D01*
X151404Y172057D01*
X151483Y171990D01*
X151558Y171918D01*
X151576Y171910D01*
X151591Y171897D01*
X151687Y171858D01*
X151781Y171815D01*
X151801Y171813D01*
X151819Y171805D01*
X151986Y171787D01*
X157617Y171787D01*
X157707Y171801D01*
X157798Y171809D01*
X157827Y171821D01*
X157859Y171826D01*
X157940Y171869D01*
X158024Y171905D01*
X158056Y171931D01*
X158077Y171942D01*
X158099Y171965D01*
X158155Y172010D01*
X159727Y173582D01*
X162283Y173582D01*
X162303Y173585D01*
X162323Y173583D01*
X162424Y173605D01*
X162526Y173621D01*
X162544Y173631D01*
X162563Y173635D01*
X162652Y173688D01*
X162743Y173737D01*
X162757Y173751D01*
X162774Y173761D01*
X162841Y173840D01*
X162913Y173915D01*
X162921Y173933D01*
X162934Y173948D01*
X162973Y174044D01*
X163016Y174138D01*
X163019Y174158D01*
X163026Y174176D01*
X163044Y174343D01*
X163044Y176899D01*
X166153Y180008D01*
X170549Y180008D01*
X173658Y176899D01*
X173658Y172944D01*
X173673Y172854D01*
X173680Y172763D01*
X173692Y172733D01*
X173698Y172701D01*
X173740Y172620D01*
X173776Y172536D01*
X173802Y172504D01*
X173813Y172484D01*
X173836Y172461D01*
X173881Y172405D01*
X194552Y151735D01*
X194626Y151682D01*
X194695Y151622D01*
X194725Y151610D01*
X194751Y151591D01*
X194838Y151564D01*
X194923Y151530D01*
X194964Y151526D01*
X194986Y151519D01*
X195019Y151520D01*
X195090Y151512D01*
X205112Y151512D01*
X205203Y151526D01*
X205293Y151534D01*
X205323Y151546D01*
X205355Y151551D01*
X205436Y151594D01*
X205520Y151630D01*
X205552Y151656D01*
X205573Y151667D01*
X205595Y151690D01*
X205651Y151735D01*
X216720Y162804D01*
X216773Y162878D01*
X216833Y162948D01*
X216845Y162978D01*
X216864Y163004D01*
X216891Y163091D01*
X216925Y163176D01*
X216929Y163217D01*
X216936Y163239D01*
X216935Y163271D01*
X216943Y163343D01*
X216943Y167298D01*
X220052Y170407D01*
X224448Y170407D01*
X226378Y168477D01*
X226394Y168465D01*
X226407Y168449D01*
X226494Y168393D01*
X226578Y168333D01*
X226597Y168327D01*
X226614Y168316D01*
X226714Y168291D01*
X226813Y168261D01*
X226833Y168261D01*
X226852Y168256D01*
X226955Y168264D01*
X227059Y168267D01*
X227078Y168274D01*
X227097Y168276D01*
X227192Y168316D01*
X227290Y168352D01*
X227306Y168364D01*
X227324Y168372D01*
X227455Y168477D01*
X228828Y169850D01*
X228881Y169924D01*
X228941Y169994D01*
X228953Y170024D01*
X228972Y170050D01*
X228999Y170137D01*
X229033Y170222D01*
X229037Y170263D01*
X229044Y170285D01*
X229043Y170317D01*
X229051Y170389D01*
X229051Y184939D01*
X229040Y185009D01*
X229038Y185081D01*
X229020Y185130D01*
X229012Y185181D01*
X228978Y185245D01*
X228953Y185312D01*
X228921Y185353D01*
X228896Y185399D01*
X228844Y185448D01*
X228800Y185504D01*
X228756Y185532D01*
X228718Y185568D01*
X228653Y185598D01*
X228593Y185637D01*
X228542Y185650D01*
X228495Y185672D01*
X228424Y185680D01*
X228354Y185697D01*
X228302Y185693D01*
X228251Y185699D01*
X228180Y185684D01*
X228109Y185678D01*
X228061Y185658D01*
X228010Y185647D01*
X227949Y185610D01*
X227883Y185582D01*
X227827Y185537D01*
X227799Y185520D01*
X227784Y185503D01*
X227752Y185477D01*
X227468Y185193D01*
X223072Y185193D01*
X219963Y188302D01*
X219963Y192698D01*
X222615Y195350D01*
X222626Y195366D01*
X222642Y195378D01*
X222698Y195466D01*
X222758Y195549D01*
X222764Y195568D01*
X222775Y195585D01*
X222800Y195686D01*
X222831Y195784D01*
X222830Y195804D01*
X222835Y195824D01*
X222827Y195927D01*
X222824Y196030D01*
X222817Y196049D01*
X222816Y196069D01*
X222776Y196164D01*
X222740Y196261D01*
X222727Y196277D01*
X222720Y196295D01*
X222615Y196426D01*
X185038Y234003D01*
X185038Y295557D01*
X185035Y295577D01*
X185037Y295596D01*
X185015Y295698D01*
X184999Y295800D01*
X184989Y295817D01*
X184985Y295837D01*
X184932Y295926D01*
X184883Y296017D01*
X184869Y296031D01*
X184859Y296048D01*
X184780Y296115D01*
X184705Y296187D01*
X184687Y296195D01*
X184672Y296208D01*
X184576Y296247D01*
X184482Y296290D01*
X184462Y296292D01*
X184444Y296300D01*
X184277Y296318D01*
X181952Y296318D01*
X178843Y299427D01*
X178843Y303823D01*
X180305Y305285D01*
X180347Y305343D01*
X180396Y305395D01*
X180418Y305442D01*
X180448Y305484D01*
X180470Y305553D01*
X180500Y305618D01*
X180505Y305670D01*
X180521Y305720D01*
X180519Y305791D01*
X180527Y305862D01*
X180516Y305913D01*
X180514Y305965D01*
X180490Y306033D01*
X180475Y306103D01*
X180448Y306148D01*
X180430Y306196D01*
X180385Y306252D01*
X180348Y306314D01*
X180309Y306348D01*
X180276Y306388D01*
X180216Y306427D01*
X180161Y306474D01*
X180113Y306493D01*
X180069Y306521D01*
X180000Y306539D01*
X179933Y306566D01*
X179862Y306574D01*
X179831Y306582D01*
X179808Y306580D01*
X179767Y306584D01*
X168387Y306584D01*
X168317Y306573D01*
X168245Y306571D01*
X168196Y306553D01*
X168145Y306545D01*
X168081Y306511D01*
X168014Y306486D01*
X167973Y306454D01*
X167927Y306429D01*
X167878Y306377D01*
X167822Y306333D01*
X167794Y306289D01*
X167758Y306251D01*
X167728Y306186D01*
X167689Y306126D01*
X167676Y306075D01*
X167654Y306028D01*
X167646Y305957D01*
X167629Y305887D01*
X167633Y305835D01*
X167627Y305784D01*
X167642Y305713D01*
X167648Y305642D01*
X167668Y305594D01*
X167679Y305543D01*
X167716Y305482D01*
X167744Y305416D01*
X167789Y305360D01*
X167806Y305332D01*
X167823Y305317D01*
X167849Y305285D01*
X180087Y293047D01*
X180087Y233038D01*
X180101Y232947D01*
X180109Y232857D01*
X180121Y232827D01*
X180126Y232795D01*
X180169Y232714D01*
X180205Y232630D01*
X180231Y232598D01*
X180242Y232577D01*
X180265Y232555D01*
X180310Y232499D01*
X211837Y200972D01*
X211837Y183203D01*
X205555Y176921D01*
X205502Y176847D01*
X205442Y176777D01*
X205430Y176747D01*
X205411Y176721D01*
X205384Y176634D01*
X205350Y176549D01*
X205346Y176508D01*
X205339Y176486D01*
X205340Y176454D01*
X205332Y176382D01*
X205332Y172427D01*
X202223Y169318D01*
X197827Y169318D01*
X194718Y172427D01*
X194718Y176571D01*
X194715Y176590D01*
X194717Y176610D01*
X194695Y176711D01*
X194679Y176813D01*
X194669Y176831D01*
X194665Y176851D01*
X194612Y176940D01*
X194563Y177031D01*
X194549Y177045D01*
X194539Y177062D01*
X194460Y177129D01*
X194385Y177200D01*
X194367Y177209D01*
X194352Y177222D01*
X194256Y177260D01*
X194162Y177304D01*
X194142Y177306D01*
X194124Y177313D01*
X193957Y177332D01*
X192988Y177332D01*
X189880Y180441D01*
X189880Y184837D01*
X192988Y187945D01*
X194239Y187945D01*
X194259Y187949D01*
X194278Y187946D01*
X194380Y187968D01*
X194482Y187985D01*
X194499Y187994D01*
X194519Y187999D01*
X194608Y188052D01*
X194699Y188100D01*
X194713Y188115D01*
X194730Y188125D01*
X194797Y188204D01*
X194869Y188279D01*
X194877Y188297D01*
X194890Y188312D01*
X194929Y188408D01*
X194972Y188502D01*
X194974Y188521D01*
X194982Y188540D01*
X195000Y188707D01*
X195000Y192569D01*
X196524Y194092D01*
X196536Y194108D01*
X196551Y194121D01*
X196607Y194208D01*
X196668Y194292D01*
X196673Y194311D01*
X196684Y194328D01*
X196710Y194428D01*
X196740Y194527D01*
X196739Y194547D01*
X196744Y194566D01*
X196736Y194669D01*
X196734Y194773D01*
X196727Y194792D01*
X196725Y194812D01*
X196685Y194906D01*
X196649Y195004D01*
X196637Y195020D01*
X196629Y195038D01*
X196524Y195169D01*
X174209Y217484D01*
X174135Y217537D01*
X174065Y217597D01*
X174035Y217609D01*
X174009Y217628D01*
X173922Y217655D01*
X173837Y217689D01*
X173796Y217693D01*
X173774Y217700D01*
X173742Y217699D01*
X173670Y217707D01*
X169715Y217707D01*
X168686Y218736D01*
X168628Y218778D01*
X168576Y218827D01*
X168529Y218849D01*
X168487Y218879D01*
X168418Y218900D01*
X168353Y218931D01*
X168301Y218936D01*
X168251Y218952D01*
X168180Y218950D01*
X168109Y218958D01*
X168058Y218947D01*
X168006Y218945D01*
X167938Y218921D01*
X167868Y218905D01*
X167823Y218879D01*
X167775Y218861D01*
X167719Y218816D01*
X167657Y218779D01*
X167623Y218740D01*
X167583Y218707D01*
X167544Y218647D01*
X167497Y218592D01*
X167478Y218544D01*
X167450Y218500D01*
X167432Y218431D01*
X167405Y218364D01*
X167397Y218293D01*
X167389Y218262D01*
X167391Y218238D01*
X167387Y218197D01*
X167387Y184228D01*
X162872Y179713D01*
X151986Y179713D01*
X151966Y179710D01*
X151947Y179712D01*
X151845Y179690D01*
X151743Y179674D01*
X151726Y179664D01*
X151706Y179660D01*
X151617Y179607D01*
X151526Y179558D01*
X151512Y179544D01*
X151495Y179534D01*
X151428Y179455D01*
X151356Y179380D01*
X151348Y179362D01*
X151335Y179347D01*
X151296Y179251D01*
X151253Y179157D01*
X151251Y179137D01*
X151243Y179119D01*
X151225Y178952D01*
X151225Y178118D01*
X150332Y177225D01*
X129068Y177225D01*
X128175Y178118D01*
X128175Y185882D01*
X129068Y186775D01*
X150332Y186775D01*
X151225Y185882D01*
X151225Y185048D01*
X151228Y185028D01*
X151226Y185009D01*
X151248Y184907D01*
X151264Y184805D01*
X151274Y184788D01*
X151278Y184768D01*
X151331Y184679D01*
X151380Y184588D01*
X151394Y184574D01*
X151404Y184557D01*
X151483Y184490D01*
X151558Y184418D01*
X151576Y184410D01*
X151591Y184397D01*
X151687Y184358D01*
X151781Y184315D01*
X151801Y184313D01*
X151819Y184305D01*
X151986Y184287D01*
X155621Y184287D01*
X155691Y184298D01*
X155763Y184300D01*
X155812Y184318D01*
X155863Y184326D01*
X155927Y184360D01*
X155994Y184385D01*
X156035Y184417D01*
X156081Y184442D01*
X156130Y184494D01*
X156186Y184538D01*
X156214Y184582D01*
X156250Y184620D01*
X156280Y184685D01*
X156319Y184745D01*
X156332Y184796D01*
X156354Y184843D01*
X156362Y184914D01*
X156379Y184984D01*
X156375Y185036D01*
X156381Y185087D01*
X156366Y185158D01*
X156360Y185229D01*
X156340Y185277D01*
X156329Y185328D01*
X156292Y185389D01*
X156264Y185455D01*
X156219Y185511D01*
X156202Y185539D01*
X156185Y185554D01*
X156159Y185586D01*
X153443Y188302D01*
X153443Y192698D01*
X156240Y195495D01*
X156293Y195569D01*
X156353Y195639D01*
X156365Y195669D01*
X156384Y195695D01*
X156411Y195782D01*
X156445Y195867D01*
X156449Y195908D01*
X156456Y195930D01*
X156455Y195962D01*
X156463Y196033D01*
X156463Y226496D01*
X156452Y226566D01*
X156450Y226638D01*
X156432Y226687D01*
X156424Y226738D01*
X156390Y226802D01*
X156365Y226869D01*
X156333Y226910D01*
X156308Y226956D01*
X156256Y227005D01*
X156212Y227061D01*
X156168Y227089D01*
X156130Y227125D01*
X156065Y227155D01*
X156005Y227194D01*
X155954Y227207D01*
X155907Y227229D01*
X155836Y227237D01*
X155766Y227254D01*
X155714Y227250D01*
X155663Y227256D01*
X155592Y227241D01*
X155521Y227235D01*
X155473Y227215D01*
X155422Y227204D01*
X155361Y227167D01*
X155295Y227139D01*
X155239Y227094D01*
X155211Y227077D01*
X155196Y227060D01*
X155164Y227034D01*
X154598Y226468D01*
X150202Y226468D01*
X149168Y227502D01*
X149094Y227555D01*
X149024Y227615D01*
X148994Y227627D01*
X148968Y227646D01*
X148881Y227673D01*
X148796Y227707D01*
X148755Y227711D01*
X148733Y227718D01*
X148701Y227717D01*
X148630Y227725D01*
X129068Y227725D01*
X128175Y228618D01*
X128175Y236382D01*
X129068Y237275D01*
X150343Y237275D01*
X150376Y237251D01*
X150445Y237192D01*
X150475Y237180D01*
X150501Y237161D01*
X150588Y237134D01*
X150673Y237100D01*
X150714Y237096D01*
X150736Y237089D01*
X150769Y237090D01*
X150840Y237082D01*
X154598Y237082D01*
X155164Y236516D01*
X155222Y236474D01*
X155274Y236425D01*
X155321Y236403D01*
X155363Y236373D01*
X155432Y236351D01*
X155497Y236321D01*
X155549Y236316D01*
X155599Y236300D01*
X155670Y236302D01*
X155741Y236294D01*
X155792Y236305D01*
X155844Y236307D01*
X155912Y236331D01*
X155982Y236346D01*
X156027Y236373D01*
X156075Y236391D01*
X156131Y236436D01*
X156193Y236473D01*
X156227Y236512D01*
X156267Y236545D01*
X156306Y236605D01*
X156353Y236660D01*
X156372Y236708D01*
X156400Y236752D01*
X156418Y236821D01*
X156445Y236888D01*
X156453Y236959D01*
X156461Y236990D01*
X156459Y237013D01*
X156463Y237054D01*
X156463Y246387D01*
X156449Y246478D01*
X156441Y246568D01*
X156429Y246598D01*
X156424Y246630D01*
X156381Y246711D01*
X156345Y246795D01*
X156319Y246827D01*
X156308Y246848D01*
X156285Y246870D01*
X156240Y246926D01*
X149481Y253685D01*
X149423Y253727D01*
X149371Y253776D01*
X149324Y253798D01*
X149282Y253828D01*
X149213Y253849D01*
X149148Y253880D01*
X149096Y253885D01*
X149046Y253901D01*
X148975Y253899D01*
X148904Y253907D01*
X148853Y253896D01*
X148801Y253894D01*
X148733Y253870D01*
X148663Y253855D01*
X148618Y253828D01*
X148570Y253810D01*
X148514Y253765D01*
X148452Y253728D01*
X148418Y253689D01*
X148378Y253656D01*
X148339Y253596D01*
X148292Y253541D01*
X148273Y253493D01*
X148245Y253449D01*
X148227Y253380D01*
X148200Y253313D01*
X148192Y253242D01*
X148184Y253211D01*
X148186Y253187D01*
X148182Y253147D01*
X148182Y248627D01*
X145073Y245518D01*
X140677Y245518D01*
X137568Y248627D01*
X137568Y253023D01*
X139027Y254481D01*
X139038Y254498D01*
X139054Y254510D01*
X139110Y254597D01*
X139170Y254681D01*
X139176Y254700D01*
X139187Y254717D01*
X139212Y254817D01*
X139242Y254916D01*
X139242Y254936D01*
X139247Y254955D01*
X139239Y255058D01*
X139236Y255162D01*
X139229Y255181D01*
X139228Y255201D01*
X139187Y255296D01*
X139152Y255393D01*
X139139Y255409D01*
X139131Y255427D01*
X139027Y255558D01*
X138490Y256094D01*
X138417Y256147D01*
X138347Y256207D01*
X138317Y256219D01*
X138291Y256238D01*
X138204Y256264D01*
X138119Y256299D01*
X138078Y256303D01*
X138056Y256310D01*
X138023Y256309D01*
X137952Y256317D01*
X133997Y256317D01*
X130888Y259426D01*
X130888Y263822D01*
X133997Y266931D01*
X134398Y266931D01*
X134468Y266942D01*
X134540Y266944D01*
X134589Y266962D01*
X134641Y266970D01*
X134704Y267004D01*
X134771Y267028D01*
X134812Y267061D01*
X134858Y267085D01*
X134907Y267137D01*
X134963Y267182D01*
X134991Y267226D01*
X135027Y267264D01*
X135057Y267329D01*
X135096Y267389D01*
X135109Y267440D01*
X135131Y267487D01*
X135139Y267558D01*
X135156Y267628D01*
X135152Y267679D01*
X135158Y267731D01*
X135143Y267801D01*
X135137Y267873D01*
X135117Y267921D01*
X135106Y267972D01*
X135069Y268033D01*
X135041Y268099D01*
X134996Y268155D01*
X134980Y268183D01*
X134962Y268198D01*
X134936Y268230D01*
X132626Y270540D01*
X132552Y270593D01*
X132482Y270653D01*
X132452Y270665D01*
X132426Y270684D01*
X132339Y270711D01*
X132254Y270745D01*
X132213Y270749D01*
X132191Y270756D01*
X132159Y270755D01*
X132087Y270763D01*
X126053Y270763D01*
X123101Y273715D01*
X123027Y273768D01*
X122957Y273828D01*
X122927Y273840D01*
X122901Y273859D01*
X122814Y273886D01*
X122729Y273920D01*
X122688Y273924D01*
X122666Y273931D01*
X122634Y273930D01*
X122562Y273938D01*
X87953Y273938D01*
X73913Y287978D01*
X73913Y290837D01*
X73899Y290928D01*
X73891Y291018D01*
X73879Y291048D01*
X73874Y291080D01*
X73831Y291161D01*
X73795Y291245D01*
X73769Y291277D01*
X73758Y291298D01*
X73735Y291320D01*
X73690Y291376D01*
X67563Y297503D01*
X67563Y324220D01*
X67552Y324291D01*
X67550Y324363D01*
X67532Y324412D01*
X67524Y324463D01*
X67490Y324527D01*
X67465Y324594D01*
X67433Y324635D01*
X67408Y324681D01*
X67356Y324730D01*
X67312Y324786D01*
X67268Y324814D01*
X67230Y324850D01*
X67165Y324880D01*
X67105Y324919D01*
X67054Y324932D01*
X67007Y324954D01*
X66936Y324962D01*
X66866Y324979D01*
X66814Y324975D01*
X66763Y324981D01*
X66692Y324965D01*
X66621Y324960D01*
X66573Y324940D01*
X66522Y324928D01*
X66461Y324892D01*
X66395Y324864D01*
X66339Y324819D01*
X66311Y324802D01*
X66296Y324784D01*
X66264Y324759D01*
X54580Y313075D01*
X54527Y313001D01*
X54467Y312931D01*
X54455Y312901D01*
X54436Y312875D01*
X54409Y312788D01*
X54375Y312703D01*
X54371Y312662D01*
X54364Y312640D01*
X54365Y312608D01*
X54357Y312536D01*
X54357Y277927D01*
X52998Y276568D01*
X52945Y276494D01*
X52886Y276425D01*
X52874Y276395D01*
X52855Y276369D01*
X52828Y276282D01*
X52794Y276197D01*
X52789Y276156D01*
X52783Y276134D01*
X52783Y276101D01*
X52775Y276030D01*
X52775Y272368D01*
X51882Y271475D01*
X36593Y271475D01*
X36573Y271472D01*
X36553Y271474D01*
X36452Y271452D01*
X36350Y271436D01*
X36332Y271426D01*
X36313Y271422D01*
X36224Y271369D01*
X36133Y271320D01*
X36119Y271306D01*
X36102Y271296D01*
X36034Y271217D01*
X35963Y271142D01*
X35955Y271124D01*
X35942Y271109D01*
X35903Y271013D01*
X35860Y270919D01*
X35857Y270899D01*
X35850Y270881D01*
X35831Y270714D01*
X35831Y267286D01*
X35835Y267266D01*
X35832Y267247D01*
X35854Y267145D01*
X35871Y267043D01*
X35880Y267026D01*
X35885Y267006D01*
X35938Y266917D01*
X35986Y266826D01*
X36001Y266812D01*
X36011Y266795D01*
X36090Y266728D01*
X36165Y266656D01*
X36183Y266648D01*
X36198Y266635D01*
X36294Y266596D01*
X36388Y266553D01*
X36407Y266551D01*
X36426Y266543D01*
X36593Y266525D01*
X51882Y266525D01*
X52619Y265788D01*
X52693Y265735D01*
X52763Y265675D01*
X52793Y265663D01*
X52819Y265644D01*
X52906Y265617D01*
X52991Y265583D01*
X53032Y265579D01*
X53054Y265572D01*
X53086Y265573D01*
X53158Y265565D01*
X83084Y265565D01*
X85688Y262961D01*
X89119Y259530D01*
X89193Y259477D01*
X89262Y259417D01*
X89292Y259405D01*
X89318Y259386D01*
X89405Y259359D01*
X89490Y259325D01*
X89531Y259321D01*
X89553Y259314D01*
X89586Y259315D01*
X89657Y259307D01*
X91098Y259307D01*
X94207Y256198D01*
X94207Y251802D01*
X91098Y248693D01*
X86702Y248693D01*
X83593Y251802D01*
X83593Y253243D01*
X83579Y253333D01*
X83571Y253424D01*
X83559Y253454D01*
X83554Y253486D01*
X83511Y253566D01*
X83475Y253650D01*
X83449Y253682D01*
X83438Y253703D01*
X83415Y253725D01*
X83370Y253781D01*
X79939Y257212D01*
X79865Y257265D01*
X79796Y257325D01*
X79766Y257337D01*
X79740Y257356D01*
X79653Y257383D01*
X79568Y257417D01*
X79527Y257421D01*
X79505Y257428D01*
X79472Y257427D01*
X79401Y257435D01*
X53158Y257435D01*
X53067Y257421D01*
X52977Y257413D01*
X52947Y257401D01*
X52915Y257396D01*
X52834Y257353D01*
X52750Y257317D01*
X52718Y257291D01*
X52697Y257280D01*
X52675Y257257D01*
X52619Y257212D01*
X51882Y256475D01*
X35619Y256475D01*
X34726Y257368D01*
X34726Y262088D01*
X34714Y262159D01*
X34713Y262231D01*
X34695Y262280D01*
X34686Y262331D01*
X34653Y262394D01*
X34628Y262462D01*
X34596Y262502D01*
X34571Y262548D01*
X34519Y262598D01*
X34474Y262654D01*
X34431Y262682D01*
X34393Y262718D01*
X34328Y262748D01*
X34267Y262787D01*
X34217Y262799D01*
X34170Y262821D01*
X34098Y262829D01*
X34029Y262847D01*
X33977Y262843D01*
X33925Y262848D01*
X33855Y262833D01*
X33784Y262828D01*
X33736Y262807D01*
X33685Y262796D01*
X33623Y262759D01*
X33557Y262731D01*
X33501Y262687D01*
X33474Y262670D01*
X33459Y262652D01*
X33426Y262627D01*
X31678Y260878D01*
X28156Y259419D01*
X24345Y259419D01*
X20824Y260878D01*
X18129Y263573D01*
X16670Y267094D01*
X16670Y270906D01*
X18129Y274427D01*
X20824Y277122D01*
X24345Y278581D01*
X28156Y278581D01*
X31678Y277122D01*
X33426Y275373D01*
X33485Y275332D01*
X33537Y275282D01*
X33584Y275260D01*
X33626Y275230D01*
X33695Y275209D01*
X33760Y275179D01*
X33811Y275173D01*
X33861Y275158D01*
X33933Y275159D01*
X34004Y275152D01*
X34055Y275163D01*
X34107Y275164D01*
X34174Y275189D01*
X34245Y275204D01*
X34289Y275230D01*
X34338Y275248D01*
X34394Y275293D01*
X34456Y275330D01*
X34490Y275370D01*
X34530Y275402D01*
X34569Y275462D01*
X34616Y275517D01*
X34635Y275565D01*
X34663Y275609D01*
X34681Y275678D01*
X34708Y275745D01*
X34715Y275816D01*
X34723Y275848D01*
X34721Y275871D01*
X34726Y275912D01*
X34726Y280632D01*
X35619Y281525D01*
X46482Y281525D01*
X46502Y281528D01*
X46521Y281526D01*
X46623Y281548D01*
X46725Y281564D01*
X46742Y281574D01*
X46762Y281578D01*
X46851Y281631D01*
X46942Y281680D01*
X46956Y281694D01*
X46973Y281704D01*
X47040Y281783D01*
X47112Y281858D01*
X47120Y281876D01*
X47133Y281891D01*
X47172Y281987D01*
X47215Y282081D01*
X47217Y282101D01*
X47225Y282119D01*
X47243Y282286D01*
X47243Y315798D01*
X81945Y350500D01*
X81998Y350574D01*
X82058Y350644D01*
X82070Y350674D01*
X82089Y350700D01*
X82116Y350787D01*
X82150Y350872D01*
X82154Y350913D01*
X82161Y350935D01*
X82160Y350967D01*
X82168Y351039D01*
X82168Y373562D01*
X82154Y373652D01*
X82146Y373743D01*
X82134Y373772D01*
X82129Y373804D01*
X82086Y373885D01*
X82050Y373969D01*
X82024Y374001D01*
X82013Y374022D01*
X81990Y374044D01*
X81945Y374100D01*
X80418Y375627D01*
X80418Y380023D01*
X83393Y382998D01*
X83435Y383056D01*
X83484Y383108D01*
X83506Y383155D01*
X83536Y383198D01*
X83558Y383266D01*
X83588Y383331D01*
X83594Y383383D01*
X83609Y383433D01*
X83607Y383504D01*
X83615Y383576D01*
X83604Y383626D01*
X83602Y383678D01*
X83578Y383746D01*
X83563Y383816D01*
X83536Y383861D01*
X83518Y383910D01*
X83473Y383966D01*
X83436Y384027D01*
X83397Y384061D01*
X83364Y384102D01*
X83304Y384140D01*
X83250Y384187D01*
X83201Y384206D01*
X83157Y384235D01*
X83088Y384252D01*
X83021Y384279D01*
X82950Y384287D01*
X82919Y384295D01*
X82896Y384293D01*
X82855Y384297D01*
X77343Y384297D01*
X77323Y384294D01*
X77304Y384296D01*
X77202Y384274D01*
X77100Y384258D01*
X77083Y384248D01*
X77063Y384244D01*
X76974Y384191D01*
X76883Y384143D01*
X76869Y384128D01*
X76852Y384118D01*
X76785Y384039D01*
X76713Y383964D01*
X76705Y383946D01*
X76692Y383931D01*
X76653Y383835D01*
X76610Y383741D01*
X76608Y383721D01*
X76600Y383703D01*
X76582Y383536D01*
X76582Y373177D01*
X52273Y348868D01*
X37587Y348868D01*
X35490Y350965D01*
X35416Y351018D01*
X35346Y351078D01*
X35316Y351090D01*
X35290Y351109D01*
X35203Y351136D01*
X35118Y351170D01*
X35077Y351174D01*
X35055Y351181D01*
X35023Y351180D01*
X34951Y351188D01*
X32126Y351188D01*
X29622Y352226D01*
X27705Y354143D01*
X26925Y356026D01*
X26896Y356072D01*
X26877Y356122D01*
X26832Y356176D01*
X26795Y356235D01*
X26754Y356270D01*
X26719Y356311D01*
X26659Y356347D01*
X26606Y356392D01*
X26555Y356411D01*
X26509Y356440D01*
X26441Y356455D01*
X26376Y356480D01*
X26322Y356483D01*
X26270Y356495D01*
X26200Y356488D01*
X26130Y356491D01*
X26078Y356476D01*
X26025Y356470D01*
X25961Y356442D01*
X25894Y356422D01*
X25850Y356391D01*
X25801Y356369D01*
X25749Y356322D01*
X25692Y356282D01*
X25660Y356239D01*
X25620Y356202D01*
X25563Y356108D01*
X25545Y356084D01*
X25542Y356074D01*
X25533Y356059D01*
X18956Y342084D01*
X18948Y342054D01*
X18921Y341995D01*
X9670Y313522D01*
X9665Y313491D01*
X9646Y313429D01*
X4036Y284022D01*
X4035Y283990D01*
X4024Y283927D01*
X2144Y254048D01*
X2147Y254017D01*
X2144Y253952D01*
X4024Y224073D01*
X4031Y224043D01*
X4036Y223978D01*
X9646Y194571D01*
X9657Y194541D01*
X9670Y194478D01*
X18921Y166005D01*
X18930Y165988D01*
X18933Y165973D01*
X18942Y165958D01*
X18956Y165916D01*
X25533Y151941D01*
X25563Y151897D01*
X25585Y151847D01*
X25632Y151796D01*
X25672Y151738D01*
X25715Y151706D01*
X25751Y151666D01*
X25813Y151633D01*
X25869Y151591D01*
X25920Y151574D01*
X25967Y151548D01*
X26036Y151535D01*
X26102Y151513D01*
X26156Y151514D01*
X26209Y151504D01*
X26278Y151514D01*
X26348Y151514D01*
X26399Y151532D01*
X26452Y151540D01*
X26515Y151571D01*
X26581Y151594D01*
X26623Y151627D01*
X26672Y151651D01*
X26721Y151701D01*
X26776Y151744D01*
X26806Y151788D01*
X26844Y151827D01*
X26897Y151924D01*
X26913Y151948D01*
X26916Y151958D01*
X26925Y151974D01*
X27705Y153857D01*
X29622Y155774D01*
X32126Y156812D01*
X34838Y156812D01*
X37342Y155774D01*
X39340Y153777D01*
X39414Y153724D01*
X39483Y153664D01*
X39513Y153652D01*
X39540Y153633D01*
X39627Y153606D01*
X39711Y153572D01*
X39752Y153568D01*
X39775Y153561D01*
X39807Y153562D01*
X39878Y153554D01*
X54676Y153554D01*
X64750Y143480D01*
X64824Y143427D01*
X64894Y143367D01*
X64924Y143355D01*
X64950Y143336D01*
X65037Y143309D01*
X65122Y143275D01*
X65163Y143271D01*
X65185Y143264D01*
X65217Y143265D01*
X65289Y143257D01*
X66957Y143257D01*
X66977Y143260D01*
X66996Y143258D01*
X67098Y143280D01*
X67200Y143296D01*
X67217Y143306D01*
X67237Y143310D01*
X67326Y143363D01*
X67417Y143412D01*
X67431Y143426D01*
X67448Y143436D01*
X67515Y143515D01*
X67587Y143590D01*
X67595Y143608D01*
X67608Y143623D01*
X67647Y143719D01*
X67690Y143813D01*
X67692Y143833D01*
X67700Y143851D01*
X67718Y144018D01*
X67718Y145073D01*
X70827Y148182D01*
X71928Y148182D01*
X71999Y148193D01*
X72071Y148195D01*
X72120Y148213D01*
X72171Y148221D01*
X72234Y148255D01*
X72302Y148280D01*
X72342Y148312D01*
X72388Y148337D01*
X72438Y148389D01*
X72494Y148433D01*
X72522Y148477D01*
X72558Y148515D01*
X72588Y148580D01*
X72627Y148640D01*
X72640Y148691D01*
X72661Y148738D01*
X72669Y148809D01*
X72687Y148879D01*
X72683Y148931D01*
X72689Y148982D01*
X72673Y149053D01*
X72668Y149124D01*
X72647Y149172D01*
X72636Y149223D01*
X72599Y149284D01*
X72571Y149350D01*
X72527Y149406D01*
X72510Y149434D01*
X72492Y149449D01*
X72467Y149481D01*
X72301Y149647D01*
X70738Y151210D01*
X70738Y236862D01*
X70724Y236953D01*
X70716Y237043D01*
X70704Y237073D01*
X70699Y237105D01*
X70656Y237186D01*
X70620Y237270D01*
X70594Y237302D01*
X70583Y237323D01*
X70560Y237345D01*
X70515Y237401D01*
X68971Y238945D01*
X68897Y238998D01*
X68827Y239058D01*
X68797Y239070D01*
X68771Y239089D01*
X68684Y239116D01*
X68599Y239150D01*
X68558Y239154D01*
X68536Y239161D01*
X68504Y239160D01*
X68432Y239168D01*
X64477Y239168D01*
X61368Y242277D01*
X61368Y246673D01*
X64477Y249782D01*
X68873Y249782D01*
X71982Y246673D01*
X71982Y242718D01*
X71996Y242627D01*
X72004Y242537D01*
X72016Y242507D01*
X72021Y242475D01*
X72064Y242394D01*
X72100Y242310D01*
X72126Y242278D01*
X72137Y242257D01*
X72160Y242235D01*
X72205Y242179D01*
X75312Y239072D01*
X75312Y153419D01*
X75326Y153329D01*
X75334Y153238D01*
X75346Y153208D01*
X75351Y153177D01*
X75394Y153096D01*
X75430Y153012D01*
X75456Y152980D01*
X75467Y152959D01*
X75490Y152937D01*
X75535Y152881D01*
X79119Y149297D01*
X79177Y149255D01*
X79229Y149206D01*
X79276Y149184D01*
X79318Y149153D01*
X79387Y149132D01*
X79452Y149102D01*
X79504Y149096D01*
X79554Y149081D01*
X79625Y149083D01*
X79696Y149075D01*
X79747Y149086D01*
X79799Y149087D01*
X79867Y149112D01*
X79937Y149127D01*
X79982Y149154D01*
X80030Y149172D01*
X80086Y149217D01*
X80148Y149253D01*
X80182Y149293D01*
X80222Y149326D01*
X80261Y149386D01*
X80308Y149440D01*
X80327Y149489D01*
X80355Y149532D01*
X80373Y149602D01*
X80400Y149668D01*
X80408Y149740D01*
X80416Y149771D01*
X80414Y149794D01*
X80418Y149835D01*
X80418Y151423D01*
X83527Y154532D01*
X87923Y154532D01*
X89450Y153005D01*
X89524Y152952D01*
X89594Y152892D01*
X89624Y152880D01*
X89650Y152861D01*
X89737Y152834D01*
X89822Y152800D01*
X89863Y152796D01*
X89885Y152789D01*
X89917Y152790D01*
X89988Y152782D01*
X106248Y152782D01*
X112375Y146655D01*
X112449Y146602D01*
X112519Y146542D01*
X112549Y146530D01*
X112575Y146511D01*
X112662Y146484D01*
X112747Y146450D01*
X112788Y146446D01*
X112810Y146439D01*
X112842Y146440D01*
X112914Y146432D01*
X127414Y146432D01*
X127434Y146435D01*
X127453Y146433D01*
X127552Y146454D01*
X127595Y146457D01*
X127610Y146464D01*
X127657Y146471D01*
X127674Y146481D01*
X127694Y146485D01*
X127778Y146535D01*
X127821Y146554D01*
X127839Y146568D01*
X127874Y146587D01*
X127888Y146601D01*
X127905Y146611D01*
X127931Y146641D01*
X127952Y146659D01*
X129068Y147775D01*
X150332Y147775D01*
X151225Y146882D01*
X151225Y139118D01*
X150332Y138225D01*
X129068Y138225D01*
X128198Y139095D01*
X128124Y139148D01*
X128055Y139208D01*
X128025Y139220D01*
X127999Y139239D01*
X127912Y139266D01*
X127827Y139300D01*
X127786Y139304D01*
X127764Y139311D01*
X127731Y139310D01*
X127660Y139318D01*
X109652Y139318D01*
X103525Y145445D01*
X103451Y145498D01*
X103381Y145558D01*
X103351Y145570D01*
X103325Y145589D01*
X103238Y145616D01*
X103153Y145650D01*
X103112Y145654D01*
X103090Y145661D01*
X103058Y145660D01*
X102986Y145668D01*
X89988Y145668D01*
X89898Y145654D01*
X89807Y145646D01*
X89778Y145634D01*
X89746Y145629D01*
X89665Y145586D01*
X89581Y145550D01*
X89549Y145524D01*
X89528Y145513D01*
X89506Y145490D01*
X89450Y145445D01*
X87923Y143918D01*
X86335Y143918D01*
X86264Y143907D01*
X86193Y143905D01*
X86144Y143887D01*
X86092Y143879D01*
X86029Y143845D01*
X85962Y143820D01*
X85921Y143788D01*
X85875Y143763D01*
X85826Y143712D01*
X85770Y143667D01*
X85742Y143623D01*
X85706Y143585D01*
X85675Y143520D01*
X85637Y143460D01*
X85624Y143409D01*
X85602Y143362D01*
X85594Y143291D01*
X85577Y143221D01*
X85581Y143169D01*
X85575Y143118D01*
X85590Y143047D01*
X85596Y142976D01*
X85616Y142928D01*
X85627Y142877D01*
X85664Y142816D01*
X85692Y142750D01*
X85737Y142694D01*
X85753Y142666D01*
X85771Y142651D01*
X85797Y142619D01*
X85980Y142436D01*
X85980Y123944D01*
X85995Y123854D01*
X86002Y123763D01*
X86014Y123734D01*
X86020Y123702D01*
X86062Y123621D01*
X86098Y123537D01*
X86124Y123505D01*
X86135Y123484D01*
X86158Y123462D01*
X86203Y123406D01*
X102324Y107285D01*
X102398Y107232D01*
X102468Y107172D01*
X102498Y107160D01*
X102524Y107141D01*
X102611Y107114D01*
X102696Y107080D01*
X102737Y107076D01*
X102759Y107069D01*
X102791Y107070D01*
X102863Y107062D01*
X140647Y107062D01*
X146076Y101633D01*
X146134Y101591D01*
X146186Y101542D01*
X146233Y101520D01*
X146275Y101490D01*
X146344Y101469D01*
X146409Y101438D01*
X146461Y101433D01*
X146511Y101417D01*
X146582Y101419D01*
X146653Y101411D01*
X146704Y101422D01*
X146756Y101424D01*
X146824Y101448D01*
X146894Y101463D01*
X146939Y101490D01*
X146987Y101508D01*
X147043Y101553D01*
X147105Y101590D01*
X147139Y101629D01*
X147179Y101662D01*
X147218Y101722D01*
X147265Y101777D01*
X147284Y101825D01*
X147312Y101869D01*
X147330Y101938D01*
X147357Y102005D01*
X147365Y102076D01*
X147373Y102107D01*
X147371Y102131D01*
X147375Y102171D01*
X147375Y102573D01*
X150484Y105681D01*
X154880Y105681D01*
X157989Y102573D01*
X157989Y98617D01*
X158003Y98527D01*
X158011Y98436D01*
X158023Y98406D01*
X158028Y98374D01*
X158071Y98294D01*
X158107Y98210D01*
X158133Y98178D01*
X158144Y98157D01*
X158167Y98135D01*
X158212Y98079D01*
X168183Y88108D01*
X168257Y88055D01*
X168326Y87995D01*
X168356Y87983D01*
X168382Y87964D01*
X168469Y87937D01*
X168554Y87903D01*
X168595Y87899D01*
X168618Y87892D01*
X168650Y87893D01*
X168721Y87885D01*
X227210Y87885D01*
X227301Y87899D01*
X227391Y87907D01*
X227421Y87919D01*
X227453Y87924D01*
X227534Y87967D01*
X227618Y88003D01*
X227650Y88029D01*
X227671Y88040D01*
X227693Y88063D01*
X227749Y88108D01*
X234003Y94362D01*
X251772Y94362D01*
X259037Y87097D01*
X259111Y87044D01*
X259181Y86984D01*
X259211Y86972D01*
X259237Y86953D01*
X259324Y86926D01*
X259409Y86892D01*
X259450Y86888D01*
X259472Y86881D01*
X259504Y86882D01*
X259576Y86874D01*
X281310Y86874D01*
X281400Y86888D01*
G37*
G36*
X341728Y46751D02*
X341728Y46751D01*
X341818Y46759D01*
X341848Y46771D01*
X341880Y46776D01*
X341961Y46819D01*
X342045Y46855D01*
X342077Y46881D01*
X342098Y46892D01*
X342120Y46915D01*
X342176Y46960D01*
X361312Y66096D01*
X361365Y66170D01*
X361424Y66239D01*
X361436Y66269D01*
X361455Y66295D01*
X361482Y66382D01*
X361516Y66467D01*
X361521Y66508D01*
X361528Y66530D01*
X361527Y66563D01*
X361535Y66634D01*
X361535Y68114D01*
X361528Y68158D01*
X361530Y68201D01*
X361508Y68278D01*
X361495Y68357D01*
X361474Y68396D01*
X361462Y68438D01*
X361417Y68504D01*
X361380Y68574D01*
X361348Y68605D01*
X361323Y68641D01*
X361259Y68689D01*
X361201Y68744D01*
X361162Y68762D01*
X361127Y68789D01*
X360991Y68842D01*
X360978Y68847D01*
X360975Y68848D01*
X360970Y68850D01*
X360270Y69037D01*
X357785Y70944D01*
X356219Y73657D01*
X355810Y76763D01*
X356620Y79789D01*
X358527Y82275D01*
X361241Y83841D01*
X364347Y84250D01*
X367373Y83439D01*
X369858Y81532D01*
X371424Y78819D01*
X371833Y75713D01*
X371022Y72687D01*
X369115Y70202D01*
X366489Y68685D01*
X366459Y68661D01*
X366454Y68658D01*
X366447Y68651D01*
X366437Y68642D01*
X366378Y68608D01*
X366342Y68565D01*
X366298Y68529D01*
X366263Y68472D01*
X366219Y68421D01*
X366198Y68369D01*
X366168Y68321D01*
X366152Y68255D01*
X366127Y68193D01*
X366118Y68114D01*
X366110Y68082D01*
X366112Y68061D01*
X366108Y68026D01*
X366108Y64424D01*
X349720Y48036D01*
X349678Y47978D01*
X349629Y47926D01*
X349607Y47879D01*
X349577Y47837D01*
X349556Y47768D01*
X349525Y47703D01*
X349520Y47651D01*
X349504Y47601D01*
X349506Y47530D01*
X349498Y47459D01*
X349509Y47408D01*
X349511Y47356D01*
X349535Y47288D01*
X349550Y47218D01*
X349577Y47173D01*
X349595Y47125D01*
X349640Y47069D01*
X349677Y47007D01*
X349716Y46973D01*
X349749Y46933D01*
X349809Y46894D01*
X349864Y46847D01*
X349912Y46828D01*
X349956Y46800D01*
X350025Y46782D01*
X350092Y46755D01*
X350163Y46747D01*
X350194Y46739D01*
X350218Y46741D01*
X350258Y46737D01*
X353189Y46737D01*
X353270Y46750D01*
X353352Y46754D01*
X353404Y46772D01*
X353432Y46776D01*
X353457Y46790D01*
X353511Y46808D01*
X353837Y46960D01*
X353877Y46988D01*
X353922Y47007D01*
X354020Y47085D01*
X354040Y47099D01*
X354044Y47104D01*
X354053Y47112D01*
X371166Y64224D01*
X372728Y65787D01*
X376562Y65787D01*
X376653Y65801D01*
X376743Y65809D01*
X376773Y65821D01*
X376805Y65826D01*
X376886Y65869D01*
X376970Y65905D01*
X377002Y65931D01*
X377023Y65942D01*
X377045Y65965D01*
X377101Y66010D01*
X391190Y80099D01*
X391243Y80173D01*
X391303Y80243D01*
X391315Y80273D01*
X391334Y80299D01*
X391361Y80386D01*
X391395Y80471D01*
X391399Y80512D01*
X391406Y80534D01*
X391405Y80566D01*
X391413Y80638D01*
X391413Y101473D01*
X391399Y101563D01*
X391391Y101654D01*
X391379Y101684D01*
X391374Y101716D01*
X391331Y101796D01*
X391295Y101880D01*
X391269Y101912D01*
X391258Y101933D01*
X391235Y101955D01*
X391190Y102011D01*
X383905Y109296D01*
X383847Y109338D01*
X383795Y109387D01*
X383748Y109409D01*
X383706Y109440D01*
X383637Y109461D01*
X383572Y109491D01*
X383520Y109497D01*
X383471Y109512D01*
X383399Y109510D01*
X383328Y109518D01*
X383277Y109507D01*
X383225Y109506D01*
X383157Y109481D01*
X383087Y109466D01*
X383043Y109439D01*
X382994Y109421D01*
X382938Y109376D01*
X382876Y109340D01*
X382842Y109300D01*
X382802Y109268D01*
X382763Y109207D01*
X382716Y109153D01*
X382697Y109104D01*
X382669Y109061D01*
X382651Y108991D01*
X382624Y108925D01*
X382616Y108853D01*
X382609Y108822D01*
X382610Y108799D01*
X382606Y108758D01*
X382606Y93887D01*
X382613Y93844D01*
X382611Y93800D01*
X382633Y93723D01*
X382646Y93644D01*
X382666Y93606D01*
X382678Y93563D01*
X382723Y93497D01*
X382761Y93427D01*
X382792Y93397D01*
X382817Y93361D01*
X382881Y93313D01*
X382939Y93258D01*
X382979Y93239D01*
X383014Y93213D01*
X383150Y93160D01*
X383162Y93154D01*
X383166Y93154D01*
X383170Y93152D01*
X383870Y92964D01*
X386356Y91057D01*
X387922Y88344D01*
X388331Y85238D01*
X387520Y82212D01*
X385613Y79727D01*
X382900Y78160D01*
X379794Y77751D01*
X376768Y78562D01*
X374283Y80469D01*
X372716Y83182D01*
X372307Y86288D01*
X373118Y89314D01*
X375025Y91800D01*
X377652Y93316D01*
X377704Y93359D01*
X377762Y93394D01*
X377799Y93436D01*
X377842Y93472D01*
X377878Y93529D01*
X377922Y93580D01*
X377943Y93633D01*
X377973Y93680D01*
X377989Y93746D01*
X378014Y93809D01*
X378023Y93887D01*
X378030Y93919D01*
X378029Y93940D01*
X378032Y93975D01*
X378032Y95103D01*
X378025Y95150D01*
X378027Y95197D01*
X378005Y95270D01*
X377993Y95346D01*
X377971Y95388D01*
X377958Y95433D01*
X377914Y95496D01*
X377878Y95563D01*
X377844Y95596D01*
X377817Y95634D01*
X377755Y95680D01*
X377699Y95733D01*
X377657Y95753D01*
X377619Y95780D01*
X377546Y95804D01*
X377476Y95836D01*
X377430Y95842D01*
X377385Y95856D01*
X377308Y95855D01*
X377232Y95864D01*
X377186Y95854D01*
X377139Y95853D01*
X377066Y95828D01*
X376991Y95811D01*
X376951Y95787D01*
X376907Y95772D01*
X376798Y95696D01*
X376780Y95685D01*
X376777Y95681D01*
X376769Y95676D01*
X376494Y95434D01*
X372494Y102363D01*
X372482Y102378D01*
X372474Y102396D01*
X372404Y102473D01*
X372339Y102553D01*
X372322Y102563D01*
X372308Y102578D01*
X372218Y102629D01*
X372130Y102684D01*
X372111Y102688D01*
X372093Y102698D01*
X371992Y102717D01*
X371891Y102741D01*
X371871Y102739D01*
X371852Y102743D01*
X371749Y102728D01*
X371646Y102719D01*
X371628Y102711D01*
X371608Y102709D01*
X371454Y102641D01*
X370794Y102260D01*
X370793Y102261D01*
X371454Y102643D01*
X371469Y102655D01*
X371487Y102663D01*
X371564Y102733D01*
X371644Y102798D01*
X371654Y102815D01*
X371669Y102829D01*
X371720Y102919D01*
X371775Y103007D01*
X371779Y103026D01*
X371789Y103043D01*
X371808Y103145D01*
X371832Y103246D01*
X371830Y103266D01*
X371834Y103285D01*
X371820Y103388D01*
X371810Y103491D01*
X371802Y103509D01*
X371800Y103529D01*
X371732Y103682D01*
X367732Y110611D01*
X368059Y110721D01*
X368059Y110722D01*
X368765Y110961D01*
X370502Y111190D01*
X372249Y111075D01*
X373941Y110622D01*
X375512Y109847D01*
X376808Y108853D01*
X376827Y108843D01*
X376843Y108827D01*
X376935Y108785D01*
X377025Y108737D01*
X377046Y108733D01*
X377066Y108724D01*
X377167Y108713D01*
X377267Y108696D01*
X377289Y108699D01*
X377311Y108697D01*
X377410Y108718D01*
X377510Y108734D01*
X377529Y108744D01*
X377551Y108749D01*
X377638Y108801D01*
X377728Y108848D01*
X377743Y108864D01*
X377762Y108875D01*
X377828Y108952D01*
X377898Y109025D01*
X377908Y109045D01*
X377922Y109062D01*
X377960Y109156D01*
X378003Y109248D01*
X378006Y109270D01*
X378014Y109290D01*
X378032Y109457D01*
X378032Y110543D01*
X378018Y110633D01*
X378011Y110724D01*
X377998Y110754D01*
X377993Y110786D01*
X377950Y110867D01*
X377914Y110951D01*
X377889Y110983D01*
X377878Y111003D01*
X377854Y111026D01*
X377809Y111082D01*
X367576Y121315D01*
X367502Y121368D01*
X367432Y121428D01*
X367402Y121440D01*
X367376Y121459D01*
X367289Y121486D01*
X367204Y121520D01*
X367163Y121524D01*
X367141Y121531D01*
X367109Y121530D01*
X367037Y121538D01*
X338778Y121538D01*
X338420Y121897D01*
X338346Y121950D01*
X338276Y122009D01*
X338246Y122021D01*
X338220Y122040D01*
X338133Y122067D01*
X338048Y122101D01*
X338007Y122106D01*
X337985Y122112D01*
X337953Y122112D01*
X337881Y122120D01*
X333926Y122120D01*
X330817Y125228D01*
X330817Y129624D01*
X333926Y132733D01*
X338322Y132733D01*
X341430Y129624D01*
X341430Y126873D01*
X341434Y126853D01*
X341432Y126834D01*
X341454Y126732D01*
X341470Y126630D01*
X341480Y126613D01*
X341484Y126593D01*
X341537Y126504D01*
X341585Y126413D01*
X341600Y126399D01*
X341610Y126382D01*
X341689Y126315D01*
X341764Y126243D01*
X341782Y126235D01*
X341797Y126222D01*
X341893Y126183D01*
X341987Y126140D01*
X342006Y126138D01*
X342025Y126130D01*
X342192Y126112D01*
X369247Y126112D01*
X370810Y124549D01*
X374807Y120552D01*
X374865Y120511D01*
X374917Y120461D01*
X374964Y120439D01*
X375006Y120409D01*
X375075Y120388D01*
X375140Y120358D01*
X375192Y120352D01*
X375241Y120336D01*
X375313Y120338D01*
X375384Y120330D01*
X375435Y120342D01*
X375487Y120343D01*
X375555Y120367D01*
X375625Y120383D01*
X375669Y120409D01*
X375718Y120427D01*
X375774Y120472D01*
X375836Y120509D01*
X375870Y120548D01*
X375910Y120581D01*
X375949Y120641D01*
X375996Y120696D01*
X376015Y120744D01*
X376043Y120788D01*
X376061Y120857D01*
X376088Y120924D01*
X376095Y120995D01*
X376103Y121026D01*
X376102Y121050D01*
X376106Y121091D01*
X376106Y155226D01*
X376103Y155246D01*
X376105Y155265D01*
X376083Y155367D01*
X376066Y155469D01*
X376057Y155486D01*
X376053Y155506D01*
X376000Y155595D01*
X375951Y155686D01*
X375937Y155700D01*
X375927Y155717D01*
X375848Y155784D01*
X375773Y155855D01*
X375755Y155864D01*
X375740Y155877D01*
X375643Y155916D01*
X375550Y155959D01*
X375530Y155961D01*
X375512Y155969D01*
X375345Y155987D01*
X374996Y155987D01*
X371887Y159096D01*
X371887Y163492D01*
X374996Y166601D01*
X375397Y166601D01*
X375468Y166612D01*
X375539Y166614D01*
X375588Y166632D01*
X375640Y166640D01*
X375703Y166674D01*
X375770Y166699D01*
X375811Y166731D01*
X375857Y166755D01*
X375906Y166807D01*
X375962Y166852D01*
X375991Y166896D01*
X376027Y166934D01*
X376057Y166999D01*
X376095Y167059D01*
X376108Y167110D01*
X376130Y167157D01*
X376138Y167228D01*
X376156Y167298D01*
X376151Y167350D01*
X376157Y167401D01*
X376142Y167472D01*
X376136Y167543D01*
X376116Y167591D01*
X376105Y167642D01*
X376068Y167703D01*
X376040Y167769D01*
X375995Y167825D01*
X375979Y167853D01*
X375961Y167868D01*
X375935Y167900D01*
X366681Y177154D01*
X366607Y177207D01*
X366538Y177267D01*
X366508Y177279D01*
X366482Y177298D01*
X366395Y177324D01*
X366310Y177359D01*
X366269Y177363D01*
X366247Y177370D01*
X366214Y177369D01*
X366143Y177377D01*
X364308Y177377D01*
X364218Y177362D01*
X364127Y177355D01*
X364098Y177343D01*
X364066Y177337D01*
X363985Y177295D01*
X363901Y177259D01*
X363869Y177233D01*
X363848Y177222D01*
X363826Y177199D01*
X363770Y177154D01*
X360973Y174357D01*
X356577Y174357D01*
X353468Y177466D01*
X353468Y181862D01*
X356577Y184971D01*
X360973Y184971D01*
X363770Y182174D01*
X363844Y182120D01*
X363914Y182061D01*
X363944Y182049D01*
X363970Y182030D01*
X364057Y182003D01*
X364142Y181969D01*
X364183Y181964D01*
X364205Y181958D01*
X364237Y181958D01*
X364308Y181951D01*
X368353Y181951D01*
X369915Y180388D01*
X383932Y166372D01*
X383990Y166330D01*
X384042Y166280D01*
X384089Y166258D01*
X384131Y166228D01*
X384200Y166207D01*
X384265Y166177D01*
X384317Y166171D01*
X384367Y166156D01*
X384438Y166158D01*
X384509Y166150D01*
X384560Y166161D01*
X384612Y166162D01*
X384680Y166187D01*
X384750Y166202D01*
X384795Y166229D01*
X384843Y166246D01*
X384899Y166291D01*
X384961Y166328D01*
X384995Y166368D01*
X385035Y166400D01*
X385074Y166460D01*
X385121Y166515D01*
X385140Y166563D01*
X385168Y166607D01*
X385186Y166677D01*
X385213Y166743D01*
X385221Y166814D01*
X385229Y166846D01*
X385227Y166869D01*
X385231Y166910D01*
X385231Y167311D01*
X388028Y170108D01*
X388081Y170182D01*
X388141Y170252D01*
X388153Y170282D01*
X388172Y170308D01*
X388199Y170395D01*
X388233Y170480D01*
X388237Y170521D01*
X388244Y170543D01*
X388243Y170575D01*
X388251Y170646D01*
X388251Y182874D01*
X388238Y182954D01*
X388238Y211462D01*
X388224Y211553D01*
X388216Y211643D01*
X388204Y211673D01*
X388199Y211705D01*
X388156Y211786D01*
X388120Y211870D01*
X388094Y211902D01*
X388083Y211923D01*
X388060Y211945D01*
X388015Y212001D01*
X370751Y229265D01*
X370677Y229318D01*
X370607Y229378D01*
X370577Y229390D01*
X370551Y229409D01*
X370464Y229436D01*
X370379Y229470D01*
X370338Y229474D01*
X370316Y229481D01*
X370284Y229480D01*
X370212Y229488D01*
X342083Y229488D01*
X341993Y229474D01*
X341902Y229466D01*
X341873Y229454D01*
X341841Y229449D01*
X341760Y229406D01*
X341676Y229370D01*
X341644Y229344D01*
X341623Y229333D01*
X341601Y229310D01*
X341545Y229265D01*
X338748Y226468D01*
X334352Y226468D01*
X331243Y229577D01*
X331243Y230922D01*
X331232Y230992D01*
X331230Y231064D01*
X331212Y231113D01*
X331204Y231164D01*
X331170Y231228D01*
X331145Y231295D01*
X331113Y231336D01*
X331088Y231382D01*
X331037Y231431D01*
X330992Y231487D01*
X330948Y231515D01*
X330910Y231551D01*
X330845Y231581D01*
X330785Y231620D01*
X330734Y231633D01*
X330687Y231655D01*
X330616Y231663D01*
X330546Y231680D01*
X330494Y231676D01*
X330443Y231682D01*
X330372Y231667D01*
X330301Y231661D01*
X330253Y231641D01*
X330202Y231630D01*
X330141Y231593D01*
X330075Y231565D01*
X330019Y231520D01*
X329991Y231503D01*
X329976Y231486D01*
X329944Y231460D01*
X329535Y231051D01*
X327972Y229488D01*
X309238Y229488D01*
X309147Y229474D01*
X309057Y229466D01*
X309027Y229454D01*
X308995Y229449D01*
X308914Y229406D01*
X308830Y229370D01*
X308798Y229344D01*
X308777Y229333D01*
X308755Y229310D01*
X308699Y229265D01*
X294408Y214975D01*
X294397Y214958D01*
X294381Y214946D01*
X294325Y214859D01*
X294265Y214775D01*
X294259Y214756D01*
X294248Y214739D01*
X294223Y214638D01*
X294193Y214540D01*
X294193Y214520D01*
X294188Y214500D01*
X294196Y214397D01*
X294199Y214294D01*
X294206Y214275D01*
X294207Y214255D01*
X294232Y214198D01*
X294232Y210119D01*
X294246Y210029D01*
X294254Y209938D01*
X294266Y209908D01*
X294271Y209876D01*
X294314Y209796D01*
X294350Y209712D01*
X294376Y209680D01*
X294387Y209659D01*
X294410Y209637D01*
X294455Y209581D01*
X305235Y198800D01*
X305294Y198758D01*
X305346Y198709D01*
X305393Y198687D01*
X305435Y198657D01*
X305504Y198636D01*
X305569Y198605D01*
X305620Y198600D01*
X305670Y198584D01*
X305742Y198586D01*
X305813Y198578D01*
X305864Y198589D01*
X305916Y198591D01*
X305983Y198615D01*
X306053Y198631D01*
X306098Y198657D01*
X306147Y198675D01*
X306203Y198720D01*
X306265Y198757D01*
X306298Y198796D01*
X306339Y198829D01*
X306378Y198889D01*
X306424Y198944D01*
X306444Y198992D01*
X306472Y199036D01*
X306490Y199105D01*
X306516Y199172D01*
X306524Y199243D01*
X306532Y199274D01*
X306530Y199298D01*
X306535Y199339D01*
X306535Y199740D01*
X309643Y202848D01*
X313599Y202848D01*
X313689Y202863D01*
X313780Y202870D01*
X313810Y202883D01*
X313842Y202888D01*
X313922Y202931D01*
X314006Y202966D01*
X314038Y202992D01*
X314059Y203003D01*
X314081Y203026D01*
X314137Y203071D01*
X316603Y205537D01*
X347989Y205537D01*
X348009Y205540D01*
X348028Y205538D01*
X348130Y205560D01*
X348232Y205576D01*
X348249Y205586D01*
X348269Y205590D01*
X348358Y205643D01*
X348449Y205692D01*
X348463Y205706D01*
X348480Y205716D01*
X348547Y205795D01*
X348619Y205870D01*
X348627Y205888D01*
X348640Y205903D01*
X348679Y205999D01*
X348722Y206093D01*
X348724Y206113D01*
X348732Y206131D01*
X348750Y206298D01*
X348750Y208882D01*
X349643Y209775D01*
X367907Y209775D01*
X368800Y208882D01*
X368800Y197618D01*
X367907Y196725D01*
X349643Y196725D01*
X348750Y197618D01*
X348750Y200202D01*
X348747Y200222D01*
X348749Y200241D01*
X348727Y200343D01*
X348711Y200445D01*
X348701Y200462D01*
X348697Y200482D01*
X348644Y200571D01*
X348595Y200662D01*
X348581Y200676D01*
X348571Y200693D01*
X348492Y200760D01*
X348417Y200832D01*
X348399Y200840D01*
X348384Y200853D01*
X348288Y200892D01*
X348194Y200935D01*
X348174Y200937D01*
X348156Y200945D01*
X347989Y200963D01*
X318813Y200963D01*
X318722Y200949D01*
X318632Y200941D01*
X318602Y200929D01*
X318570Y200924D01*
X318489Y200881D01*
X318405Y200845D01*
X318373Y200819D01*
X318352Y200808D01*
X318330Y200785D01*
X318274Y200740D01*
X317371Y199837D01*
X317318Y199763D01*
X317259Y199694D01*
X317247Y199664D01*
X317228Y199638D01*
X317201Y199551D01*
X317167Y199466D01*
X317162Y199425D01*
X317155Y199403D01*
X317156Y199370D01*
X317148Y199299D01*
X317148Y195343D01*
X314040Y192235D01*
X311023Y192235D01*
X311003Y192232D01*
X310984Y192234D01*
X310882Y192212D01*
X310780Y192195D01*
X310763Y192186D01*
X310743Y192182D01*
X310654Y192128D01*
X310563Y192080D01*
X310549Y192066D01*
X310532Y192055D01*
X310465Y191977D01*
X310393Y191902D01*
X310385Y191884D01*
X310372Y191868D01*
X310333Y191772D01*
X310290Y191679D01*
X310288Y191659D01*
X310280Y191640D01*
X310262Y191474D01*
X310262Y183203D01*
X307310Y180251D01*
X307257Y180177D01*
X307197Y180107D01*
X307185Y180077D01*
X307166Y180051D01*
X307139Y179964D01*
X307105Y179879D01*
X307101Y179838D01*
X307094Y179816D01*
X307095Y179784D01*
X307087Y179712D01*
X307087Y167458D01*
X307101Y167368D01*
X307109Y167277D01*
X307121Y167248D01*
X307126Y167216D01*
X307169Y167135D01*
X307205Y167051D01*
X307231Y167019D01*
X307242Y166998D01*
X307265Y166976D01*
X307310Y166920D01*
X310107Y164123D01*
X310107Y159727D01*
X306998Y156618D01*
X302602Y156618D01*
X299493Y159727D01*
X299493Y164247D01*
X299482Y164317D01*
X299480Y164389D01*
X299462Y164438D01*
X299454Y164489D01*
X299420Y164553D01*
X299395Y164620D01*
X299363Y164661D01*
X299338Y164707D01*
X299286Y164756D01*
X299242Y164812D01*
X299198Y164840D01*
X299160Y164876D01*
X299095Y164906D01*
X299035Y164945D01*
X298984Y164958D01*
X298937Y164980D01*
X298866Y164988D01*
X298796Y165005D01*
X298744Y165001D01*
X298693Y165007D01*
X298622Y164992D01*
X298551Y164986D01*
X298503Y164966D01*
X298452Y164955D01*
X298391Y164918D01*
X298325Y164890D01*
X298269Y164845D01*
X298241Y164828D01*
X298226Y164811D01*
X298194Y164785D01*
X294610Y161201D01*
X294557Y161127D01*
X294497Y161057D01*
X294485Y161027D01*
X294466Y161001D01*
X294439Y160914D01*
X294405Y160829D01*
X294401Y160788D01*
X294394Y160766D01*
X294395Y160734D01*
X294387Y160662D01*
X294387Y125088D01*
X294401Y124997D01*
X294409Y124907D01*
X294421Y124877D01*
X294426Y124845D01*
X294469Y124764D01*
X294505Y124680D01*
X294531Y124648D01*
X294542Y124627D01*
X294565Y124605D01*
X294610Y124549D01*
X302349Y116810D01*
X302423Y116757D01*
X302493Y116697D01*
X302523Y116685D01*
X302549Y116666D01*
X302636Y116639D01*
X302721Y116605D01*
X302762Y116601D01*
X302784Y116594D01*
X302816Y116595D01*
X302888Y116587D01*
X311368Y116587D01*
X311439Y116598D01*
X311511Y116600D01*
X311560Y116618D01*
X311611Y116626D01*
X311674Y116660D01*
X311742Y116685D01*
X311782Y116717D01*
X311828Y116742D01*
X311878Y116794D01*
X311934Y116838D01*
X311962Y116882D01*
X311998Y116920D01*
X312028Y116985D01*
X312067Y117045D01*
X312079Y117096D01*
X312101Y117143D01*
X312109Y117214D01*
X312127Y117284D01*
X312123Y117336D01*
X312128Y117387D01*
X312113Y117458D01*
X312108Y117529D01*
X312087Y117577D01*
X312076Y117628D01*
X312039Y117689D01*
X312011Y117755D01*
X311966Y117811D01*
X311950Y117839D01*
X311932Y117854D01*
X311906Y117886D01*
X308736Y121056D01*
X308736Y125453D01*
X311533Y128250D01*
X311586Y128324D01*
X311646Y128393D01*
X311658Y128423D01*
X311677Y128449D01*
X311704Y128536D01*
X311738Y128621D01*
X311742Y128662D01*
X311749Y128684D01*
X311748Y128717D01*
X311756Y128788D01*
X311756Y143540D01*
X319728Y151512D01*
X350067Y151512D01*
X350157Y151526D01*
X350248Y151534D01*
X350277Y151546D01*
X350309Y151551D01*
X350390Y151594D01*
X350474Y151630D01*
X350506Y151656D01*
X350527Y151667D01*
X350549Y151690D01*
X350605Y151735D01*
X353402Y154532D01*
X357798Y154532D01*
X360907Y151423D01*
X360907Y147027D01*
X357798Y143918D01*
X353402Y143918D01*
X350605Y146715D01*
X350531Y146768D01*
X350461Y146828D01*
X350431Y146840D01*
X350405Y146859D01*
X350318Y146886D01*
X350233Y146920D01*
X350192Y146924D01*
X350170Y146931D01*
X350138Y146930D01*
X350067Y146938D01*
X321938Y146938D01*
X321847Y146924D01*
X321757Y146916D01*
X321727Y146904D01*
X321695Y146899D01*
X321614Y146856D01*
X321530Y146820D01*
X321498Y146794D01*
X321477Y146783D01*
X321455Y146760D01*
X321399Y146715D01*
X316553Y141869D01*
X316500Y141795D01*
X316440Y141725D01*
X316428Y141695D01*
X316409Y141669D01*
X316382Y141582D01*
X316348Y141497D01*
X316344Y141456D01*
X316337Y141434D01*
X316338Y141402D01*
X316330Y141330D01*
X316330Y128788D01*
X316344Y128698D01*
X316352Y128607D01*
X316364Y128577D01*
X316369Y128545D01*
X316412Y128465D01*
X316448Y128381D01*
X316474Y128349D01*
X316485Y128328D01*
X316508Y128306D01*
X316553Y128250D01*
X319350Y125453D01*
X319350Y121056D01*
X316180Y117886D01*
X316138Y117828D01*
X316088Y117776D01*
X316066Y117729D01*
X316036Y117687D01*
X316015Y117618D01*
X315985Y117553D01*
X315979Y117501D01*
X315964Y117451D01*
X315966Y117380D01*
X315958Y117309D01*
X315969Y117258D01*
X315970Y117206D01*
X315995Y117138D01*
X316010Y117068D01*
X316037Y117023D01*
X316055Y116975D01*
X316099Y116919D01*
X316136Y116857D01*
X316176Y116823D01*
X316208Y116783D01*
X316269Y116744D01*
X316323Y116697D01*
X316371Y116678D01*
X316415Y116650D01*
X316485Y116632D01*
X316551Y116605D01*
X316623Y116597D01*
X316654Y116589D01*
X316677Y116591D01*
X316718Y116587D01*
X319412Y116587D01*
X319503Y116601D01*
X319593Y116609D01*
X319623Y116621D01*
X319655Y116626D01*
X319736Y116669D01*
X319820Y116705D01*
X319852Y116731D01*
X319873Y116742D01*
X319895Y116765D01*
X319951Y116810D01*
X321340Y118199D01*
X321393Y118273D01*
X321453Y118343D01*
X321465Y118373D01*
X321484Y118399D01*
X321511Y118486D01*
X321545Y118571D01*
X321549Y118612D01*
X321556Y118634D01*
X321555Y118666D01*
X321563Y118738D01*
X321563Y133309D01*
X322483Y134229D01*
X322536Y134303D01*
X322596Y134373D01*
X322608Y134403D01*
X322627Y134429D01*
X322654Y134516D01*
X322688Y134601D01*
X322692Y134642D01*
X322699Y134664D01*
X322698Y134696D01*
X322706Y134768D01*
X322706Y138723D01*
X325815Y141832D01*
X330211Y141832D01*
X333320Y138723D01*
X333320Y134327D01*
X330211Y131218D01*
X326898Y131218D01*
X326878Y131215D01*
X326859Y131217D01*
X326757Y131195D01*
X326655Y131179D01*
X326638Y131169D01*
X326618Y131165D01*
X326529Y131112D01*
X326438Y131063D01*
X326424Y131049D01*
X326407Y131039D01*
X326340Y130960D01*
X326268Y130885D01*
X326260Y130867D01*
X326247Y130852D01*
X326208Y130756D01*
X326165Y130662D01*
X326163Y130642D01*
X326155Y130624D01*
X326137Y130457D01*
X326137Y116528D01*
X321622Y112013D01*
X300678Y112013D01*
X291376Y121315D01*
X290297Y122394D01*
X290239Y122436D01*
X290187Y122485D01*
X290140Y122507D01*
X290097Y122538D01*
X290029Y122559D01*
X289964Y122589D01*
X289912Y122595D01*
X289862Y122610D01*
X289790Y122608D01*
X289719Y122616D01*
X289668Y122605D01*
X289616Y122604D01*
X289549Y122579D01*
X289479Y122564D01*
X289434Y122537D01*
X289385Y122519D01*
X289329Y122474D01*
X289268Y122438D01*
X289234Y122398D01*
X289193Y122365D01*
X289155Y122305D01*
X289108Y122251D01*
X289088Y122202D01*
X289060Y122159D01*
X289043Y122089D01*
X289016Y122023D01*
X289008Y121951D01*
X289000Y121920D01*
X289002Y121897D01*
X288997Y121856D01*
X288997Y119568D01*
X285889Y116459D01*
X285488Y116459D01*
X285417Y116447D01*
X285345Y116446D01*
X285296Y116428D01*
X285245Y116419D01*
X285182Y116386D01*
X285114Y116361D01*
X285074Y116329D01*
X285028Y116304D01*
X284978Y116252D01*
X284922Y116207D01*
X284894Y116164D01*
X284858Y116126D01*
X284828Y116061D01*
X284789Y116001D01*
X284777Y115950D01*
X284755Y115903D01*
X284747Y115832D01*
X284729Y115762D01*
X284733Y115710D01*
X284727Y115658D01*
X284743Y115588D01*
X284748Y115517D01*
X284769Y115469D01*
X284780Y115418D01*
X284817Y115356D01*
X284845Y115290D01*
X284889Y115234D01*
X284906Y115207D01*
X284924Y115192D01*
X284949Y115159D01*
X286474Y113635D01*
X286629Y113480D01*
X286703Y113427D01*
X286773Y113367D01*
X286803Y113355D01*
X286829Y113336D01*
X286916Y113309D01*
X287001Y113275D01*
X287042Y113271D01*
X287064Y113264D01*
X287096Y113265D01*
X287168Y113257D01*
X287948Y113257D01*
X290745Y110460D01*
X290819Y110407D01*
X290889Y110347D01*
X290919Y110335D01*
X290945Y110316D01*
X291032Y110289D01*
X291117Y110255D01*
X291158Y110251D01*
X291180Y110244D01*
X291212Y110245D01*
X291283Y110237D01*
X340030Y110237D01*
X341592Y108674D01*
X350169Y100097D01*
X350204Y100072D01*
X350234Y100039D01*
X350304Y100000D01*
X350369Y99954D01*
X350411Y99941D01*
X350449Y99920D01*
X350527Y99905D01*
X350604Y99881D01*
X350648Y99883D01*
X350691Y99875D01*
X350770Y99886D01*
X350850Y99888D01*
X350891Y99903D01*
X350934Y99909D01*
X351067Y99967D01*
X351081Y99972D01*
X351083Y99974D01*
X351088Y99976D01*
X351716Y100339D01*
X354822Y100748D01*
X357848Y99937D01*
X360333Y98030D01*
X361899Y95317D01*
X362308Y92211D01*
X361497Y89185D01*
X359590Y86699D01*
X356877Y85133D01*
X353771Y84724D01*
X350745Y85535D01*
X348260Y87442D01*
X346694Y90155D01*
X346285Y93261D01*
X347070Y96191D01*
X347076Y96258D01*
X347093Y96323D01*
X347088Y96379D01*
X347094Y96435D01*
X347079Y96501D01*
X347074Y96569D01*
X347052Y96620D01*
X347039Y96675D01*
X347004Y96733D01*
X346977Y96795D01*
X346928Y96857D01*
X346911Y96885D01*
X346895Y96898D01*
X346873Y96926D01*
X338358Y105440D01*
X338284Y105493D01*
X338215Y105553D01*
X338185Y105565D01*
X338158Y105584D01*
X338071Y105611D01*
X337987Y105645D01*
X337946Y105649D01*
X337923Y105656D01*
X337891Y105655D01*
X337820Y105663D01*
X291283Y105663D01*
X291193Y105649D01*
X291102Y105641D01*
X291073Y105629D01*
X291041Y105624D01*
X290960Y105581D01*
X290876Y105545D01*
X290844Y105519D01*
X290823Y105508D01*
X290801Y105485D01*
X290745Y105440D01*
X287948Y102643D01*
X286751Y102643D01*
X286680Y102632D01*
X286609Y102630D01*
X286560Y102612D01*
X286508Y102604D01*
X286445Y102570D01*
X286378Y102545D01*
X286337Y102513D01*
X286291Y102488D01*
X286242Y102436D01*
X286186Y102392D01*
X286157Y102348D01*
X286122Y102310D01*
X286091Y102245D01*
X286053Y102185D01*
X286040Y102134D01*
X286018Y102087D01*
X286010Y102016D01*
X285992Y101946D01*
X285997Y101894D01*
X285991Y101843D01*
X286006Y101772D01*
X286012Y101701D01*
X286032Y101653D01*
X286043Y101602D01*
X286080Y101541D01*
X286108Y101475D01*
X286153Y101419D01*
X286169Y101391D01*
X286187Y101376D01*
X286213Y101344D01*
X318334Y69223D01*
X318408Y69170D01*
X318477Y69110D01*
X318507Y69098D01*
X318533Y69079D01*
X318620Y69053D01*
X318705Y69018D01*
X318746Y69014D01*
X318768Y69007D01*
X318801Y69008D01*
X318872Y69000D01*
X324882Y69000D01*
X324953Y69011D01*
X325025Y69013D01*
X325074Y69031D01*
X325125Y69040D01*
X325189Y69073D01*
X325256Y69098D01*
X325297Y69130D01*
X325343Y69155D01*
X325392Y69207D01*
X325448Y69251D01*
X325476Y69295D01*
X325512Y69333D01*
X325542Y69398D01*
X325581Y69458D01*
X325594Y69509D01*
X325616Y69556D01*
X325624Y69627D01*
X325641Y69697D01*
X325637Y69749D01*
X325643Y69801D01*
X325627Y69871D01*
X325622Y69942D01*
X325602Y69990D01*
X325590Y70041D01*
X325554Y70103D01*
X325526Y70168D01*
X325481Y70224D01*
X325464Y70252D01*
X325446Y70267D01*
X325421Y70299D01*
X324893Y70827D01*
X324893Y75223D01*
X328002Y78332D01*
X330161Y78332D01*
X330252Y78346D01*
X330342Y78354D01*
X330372Y78366D01*
X330404Y78371D01*
X330485Y78414D01*
X330569Y78450D01*
X330601Y78476D01*
X330622Y78487D01*
X330644Y78510D01*
X330700Y78555D01*
X330727Y78582D01*
X330752Y78617D01*
X330785Y78647D01*
X330824Y78717D01*
X330870Y78782D01*
X330883Y78823D01*
X330905Y78862D01*
X330919Y78940D01*
X330943Y79017D01*
X330942Y79060D01*
X330950Y79104D01*
X330938Y79183D01*
X330936Y79262D01*
X330921Y79304D01*
X330915Y79347D01*
X330857Y79480D01*
X330852Y79493D01*
X330850Y79496D01*
X330848Y79501D01*
X330196Y80630D01*
X329787Y83736D01*
X330192Y85249D01*
X330199Y85316D01*
X330215Y85382D01*
X330211Y85438D01*
X330217Y85494D01*
X330202Y85560D01*
X330196Y85627D01*
X330174Y85679D01*
X330162Y85734D01*
X330126Y85791D01*
X330100Y85853D01*
X330050Y85915D01*
X330033Y85943D01*
X330017Y85957D01*
X329995Y85984D01*
X329818Y86161D01*
X329818Y94162D01*
X329804Y94252D01*
X329796Y94343D01*
X329784Y94372D01*
X329779Y94404D01*
X329736Y94485D01*
X329700Y94569D01*
X329674Y94601D01*
X329663Y94622D01*
X329640Y94644D01*
X329595Y94700D01*
X328068Y96227D01*
X328068Y100623D01*
X331177Y103732D01*
X335573Y103732D01*
X338682Y100623D01*
X338682Y96227D01*
X337155Y94700D01*
X337102Y94626D01*
X337042Y94556D01*
X337030Y94526D01*
X337011Y94500D01*
X336984Y94413D01*
X336950Y94328D01*
X336946Y94287D01*
X336939Y94265D01*
X336940Y94233D01*
X336932Y94162D01*
X336932Y91907D01*
X336943Y91839D01*
X336944Y91769D01*
X336963Y91718D01*
X336971Y91665D01*
X337004Y91603D01*
X337028Y91538D01*
X337061Y91495D01*
X337087Y91447D01*
X337137Y91399D01*
X337180Y91345D01*
X337226Y91315D01*
X337265Y91278D01*
X337328Y91249D01*
X337386Y91211D01*
X337439Y91197D01*
X337488Y91174D01*
X337557Y91167D01*
X337625Y91149D01*
X337700Y91151D01*
X337732Y91147D01*
X337754Y91152D01*
X337792Y91153D01*
X338324Y91223D01*
X341350Y90412D01*
X343835Y88505D01*
X345401Y85792D01*
X345810Y82686D01*
X345000Y79660D01*
X343093Y77174D01*
X340379Y75608D01*
X337680Y75253D01*
X337640Y75241D01*
X337598Y75237D01*
X337523Y75205D01*
X337445Y75182D01*
X337410Y75157D01*
X337372Y75141D01*
X337251Y75044D01*
X337244Y75039D01*
X337243Y75038D01*
X337241Y75036D01*
X335730Y73525D01*
X335677Y73451D01*
X335617Y73381D01*
X335605Y73351D01*
X335586Y73325D01*
X335559Y73238D01*
X335525Y73153D01*
X335521Y73112D01*
X335514Y73090D01*
X335515Y73058D01*
X335507Y72986D01*
X335507Y70827D01*
X334979Y70299D01*
X334937Y70241D01*
X334888Y70189D01*
X334866Y70142D01*
X334836Y70100D01*
X334815Y70031D01*
X334784Y69966D01*
X334779Y69914D01*
X334763Y69865D01*
X334765Y69793D01*
X334757Y69722D01*
X334768Y69671D01*
X334770Y69619D01*
X334794Y69551D01*
X334810Y69481D01*
X334836Y69437D01*
X334854Y69388D01*
X334899Y69332D01*
X334936Y69270D01*
X334975Y69236D01*
X335008Y69196D01*
X335068Y69157D01*
X335123Y69110D01*
X335171Y69091D01*
X335215Y69063D01*
X335284Y69045D01*
X335351Y69018D01*
X335422Y69010D01*
X335453Y69003D01*
X335477Y69004D01*
X335518Y69000D01*
X339200Y69000D01*
X339243Y69007D01*
X339287Y69005D01*
X339364Y69027D01*
X339442Y69040D01*
X339481Y69060D01*
X339523Y69072D01*
X339589Y69117D01*
X339660Y69155D01*
X339690Y69186D01*
X339726Y69211D01*
X339774Y69275D01*
X339829Y69333D01*
X339848Y69373D01*
X339874Y69408D01*
X339927Y69544D01*
X339933Y69556D01*
X339933Y69559D01*
X339935Y69564D01*
X340123Y70264D01*
X342030Y72750D01*
X344743Y74316D01*
X347849Y74725D01*
X350875Y73914D01*
X353360Y72007D01*
X354926Y69294D01*
X355335Y66188D01*
X354525Y63162D01*
X352618Y60677D01*
X349904Y59110D01*
X346798Y58701D01*
X343772Y59512D01*
X341287Y61419D01*
X339771Y64046D01*
X339728Y64098D01*
X339693Y64156D01*
X339650Y64193D01*
X339615Y64236D01*
X339558Y64272D01*
X339506Y64316D01*
X339454Y64337D01*
X339406Y64367D01*
X339341Y64383D01*
X339278Y64408D01*
X339199Y64417D01*
X339167Y64424D01*
X339147Y64422D01*
X339111Y64426D01*
X320657Y64426D01*
X320587Y64415D01*
X320515Y64413D01*
X320466Y64395D01*
X320415Y64387D01*
X320351Y64353D01*
X320284Y64328D01*
X320243Y64296D01*
X320197Y64272D01*
X320148Y64220D01*
X320092Y64175D01*
X320064Y64131D01*
X320028Y64093D01*
X319998Y64028D01*
X319959Y63968D01*
X319946Y63917D01*
X319924Y63870D01*
X319916Y63799D01*
X319899Y63729D01*
X319903Y63677D01*
X319897Y63626D01*
X319912Y63556D01*
X319918Y63484D01*
X319938Y63436D01*
X319949Y63385D01*
X319986Y63324D01*
X320014Y63258D01*
X320059Y63202D01*
X320076Y63174D01*
X320093Y63159D01*
X320119Y63127D01*
X336286Y46960D01*
X336360Y46907D01*
X336430Y46847D01*
X336460Y46835D01*
X336486Y46816D01*
X336573Y46789D01*
X336658Y46755D01*
X336699Y46751D01*
X336721Y46744D01*
X336753Y46745D01*
X336825Y46737D01*
X341637Y46737D01*
X341728Y46751D01*
G37*
%LPC*%
G36*
X350131Y299589D02*
X350131Y299589D01*
X347022Y302698D01*
X347022Y307094D01*
X349819Y309891D01*
X349872Y309965D01*
X349932Y310035D01*
X349944Y310065D01*
X349963Y310091D01*
X349990Y310178D01*
X350024Y310263D01*
X350028Y310304D01*
X350035Y310326D01*
X350034Y310358D01*
X350042Y310429D01*
X350042Y319509D01*
X350027Y319599D01*
X350020Y319690D01*
X350008Y319719D01*
X350002Y319751D01*
X349960Y319832D01*
X349924Y319916D01*
X349898Y319948D01*
X349887Y319969D01*
X349864Y319991D01*
X349819Y320047D01*
X348586Y321280D01*
X348586Y322480D01*
X348572Y322570D01*
X348564Y322661D01*
X348552Y322690D01*
X348547Y322722D01*
X348504Y322803D01*
X348468Y322887D01*
X348442Y322919D01*
X348431Y322940D01*
X348408Y322962D01*
X348363Y323018D01*
X345566Y325815D01*
X345566Y330211D01*
X348675Y333320D01*
X353071Y333320D01*
X356180Y330211D01*
X356180Y326256D01*
X356194Y326165D01*
X356202Y326075D01*
X356214Y326045D01*
X356219Y326013D01*
X356262Y325932D01*
X356298Y325848D01*
X356324Y325816D01*
X356335Y325795D01*
X356358Y325773D01*
X356403Y325717D01*
X358935Y323185D01*
X359009Y323132D01*
X359079Y323072D01*
X359109Y323060D01*
X359135Y323041D01*
X359222Y323014D01*
X359307Y322980D01*
X359348Y322976D01*
X359370Y322969D01*
X359402Y322970D01*
X359474Y322962D01*
X382912Y322962D01*
X383003Y322976D01*
X383093Y322984D01*
X383123Y322996D01*
X383155Y323001D01*
X383236Y323044D01*
X383320Y323080D01*
X383352Y323106D01*
X383373Y323117D01*
X383395Y323140D01*
X383451Y323185D01*
X384995Y324729D01*
X385048Y324803D01*
X385108Y324873D01*
X385120Y324903D01*
X385139Y324929D01*
X385166Y325016D01*
X385200Y325101D01*
X385204Y325142D01*
X385211Y325164D01*
X385210Y325196D01*
X385218Y325268D01*
X385218Y329223D01*
X388327Y332332D01*
X392723Y332332D01*
X395832Y329223D01*
X395832Y325268D01*
X395846Y325177D01*
X395854Y325087D01*
X395866Y325057D01*
X395871Y325025D01*
X395914Y324944D01*
X395950Y324860D01*
X395976Y324828D01*
X395987Y324807D01*
X396010Y324785D01*
X396055Y324729D01*
X409604Y311179D01*
X409621Y311168D01*
X409633Y311152D01*
X409720Y311096D01*
X409804Y311036D01*
X409823Y311030D01*
X409840Y311019D01*
X409941Y310994D01*
X410039Y310964D01*
X410059Y310964D01*
X410079Y310959D01*
X410182Y310967D01*
X410285Y310970D01*
X410304Y310977D01*
X410324Y310978D01*
X410419Y311019D01*
X410516Y311054D01*
X410532Y311067D01*
X410550Y311075D01*
X410681Y311179D01*
X411668Y312166D01*
X416064Y312166D01*
X419172Y309057D01*
X419172Y304661D01*
X416064Y301553D01*
X411668Y301553D01*
X408559Y304661D01*
X408559Y305442D01*
X408544Y305532D01*
X408537Y305623D01*
X408525Y305653D01*
X408519Y305684D01*
X408477Y305765D01*
X408441Y305849D01*
X408415Y305881D01*
X408404Y305902D01*
X408381Y305924D01*
X408336Y305980D01*
X392821Y321495D01*
X392747Y321548D01*
X392677Y321608D01*
X392647Y321620D01*
X392621Y321639D01*
X392534Y321666D01*
X392449Y321700D01*
X392408Y321704D01*
X392386Y321711D01*
X392354Y321710D01*
X392282Y321718D01*
X388768Y321718D01*
X388677Y321704D01*
X388587Y321696D01*
X388557Y321684D01*
X388525Y321679D01*
X388444Y321636D01*
X388360Y321600D01*
X388328Y321574D01*
X388307Y321563D01*
X388285Y321540D01*
X388229Y321495D01*
X385122Y318388D01*
X357264Y318388D01*
X355915Y319737D01*
X355857Y319779D01*
X355805Y319828D01*
X355758Y319850D01*
X355716Y319880D01*
X355647Y319901D01*
X355582Y319932D01*
X355530Y319937D01*
X355480Y319953D01*
X355409Y319951D01*
X355337Y319959D01*
X355287Y319948D01*
X355235Y319946D01*
X355167Y319922D01*
X355097Y319907D01*
X355052Y319880D01*
X355004Y319862D01*
X354947Y319817D01*
X354886Y319780D01*
X354852Y319741D01*
X354811Y319708D01*
X354773Y319648D01*
X354726Y319593D01*
X354707Y319545D01*
X354678Y319501D01*
X354661Y319432D01*
X354634Y319365D01*
X354626Y319294D01*
X354618Y319263D01*
X354620Y319240D01*
X354616Y319199D01*
X354616Y310429D01*
X354630Y310339D01*
X354638Y310248D01*
X354650Y310219D01*
X354655Y310187D01*
X354698Y310106D01*
X354734Y310022D01*
X354760Y309990D01*
X354771Y309969D01*
X354794Y309947D01*
X354839Y309891D01*
X357636Y307094D01*
X357636Y302698D01*
X354527Y299589D01*
X350131Y299589D01*
G37*
%LPD*%
%LPC*%
G36*
X232752Y369343D02*
X232752Y369343D01*
X229643Y372452D01*
X229643Y376848D01*
X231170Y378375D01*
X231223Y378449D01*
X231283Y378519D01*
X231295Y378549D01*
X231314Y378575D01*
X231341Y378662D01*
X231375Y378747D01*
X231379Y378788D01*
X231386Y378810D01*
X231385Y378842D01*
X231393Y378913D01*
X231393Y379211D01*
X231379Y379302D01*
X231371Y379392D01*
X231359Y379422D01*
X231354Y379454D01*
X231311Y379535D01*
X231275Y379619D01*
X231249Y379651D01*
X231238Y379672D01*
X231215Y379694D01*
X231170Y379750D01*
X205125Y405795D01*
X205051Y405848D01*
X204981Y405908D01*
X204951Y405920D01*
X204925Y405939D01*
X204838Y405966D01*
X204753Y406000D01*
X204712Y406004D01*
X204690Y406011D01*
X204658Y406010D01*
X204586Y406018D01*
X178888Y406018D01*
X178798Y406004D01*
X178707Y405996D01*
X178678Y405984D01*
X178646Y405979D01*
X178565Y405936D01*
X178481Y405900D01*
X178449Y405874D01*
X178428Y405863D01*
X178406Y405840D01*
X178350Y405795D01*
X176823Y404268D01*
X172427Y404268D01*
X169318Y407377D01*
X169318Y411773D01*
X172427Y414882D01*
X176823Y414882D01*
X178350Y413355D01*
X178424Y413302D01*
X178494Y413242D01*
X178524Y413230D01*
X178550Y413211D01*
X178637Y413184D01*
X178722Y413150D01*
X178763Y413146D01*
X178785Y413139D01*
X178817Y413140D01*
X178888Y413132D01*
X207848Y413132D01*
X238507Y382473D01*
X238507Y378913D01*
X238521Y378823D01*
X238529Y378732D01*
X238541Y378703D01*
X238546Y378671D01*
X238589Y378590D01*
X238625Y378506D01*
X238651Y378474D01*
X238662Y378453D01*
X238685Y378431D01*
X238730Y378375D01*
X240257Y376848D01*
X240257Y372452D01*
X237148Y369343D01*
X232752Y369343D01*
G37*
%LPD*%
%LPC*%
G36*
X121627Y201068D02*
X121627Y201068D01*
X118518Y204177D01*
X118518Y208573D01*
X120544Y210599D01*
X120556Y210615D01*
X120572Y210628D01*
X120628Y210715D01*
X120688Y210799D01*
X120694Y210818D01*
X120705Y210835D01*
X120730Y210935D01*
X120760Y211034D01*
X120760Y211054D01*
X120765Y211073D01*
X120757Y211176D01*
X120754Y211280D01*
X120747Y211299D01*
X120745Y211318D01*
X120705Y211413D01*
X120669Y211511D01*
X120657Y211527D01*
X120649Y211545D01*
X120544Y211676D01*
X118518Y213702D01*
X118518Y218098D01*
X121627Y221207D01*
X125582Y221207D01*
X125673Y221221D01*
X125763Y221229D01*
X125793Y221241D01*
X125825Y221246D01*
X125906Y221289D01*
X125990Y221325D01*
X126022Y221351D01*
X126043Y221362D01*
X126065Y221385D01*
X126121Y221430D01*
X126978Y222287D01*
X127414Y222287D01*
X127434Y222290D01*
X127453Y222288D01*
X127555Y222310D01*
X127657Y222326D01*
X127674Y222336D01*
X127694Y222340D01*
X127783Y222393D01*
X127874Y222442D01*
X127888Y222456D01*
X127905Y222466D01*
X127972Y222545D01*
X128044Y222620D01*
X128052Y222638D01*
X128065Y222653D01*
X128104Y222749D01*
X128147Y222843D01*
X128149Y222863D01*
X128157Y222881D01*
X128175Y223048D01*
X128175Y223882D01*
X129068Y224775D01*
X150332Y224775D01*
X151225Y223882D01*
X151225Y216118D01*
X150332Y215225D01*
X129893Y215225D01*
X129873Y215222D01*
X129854Y215224D01*
X129752Y215202D01*
X129650Y215186D01*
X129633Y215176D01*
X129613Y215172D01*
X129524Y215119D01*
X129433Y215070D01*
X129419Y215056D01*
X129402Y215046D01*
X129335Y214967D01*
X129263Y214892D01*
X129255Y214874D01*
X129242Y214859D01*
X129203Y214763D01*
X129160Y214669D01*
X129158Y214649D01*
X129150Y214631D01*
X129132Y214464D01*
X129132Y213702D01*
X129004Y213574D01*
X128962Y213516D01*
X128913Y213464D01*
X128891Y213417D01*
X128861Y213375D01*
X128839Y213306D01*
X128809Y213241D01*
X128804Y213189D01*
X128788Y213139D01*
X128790Y213068D01*
X128782Y212997D01*
X128793Y212946D01*
X128795Y212894D01*
X128819Y212826D01*
X128834Y212756D01*
X128861Y212711D01*
X128879Y212663D01*
X128924Y212607D01*
X128961Y212545D01*
X129000Y212511D01*
X129033Y212471D01*
X129093Y212432D01*
X129148Y212385D01*
X129196Y212366D01*
X129240Y212338D01*
X129309Y212320D01*
X129376Y212293D01*
X129447Y212285D01*
X129478Y212277D01*
X129501Y212279D01*
X129542Y212275D01*
X150332Y212275D01*
X151225Y211382D01*
X151225Y203618D01*
X150332Y202725D01*
X129068Y202725D01*
X128913Y202881D01*
X128896Y202893D01*
X128884Y202908D01*
X128797Y202964D01*
X128713Y203025D01*
X128694Y203031D01*
X128677Y203041D01*
X128576Y203067D01*
X128478Y203097D01*
X128458Y203097D01*
X128438Y203101D01*
X128336Y203093D01*
X128232Y203091D01*
X128213Y203084D01*
X128193Y203082D01*
X128098Y203042D01*
X128001Y203006D01*
X127985Y202994D01*
X127967Y202986D01*
X127836Y202881D01*
X126023Y201068D01*
X121627Y201068D01*
G37*
%LPD*%
%LPC*%
G36*
X299427Y134393D02*
X299427Y134393D01*
X296318Y137502D01*
X296318Y141898D01*
X299427Y145007D01*
X303382Y145007D01*
X303473Y145021D01*
X303563Y145029D01*
X303593Y145041D01*
X303625Y145046D01*
X303706Y145089D01*
X303790Y145125D01*
X303822Y145151D01*
X303843Y145162D01*
X303865Y145185D01*
X303921Y145230D01*
X319613Y160921D01*
X319654Y160980D01*
X319704Y161032D01*
X319726Y161079D01*
X319756Y161121D01*
X319777Y161190D01*
X319807Y161255D01*
X319813Y161306D01*
X319828Y161356D01*
X319827Y161428D01*
X319834Y161499D01*
X319823Y161550D01*
X319822Y161602D01*
X319797Y161669D01*
X319782Y161740D01*
X319755Y161784D01*
X319738Y161833D01*
X319693Y161889D01*
X319656Y161951D01*
X319616Y161984D01*
X319584Y162025D01*
X319524Y162064D01*
X319469Y162111D01*
X319421Y162130D01*
X319377Y162158D01*
X319308Y162176D01*
X319241Y162202D01*
X319170Y162210D01*
X319138Y162218D01*
X319115Y162216D01*
X319074Y162221D01*
X318477Y162221D01*
X315368Y165330D01*
X315368Y169726D01*
X318477Y172834D01*
X320802Y172834D01*
X320822Y172838D01*
X320841Y172835D01*
X320943Y172857D01*
X321045Y172874D01*
X321062Y172883D01*
X321082Y172888D01*
X321171Y172941D01*
X321262Y172989D01*
X321276Y173004D01*
X321293Y173014D01*
X321360Y173093D01*
X321432Y173168D01*
X321440Y173186D01*
X321453Y173201D01*
X321492Y173297D01*
X321535Y173391D01*
X321537Y173410D01*
X321545Y173429D01*
X321563Y173596D01*
X321563Y175442D01*
X321549Y175532D01*
X321541Y175623D01*
X321529Y175652D01*
X321524Y175684D01*
X321481Y175765D01*
X321445Y175849D01*
X321419Y175881D01*
X321408Y175902D01*
X321385Y175924D01*
X321340Y175980D01*
X318543Y178777D01*
X318543Y183173D01*
X321652Y186282D01*
X326048Y186282D01*
X329157Y183173D01*
X329157Y178777D01*
X326360Y175980D01*
X326307Y175906D01*
X326247Y175836D01*
X326235Y175806D01*
X326216Y175780D01*
X326189Y175693D01*
X326155Y175608D01*
X326151Y175567D01*
X326144Y175545D01*
X326145Y175513D01*
X326137Y175442D01*
X326137Y169737D01*
X326126Y169726D01*
X326120Y169713D01*
X326092Y169680D01*
X326080Y169650D01*
X326061Y169624D01*
X326034Y169537D01*
X326000Y169452D01*
X325996Y169411D01*
X325989Y169389D01*
X325990Y169356D01*
X325982Y169285D01*
X325982Y169128D01*
X325993Y169058D01*
X325995Y168986D01*
X326013Y168937D01*
X326021Y168886D01*
X326055Y168822D01*
X326080Y168755D01*
X326112Y168714D01*
X326137Y168668D01*
X326189Y168619D01*
X326233Y168563D01*
X326277Y168535D01*
X326315Y168499D01*
X326380Y168469D01*
X326440Y168430D01*
X326491Y168417D01*
X326538Y168395D01*
X326609Y168387D01*
X326679Y168370D01*
X326731Y168374D01*
X326782Y168368D01*
X326853Y168383D01*
X326924Y168389D01*
X326972Y168409D01*
X327023Y168420D01*
X327084Y168457D01*
X327150Y168485D01*
X327206Y168530D01*
X327234Y168547D01*
X327249Y168564D01*
X327281Y168590D01*
X340390Y181699D01*
X340545Y181854D01*
X340598Y181928D01*
X340658Y181998D01*
X340670Y182028D01*
X340689Y182054D01*
X340716Y182141D01*
X340750Y182226D01*
X340754Y182267D01*
X340761Y182289D01*
X340760Y182321D01*
X340768Y182393D01*
X340768Y183173D01*
X343877Y186282D01*
X348273Y186282D01*
X351382Y183173D01*
X351382Y178777D01*
X348273Y175668D01*
X343877Y175668D01*
X342890Y176655D01*
X342874Y176666D01*
X342862Y176682D01*
X342774Y176738D01*
X342691Y176798D01*
X342672Y176804D01*
X342655Y176815D01*
X342554Y176840D01*
X342455Y176871D01*
X342436Y176870D01*
X342416Y176875D01*
X342313Y176867D01*
X342210Y176864D01*
X342191Y176857D01*
X342171Y176856D01*
X342076Y176816D01*
X341979Y176780D01*
X341963Y176767D01*
X341945Y176760D01*
X341814Y176655D01*
X307155Y141996D01*
X307102Y141922D01*
X307042Y141852D01*
X307030Y141822D01*
X307011Y141796D01*
X306984Y141709D01*
X306950Y141624D01*
X306946Y141583D01*
X306939Y141561D01*
X306940Y141529D01*
X306932Y141457D01*
X306932Y137502D01*
X303823Y134393D01*
X299427Y134393D01*
G37*
%LPD*%
%LPC*%
G36*
X286727Y318543D02*
X286727Y318543D01*
X283618Y321652D01*
X283618Y326048D01*
X286727Y329157D01*
X290682Y329157D01*
X290773Y329171D01*
X290863Y329179D01*
X290893Y329191D01*
X290925Y329196D01*
X291006Y329239D01*
X291090Y329275D01*
X291122Y329301D01*
X291143Y329312D01*
X291146Y329315D01*
X291166Y329336D01*
X291221Y329380D01*
X308640Y346799D01*
X308693Y346873D01*
X308753Y346943D01*
X308765Y346973D01*
X308784Y346999D01*
X308811Y347086D01*
X308845Y347171D01*
X308849Y347212D01*
X308856Y347234D01*
X308855Y347266D01*
X308863Y347338D01*
X308863Y394517D01*
X308849Y394607D01*
X308841Y394698D01*
X308829Y394727D01*
X308824Y394759D01*
X308781Y394840D01*
X308745Y394924D01*
X308719Y394956D01*
X308708Y394977D01*
X308685Y394999D01*
X308640Y395055D01*
X305843Y397852D01*
X305843Y402248D01*
X308952Y405357D01*
X313348Y405357D01*
X316457Y402248D01*
X316457Y397852D01*
X313660Y395055D01*
X313607Y394981D01*
X313547Y394911D01*
X313535Y394881D01*
X313516Y394855D01*
X313489Y394768D01*
X313455Y394683D01*
X313451Y394642D01*
X313444Y394620D01*
X313445Y394588D01*
X313437Y394517D01*
X313437Y345128D01*
X294455Y326146D01*
X294402Y326072D01*
X294342Y326002D01*
X294330Y325972D01*
X294311Y325946D01*
X294284Y325859D01*
X294250Y325774D01*
X294246Y325733D01*
X294239Y325711D01*
X294240Y325679D01*
X294232Y325607D01*
X294232Y321652D01*
X291123Y318543D01*
X286727Y318543D01*
G37*
%LPD*%
%LPC*%
G36*
X35619Y226475D02*
X35619Y226475D01*
X34726Y227368D01*
X34726Y232088D01*
X34714Y232159D01*
X34713Y232231D01*
X34695Y232280D01*
X34686Y232331D01*
X34653Y232394D01*
X34628Y232462D01*
X34596Y232502D01*
X34571Y232548D01*
X34519Y232598D01*
X34474Y232654D01*
X34431Y232682D01*
X34393Y232718D01*
X34328Y232748D01*
X34267Y232787D01*
X34217Y232799D01*
X34170Y232821D01*
X34098Y232829D01*
X34029Y232847D01*
X33977Y232843D01*
X33925Y232848D01*
X33855Y232833D01*
X33784Y232828D01*
X33736Y232807D01*
X33685Y232796D01*
X33623Y232759D01*
X33557Y232731D01*
X33501Y232687D01*
X33474Y232670D01*
X33459Y232652D01*
X33426Y232627D01*
X31678Y230878D01*
X28156Y229419D01*
X24345Y229419D01*
X20824Y230878D01*
X18129Y233573D01*
X16670Y237094D01*
X16670Y240906D01*
X18129Y244427D01*
X20824Y247122D01*
X24345Y248581D01*
X28156Y248581D01*
X31678Y247122D01*
X34373Y244427D01*
X35831Y240906D01*
X35831Y237286D01*
X35835Y237266D01*
X35832Y237247D01*
X35854Y237145D01*
X35871Y237043D01*
X35880Y237026D01*
X35885Y237006D01*
X35938Y236917D01*
X35986Y236826D01*
X36001Y236812D01*
X36011Y236795D01*
X36090Y236728D01*
X36165Y236656D01*
X36183Y236648D01*
X36198Y236635D01*
X36294Y236596D01*
X36388Y236553D01*
X36407Y236551D01*
X36426Y236543D01*
X36593Y236525D01*
X51882Y236525D01*
X52775Y235632D01*
X52775Y227368D01*
X51882Y226475D01*
X35619Y226475D01*
G37*
%LPD*%
%LPC*%
G36*
X251802Y359818D02*
X251802Y359818D01*
X248693Y362927D01*
X248693Y367323D01*
X251802Y370432D01*
X256198Y370432D01*
X257217Y369413D01*
X257291Y369360D01*
X257361Y369300D01*
X257391Y369288D01*
X257417Y369269D01*
X257504Y369242D01*
X257589Y369208D01*
X257630Y369204D01*
X257652Y369197D01*
X257684Y369198D01*
X257755Y369190D01*
X274226Y369190D01*
X274316Y369204D01*
X274407Y369212D01*
X274437Y369224D01*
X274469Y369229D01*
X274549Y369272D01*
X274633Y369308D01*
X274665Y369334D01*
X274686Y369345D01*
X274708Y369368D01*
X274764Y369413D01*
X280220Y374869D01*
X280273Y374943D01*
X280333Y375012D01*
X280345Y375042D01*
X280364Y375068D01*
X280391Y375155D01*
X280425Y375240D01*
X280429Y375281D01*
X280436Y375303D01*
X280435Y375336D01*
X280443Y375407D01*
X280443Y376848D01*
X283552Y379957D01*
X287948Y379957D01*
X291057Y376848D01*
X291057Y372452D01*
X287948Y369343D01*
X286507Y369343D01*
X286417Y369329D01*
X286326Y369321D01*
X286296Y369309D01*
X286264Y369304D01*
X286184Y369261D01*
X286100Y369225D01*
X286068Y369199D01*
X286047Y369188D01*
X286025Y369165D01*
X285969Y369120D01*
X277909Y361060D01*
X257755Y361060D01*
X257665Y361046D01*
X257574Y361038D01*
X257545Y361026D01*
X257513Y361021D01*
X257432Y360978D01*
X257348Y360942D01*
X257316Y360916D01*
X257295Y360905D01*
X257273Y360882D01*
X257217Y360837D01*
X256198Y359818D01*
X251802Y359818D01*
G37*
%LPD*%
%LPC*%
G36*
X151617Y441628D02*
X151617Y441628D01*
X147603Y443291D01*
X144530Y446364D01*
X142867Y450378D01*
X142867Y454723D01*
X144530Y458738D01*
X147603Y461811D01*
X151617Y463474D01*
X155963Y463474D01*
X159977Y461811D01*
X163050Y458738D01*
X164713Y454723D01*
X164713Y450378D01*
X163050Y446364D01*
X159977Y443291D01*
X155963Y441628D01*
X151617Y441628D01*
G37*
%LPD*%
%LPC*%
G36*
X264527Y389127D02*
X264527Y389127D01*
X260513Y390790D01*
X257440Y393863D01*
X255777Y397877D01*
X255777Y402223D01*
X257440Y406237D01*
X260513Y409310D01*
X264527Y410973D01*
X268873Y410973D01*
X272887Y409310D01*
X275960Y406237D01*
X277623Y402223D01*
X277623Y397877D01*
X275960Y393863D01*
X272887Y390790D01*
X268873Y389127D01*
X264527Y389127D01*
G37*
%LPD*%
%LPC*%
G36*
X448879Y264093D02*
X448879Y264093D01*
X445238Y265601D01*
X442451Y268388D01*
X440943Y272029D01*
X440943Y275971D01*
X442451Y279612D01*
X445238Y282399D01*
X448879Y283907D01*
X452821Y283907D01*
X456462Y282399D01*
X459249Y279612D01*
X460757Y275971D01*
X460757Y272029D01*
X459249Y268388D01*
X456462Y265601D01*
X452821Y264093D01*
X448879Y264093D01*
G37*
%LPD*%
%LPC*%
G36*
X448879Y224093D02*
X448879Y224093D01*
X445238Y225601D01*
X442451Y228388D01*
X440943Y232029D01*
X440943Y235971D01*
X442451Y239612D01*
X445238Y242399D01*
X448879Y243907D01*
X452821Y243907D01*
X456462Y242399D01*
X459249Y239612D01*
X460757Y235971D01*
X460757Y232029D01*
X459249Y228388D01*
X456462Y225601D01*
X452821Y224093D01*
X448879Y224093D01*
G37*
%LPD*%
%LPC*%
G36*
X124802Y188368D02*
X124802Y188368D01*
X121693Y191477D01*
X121693Y195873D01*
X124802Y198982D01*
X128460Y198982D01*
X128550Y198996D01*
X128641Y199004D01*
X128671Y199016D01*
X128703Y199021D01*
X128784Y199064D01*
X128867Y199100D01*
X128900Y199126D01*
X128920Y199137D01*
X128925Y199141D01*
X128925Y199142D01*
X128943Y199161D01*
X128998Y199205D01*
X129068Y199275D01*
X150332Y199275D01*
X151225Y198382D01*
X151225Y190618D01*
X150332Y189725D01*
X130870Y189725D01*
X130780Y189711D01*
X130689Y189703D01*
X130660Y189691D01*
X130628Y189686D01*
X130547Y189643D01*
X130463Y189607D01*
X130431Y189581D01*
X130410Y189570D01*
X130388Y189547D01*
X130332Y189502D01*
X129198Y188368D01*
X124802Y188368D01*
G37*
%LPD*%
%LPC*%
G36*
X108927Y115343D02*
X108927Y115343D01*
X105818Y118452D01*
X105818Y122848D01*
X108392Y125422D01*
X108404Y125438D01*
X108420Y125451D01*
X108476Y125538D01*
X108536Y125622D01*
X108542Y125641D01*
X108553Y125658D01*
X108578Y125758D01*
X108608Y125857D01*
X108608Y125877D01*
X108613Y125896D01*
X108605Y125999D01*
X108602Y126103D01*
X108595Y126122D01*
X108593Y126141D01*
X108553Y126236D01*
X108517Y126334D01*
X108505Y126350D01*
X108497Y126368D01*
X108392Y126499D01*
X103896Y130995D01*
X103822Y131048D01*
X103752Y131108D01*
X103722Y131120D01*
X103696Y131139D01*
X103609Y131166D01*
X103524Y131200D01*
X103483Y131204D01*
X103461Y131211D01*
X103429Y131210D01*
X103357Y131218D01*
X99402Y131218D01*
X96293Y134327D01*
X96293Y138723D01*
X99402Y141832D01*
X103798Y141832D01*
X106907Y138723D01*
X106907Y134768D01*
X106921Y134677D01*
X106929Y134587D01*
X106941Y134557D01*
X106946Y134525D01*
X106989Y134444D01*
X107025Y134360D01*
X107051Y134328D01*
X107062Y134307D01*
X107085Y134285D01*
X107130Y134229D01*
X113412Y127947D01*
X113412Y126183D01*
X113426Y126093D01*
X113434Y126002D01*
X113446Y125973D01*
X113451Y125941D01*
X113494Y125860D01*
X113530Y125776D01*
X113556Y125744D01*
X113567Y125723D01*
X113590Y125701D01*
X113635Y125645D01*
X116432Y122848D01*
X116432Y118452D01*
X113323Y115343D01*
X108927Y115343D01*
G37*
%LPD*%
%LPC*%
G36*
X250718Y235075D02*
X250718Y235075D01*
X249825Y235968D01*
X249825Y257232D01*
X250718Y258125D01*
X258482Y258125D01*
X259375Y257232D01*
X259375Y235968D01*
X258482Y235075D01*
X250718Y235075D01*
G37*
%LPD*%
%LPC*%
G36*
X32619Y283975D02*
X32619Y283975D01*
X31726Y284868D01*
X31726Y296132D01*
X32619Y297025D01*
X41882Y297025D01*
X42775Y296132D01*
X42775Y284868D01*
X41882Y283975D01*
X32619Y283975D01*
G37*
%LPD*%
%LPC*%
G36*
X32619Y210975D02*
X32619Y210975D01*
X31726Y211868D01*
X31726Y223132D01*
X32619Y224025D01*
X41882Y224025D01*
X42775Y223132D01*
X42775Y211868D01*
X41882Y210975D01*
X32619Y210975D01*
G37*
%LPD*%
%LPC*%
G36*
X12619Y283975D02*
X12619Y283975D01*
X11726Y284868D01*
X11726Y296132D01*
X12619Y297025D01*
X19882Y297025D01*
X20775Y296132D01*
X20775Y284868D01*
X19882Y283975D01*
X12619Y283975D01*
G37*
%LPD*%
%LPC*%
G36*
X12619Y210975D02*
X12619Y210975D01*
X11726Y211868D01*
X11726Y223132D01*
X12619Y224025D01*
X19882Y224025D01*
X20775Y223132D01*
X20775Y211868D01*
X19882Y210975D01*
X12619Y210975D01*
G37*
%LPD*%
%LPC*%
G36*
X132794Y441080D02*
X132794Y441080D01*
X142146Y445440D01*
X142415Y444612D01*
X142709Y442756D01*
X142709Y440877D01*
X142415Y439021D01*
X141834Y437233D01*
X140981Y435559D01*
X139876Y434039D01*
X138548Y432710D01*
X137165Y431706D01*
X132794Y441080D01*
G37*
%LPD*%
%LPC*%
G36*
X129830Y429878D02*
X129830Y429878D01*
X127974Y430172D01*
X126187Y430752D01*
X124513Y431605D01*
X122992Y432710D01*
X121664Y434039D01*
X120659Y435421D01*
X130033Y439792D01*
X134394Y430441D01*
X133566Y430172D01*
X131710Y429878D01*
X129830Y429878D01*
G37*
%LPD*%
%LPC*%
G36*
X293623Y401573D02*
X293623Y401573D01*
X293623Y411896D01*
X294896Y411695D01*
X296683Y411114D01*
X298357Y410261D01*
X299878Y409156D01*
X301206Y407828D01*
X302311Y406307D01*
X303164Y404633D01*
X303745Y402846D01*
X303946Y401573D01*
X293623Y401573D01*
G37*
%LPD*%
%LPC*%
G36*
X293623Y398527D02*
X293623Y398527D01*
X303946Y398527D01*
X303745Y397254D01*
X303164Y395467D01*
X302311Y393793D01*
X301206Y392272D01*
X299878Y390944D01*
X298357Y389839D01*
X296683Y388986D01*
X294896Y388405D01*
X293623Y388204D01*
X293623Y398527D01*
G37*
%LPD*%
%LPC*%
G36*
X280254Y401573D02*
X280254Y401573D01*
X280455Y402846D01*
X281036Y404633D01*
X281889Y406307D01*
X282994Y407828D01*
X284322Y409156D01*
X285843Y410261D01*
X287517Y411114D01*
X289304Y411695D01*
X290577Y411896D01*
X290577Y401573D01*
X280254Y401573D01*
G37*
%LPD*%
%LPC*%
G36*
X289304Y388405D02*
X289304Y388405D01*
X287517Y388986D01*
X285843Y389839D01*
X284322Y390944D01*
X282994Y392272D01*
X281889Y393793D01*
X281036Y395467D01*
X280455Y397254D01*
X280254Y398527D01*
X290577Y398527D01*
X290577Y388204D01*
X289304Y388405D01*
G37*
%LPD*%
%LPC*%
G36*
X360298Y242773D02*
X360298Y242773D01*
X360298Y248791D01*
X367609Y248791D01*
X368256Y248618D01*
X368835Y248283D01*
X369308Y247810D01*
X369643Y247231D01*
X369816Y246584D01*
X369816Y242773D01*
X360298Y242773D01*
G37*
%LPD*%
%LPC*%
G36*
X141223Y158023D02*
X141223Y158023D01*
X141223Y162291D01*
X150034Y162291D01*
X150681Y162118D01*
X151260Y161783D01*
X151733Y161310D01*
X152068Y160731D01*
X152241Y160084D01*
X152241Y158023D01*
X141223Y158023D01*
G37*
%LPD*%
%LPC*%
G36*
X127159Y158023D02*
X127159Y158023D01*
X127159Y160084D01*
X127332Y160731D01*
X127667Y161310D01*
X128140Y161783D01*
X128719Y162118D01*
X129366Y162291D01*
X138177Y162291D01*
X138177Y158023D01*
X127159Y158023D01*
G37*
%LPD*%
%LPC*%
G36*
X141223Y154977D02*
X141223Y154977D01*
X152241Y154977D01*
X152241Y152916D01*
X152068Y152269D01*
X151733Y151690D01*
X151260Y151217D01*
X150681Y150882D01*
X150034Y150709D01*
X141223Y150709D01*
X141223Y154977D01*
G37*
%LPD*%
%LPC*%
G36*
X129366Y150709D02*
X129366Y150709D01*
X128719Y150882D01*
X128140Y151217D01*
X127667Y151690D01*
X127332Y152269D01*
X127159Y152916D01*
X127159Y154977D01*
X138177Y154977D01*
X138177Y150709D01*
X129366Y150709D01*
G37*
%LPD*%
%LPC*%
G36*
X362094Y100232D02*
X362094Y100232D01*
X361865Y101969D01*
X361980Y103716D01*
X362433Y105408D01*
X363208Y106979D01*
X364274Y108368D01*
X365094Y109087D01*
X368713Y102818D01*
X362444Y99199D01*
X362094Y100232D01*
G37*
%LPD*%
%LPC*%
G36*
X369339Y93446D02*
X369339Y93446D01*
X367647Y93900D01*
X366076Y94674D01*
X364687Y95740D01*
X363968Y96561D01*
X370237Y100180D01*
X373856Y93911D01*
X373807Y93894D01*
X372823Y93561D01*
X371086Y93332D01*
X369339Y93446D01*
G37*
%LPD*%
%LPC*%
G36*
X292099Y400049D02*
X292099Y400049D01*
X292099Y400051D01*
X292101Y400051D01*
X292101Y400049D01*
X292099Y400049D01*
G37*
%LPD*%
%LPC*%
G36*
X139699Y156499D02*
X139699Y156499D01*
X139699Y156501D01*
X139701Y156501D01*
X139701Y156499D01*
X139699Y156499D01*
G37*
%LPD*%
D10*
X139700Y143000D03*
X139700Y156500D03*
X139700Y169500D03*
X139700Y182000D03*
X139700Y194500D03*
X139700Y207500D03*
X139700Y220000D03*
X139700Y232500D03*
D11*
X254600Y246600D03*
D12*
X247650Y333375D03*
X273050Y333375D03*
X273050Y304800D03*
X247650Y304800D03*
D13*
X43751Y276500D03*
X43751Y261500D03*
X43751Y231500D03*
D14*
X16251Y290500D03*
D15*
X37251Y290500D03*
D14*
X16251Y217500D03*
D15*
X37251Y217500D03*
D12*
X292100Y400050D03*
X266700Y400050D03*
D16*
X347324Y66713D03*
X363821Y76238D03*
X380319Y85763D03*
X370794Y102261D03*
X354296Y92736D03*
X337799Y83211D03*
D12*
X130770Y441816D03*
X153790Y452551D03*
D17*
X228600Y21050D03*
X254000Y21050D03*
X266700Y21050D03*
X215900Y21050D03*
X430068Y117001D03*
X442768Y138999D03*
X449118Y149997D03*
X423718Y106003D03*
X442768Y369001D03*
X430068Y390999D03*
X423718Y401997D03*
X449118Y358003D03*
X254000Y486950D03*
X228600Y486950D03*
X215900Y486950D03*
X266700Y486950D03*
X52532Y390999D03*
X39832Y369001D03*
X33482Y358003D03*
X58882Y401997D03*
X39832Y138999D03*
X52532Y117001D03*
X58882Y106003D03*
X33482Y149997D03*
D18*
X450850Y234000D03*
X450850Y274000D03*
D19*
X123597Y405260D02*
X118648Y400311D01*
X123597Y405260D02*
X128546Y400311D01*
X123597Y395362D01*
X118648Y400311D01*
X120747Y398212D02*
X126447Y398212D01*
X127795Y401062D02*
X119399Y401062D01*
X122249Y403912D02*
X124945Y403912D01*
X136000Y392857D02*
X131051Y387908D01*
X136000Y392857D02*
X140949Y387908D01*
X136000Y382959D01*
X131051Y387908D01*
X133150Y385809D02*
X138850Y385809D01*
X140198Y388659D02*
X131802Y388659D01*
X134652Y391509D02*
X137348Y391509D01*
X130862Y378109D02*
X125913Y373160D01*
X120964Y378109D01*
X125913Y383058D01*
X130862Y378109D01*
X128763Y376010D02*
X123063Y376010D01*
X121715Y378860D02*
X130111Y378860D01*
X127261Y381710D02*
X124565Y381710D01*
X118459Y390512D02*
X113510Y385563D01*
X108561Y390512D01*
X113510Y395461D01*
X118459Y390512D01*
X116360Y388413D02*
X110660Y388413D01*
X109312Y391263D02*
X117708Y391263D01*
X114858Y394113D02*
X112162Y394113D01*
D20*
X358775Y241250D03*
X358775Y203250D03*
D21*
X209169Y343425D03*
X209169Y336925D03*
X209169Y330425D03*
X209169Y323925D03*
X209169Y317425D03*
X209169Y310925D03*
X209169Y304425D03*
X209169Y297925D03*
X152781Y297925D03*
X152781Y304425D03*
X152781Y310925D03*
X152781Y317425D03*
X152781Y323925D03*
X152781Y330425D03*
X152781Y336925D03*
X152781Y343425D03*
D22*
X180975Y320675D03*
D23*
X209169Y304425D02*
X219450Y304425D01*
X234950Y288925D01*
X263525Y288925D01*
X273050Y298450D01*
X273050Y304800D01*
X238200Y323925D02*
X209169Y323925D01*
X238200Y323925D02*
X247650Y333375D01*
X235025Y317425D02*
X209169Y317425D01*
X235025Y317425D02*
X247650Y304800D01*
X219450Y336925D02*
X209169Y336925D01*
X219450Y336925D02*
X234950Y352425D01*
X260350Y352425D01*
X273050Y339725D01*
X273050Y333375D01*
X47900Y276500D02*
X43751Y276500D01*
X47900Y276500D02*
X50800Y279400D01*
X50800Y314325D01*
X85725Y349250D02*
X85725Y377825D01*
D24*
X85725Y377825D03*
X85725Y396875D03*
D23*
X101600Y412750D01*
X107950Y412750D01*
D24*
X107950Y412750D03*
X174625Y409575D03*
D23*
X206375Y409575D01*
X234950Y381000D02*
X234950Y374650D01*
D24*
X234950Y374650D03*
D23*
X85725Y349250D02*
X50800Y314325D01*
X206375Y409575D02*
X234950Y381000D01*
D24*
X104775Y165100D03*
X419100Y234950D03*
X292100Y314325D03*
X149225Y117475D03*
X209550Y171450D03*
X301625Y244475D03*
X307975Y330200D03*
D25*
X292100Y314325D02*
X301625Y304800D01*
X320675Y304800D01*
X321663Y305788D01*
D24*
X321663Y305788D03*
X377825Y330200D03*
X314325Y187325D03*
X168275Y104775D03*
X365125Y114300D03*
X133350Y250825D03*
X117475Y269875D03*
X95250Y311150D03*
X266700Y174625D03*
X254000Y365125D03*
X285750Y374650D03*
D26*
X81400Y261500D02*
X43751Y261500D01*
X81400Y261500D02*
X88900Y254000D01*
X254000Y365125D02*
X276225Y365125D01*
X285750Y374650D01*
D24*
X88900Y254000D03*
X206375Y387350D03*
D27*
X193414Y400311D01*
X123597Y400311D01*
X136000Y387908D02*
X158192Y387908D01*
X168275Y377825D01*
D24*
X168275Y377825D03*
D23*
X266700Y31750D02*
X266700Y21050D01*
X266700Y31750D02*
X257175Y41275D01*
X225425Y41275D01*
X222250Y38100D01*
X215900Y31750D01*
X215900Y21050D01*
X53203Y149997D02*
X33482Y149997D01*
X69850Y116971D02*
X58882Y106003D01*
X63500Y139700D02*
X53203Y149997D01*
X63500Y139700D02*
X69850Y133350D01*
X69850Y116971D01*
X73025Y387854D02*
X58882Y401997D01*
X73025Y387854D02*
X73025Y374650D01*
X50800Y352425D01*
X39060Y352425D01*
X33482Y358003D01*
D24*
X222250Y38100D03*
D23*
X415925Y394204D02*
X423718Y401997D01*
X449118Y358003D02*
X445943Y354828D01*
X435747Y354828D01*
X415925Y374650D02*
X415925Y394204D01*
X415925Y374650D02*
X435747Y354828D01*
D24*
X135918Y317164D03*
D23*
X136180Y317425D01*
X152781Y317425D01*
X98425Y387854D02*
X73025Y387854D01*
X98425Y387854D02*
X110852Y387854D01*
X113510Y390512D01*
D24*
X333375Y98425D03*
D23*
X333375Y87635D01*
X337799Y83211D01*
D24*
X98425Y387854D03*
D23*
X69850Y139700D02*
X63500Y139700D01*
X69850Y139700D02*
X73025Y142875D01*
D24*
X73025Y142875D03*
X85725Y149225D03*
D23*
X104775Y149225D01*
X111125Y142875D01*
X139575Y142875D01*
X139700Y143000D01*
X267126Y282149D02*
X269449Y282149D01*
D24*
X267126Y282149D03*
D23*
X269449Y282149D02*
X285750Y298450D01*
D24*
X387350Y276225D03*
D23*
X412750Y276225D01*
D24*
X412750Y276225D03*
D23*
X435747Y299222D02*
X435747Y354828D01*
X435747Y299222D02*
X412750Y276225D01*
X209169Y343425D02*
X197375Y343425D01*
X196850Y342900D01*
D24*
X196850Y342900D03*
X203200Y288925D03*
D23*
X214828Y277297D01*
X250543Y277297D01*
D24*
X250543Y277297D03*
X384175Y311150D03*
D23*
X387350Y307975D01*
X387350Y276225D01*
D24*
X168275Y263525D03*
D23*
X152400Y279400D01*
X130175Y279400D01*
X127000Y282575D01*
X95250Y282575D01*
X76200Y301625D01*
X76200Y323850D01*
D24*
X76200Y323850D03*
X337941Y299518D03*
D23*
X336873Y298450D01*
X285750Y298450D01*
D24*
X282479Y73121D03*
D23*
X286032Y69568D01*
X301625Y69568D01*
D24*
X301625Y69568D03*
X330200Y73025D03*
D23*
X337799Y80624D01*
X337799Y83211D01*
X224897Y477953D02*
X215900Y486950D01*
X224897Y477953D02*
X246178Y477953D01*
D24*
X246178Y477953D03*
X133350Y371475D03*
D27*
X126716Y378109D01*
X125913Y378109D01*
D24*
X161925Y168275D03*
D27*
X160700Y169500D01*
X139700Y169500D01*
X139700Y182000D02*
X161925Y182000D01*
X165100Y185175D01*
X165100Y245463D01*
D24*
X165100Y245463D03*
X142875Y250825D03*
D27*
X142875Y254944D01*
X136195Y261624D01*
D24*
X136195Y261624D03*
X265712Y114300D03*
D27*
X335562Y44450D01*
X342900Y44450D01*
X363821Y65371D02*
X363821Y76238D01*
X363821Y65371D02*
X342900Y44450D01*
D24*
X165100Y152400D03*
D27*
X168275Y149225D01*
X168275Y123825D01*
X177800Y114300D01*
X265712Y114300D01*
X339082Y107950D02*
X354296Y92736D01*
X339082Y107950D02*
X285750Y107950D01*
D24*
X285750Y107950D03*
X273050Y95250D03*
X241300Y152400D03*
D27*
X247650Y146050D01*
X250825Y146050D01*
X285750Y111125D01*
X285750Y107950D01*
D24*
X180975Y120650D03*
D27*
X215900Y120650D01*
D24*
X215900Y120650D03*
D27*
X317609Y66713D02*
X347324Y66713D01*
X273050Y111273D02*
X273050Y117475D01*
X247650Y142875D01*
X234950Y142875D01*
D24*
X234950Y142875D03*
D27*
X273050Y111273D02*
X317609Y66713D01*
D24*
X206375Y244475D03*
D27*
X219075Y244475D01*
X234950Y228600D01*
X234950Y218132D01*
X228600Y211782D02*
X228600Y209550D01*
D24*
X228600Y209550D03*
D27*
X228600Y211782D02*
X234950Y218132D01*
D24*
X200307Y190370D03*
D27*
X200307Y194620D01*
X171913Y223014D01*
D24*
X171913Y223014D03*
X152400Y231775D03*
D27*
X140425Y231775D01*
X139700Y232500D01*
D24*
X127000Y193675D03*
D27*
X138875Y193675D01*
X139700Y194500D01*
D24*
X123825Y206375D03*
D27*
X124950Y207500D01*
X139700Y207500D01*
X139700Y220000D02*
X127925Y220000D01*
X123825Y215900D01*
D24*
X123825Y215900D03*
X355600Y149225D03*
D27*
X320675Y149225D01*
D24*
X288925Y211877D03*
D27*
X307975Y192827D01*
X320675Y149225D02*
X314043Y142593D01*
X314043Y123255D01*
D24*
X314043Y123255D03*
X387350Y257175D03*
D27*
X377825Y266700D01*
X361950Y266700D01*
X327025Y231775D01*
X307975Y231775D01*
X288925Y212725D01*
X288925Y211877D01*
D24*
X304800Y161925D03*
D27*
X304800Y180975D01*
X307975Y184150D01*
X307975Y192827D01*
D24*
X323850Y180975D03*
D27*
X323850Y170703D01*
X320675Y167528D01*
D24*
X320675Y167528D03*
X282575Y218793D03*
D27*
X298732Y234950D01*
X323850Y234950D01*
X348134Y259234D01*
X348134Y262409D01*
D24*
X348134Y262409D03*
X301625Y139700D03*
D27*
X342900Y180975D01*
X346075Y180975D01*
D24*
X346075Y180975D03*
D27*
X367406Y179664D02*
X430068Y117001D01*
X367406Y179664D02*
X358775Y179664D01*
D24*
X358775Y179664D03*
X387350Y228600D03*
D27*
X403225Y244475D01*
D24*
X403225Y244475D03*
X412750Y323850D03*
D27*
X412750Y368300D01*
X409575Y371475D01*
X409575Y409575D01*
X358775Y460375D01*
X260350Y460375D02*
X254000Y466725D01*
X254000Y486950D01*
X260350Y460375D02*
X358775Y460375D01*
D24*
X387350Y244475D03*
D27*
X390525Y244475D01*
X406400Y260350D01*
D24*
X406400Y260350D03*
X425450Y339725D03*
D27*
X425450Y349250D01*
X419100Y355600D01*
D24*
X419100Y355600D03*
X406400Y355600D03*
D27*
X403225Y358775D01*
X403225Y406400D01*
X355600Y454025D01*
X193675Y454025D01*
X171450Y476250D01*
X168275Y476250D01*
X104417Y446473D01*
X101600Y444500D01*
X73025Y415925D01*
X73025Y406400D01*
D24*
X73025Y406400D03*
X101600Y136525D03*
D27*
X111125Y127000D01*
X111125Y120650D01*
D24*
X111125Y120650D03*
X158750Y47625D03*
D27*
X203200Y47625D01*
X219075Y63500D01*
X347211Y44450D02*
X353865Y44450D01*
X355290Y45115D01*
X347211Y44450D02*
X344163Y41402D01*
X333248Y41402D01*
X311150Y63500D01*
X355290Y45115D02*
X373676Y63500D01*
X377825Y63500D01*
X311150Y63500D02*
X219075Y63500D01*
X377825Y63500D02*
X393700Y79375D01*
X393700Y102736D02*
X378393Y118043D01*
X393700Y102736D02*
X393700Y79375D01*
X378393Y118043D02*
X378393Y160095D01*
X377194Y161294D01*
D24*
X377194Y161294D03*
X390538Y165113D03*
D27*
X390538Y184137D01*
X390525Y184150D01*
X390525Y212725D01*
X371475Y231775D01*
X336550Y231775D01*
D24*
X336550Y231775D03*
X206375Y38100D03*
D27*
X222250Y53975D01*
X241300Y53975D01*
D24*
X241300Y53975D03*
X257175Y50800D03*
D27*
X276225Y50800D01*
X282575Y44450D01*
D24*
X282575Y44450D03*
X431800Y174625D03*
D27*
X431800Y149966D01*
X442768Y138999D01*
D24*
X225270Y190500D03*
D27*
X225270Y197005D01*
X187325Y234950D01*
X187325Y298450D01*
X184150Y301625D01*
D24*
X184150Y301625D03*
X136525Y292100D03*
D27*
X104775Y292100D01*
X85725Y311150D01*
X85725Y342900D01*
X92075Y349250D01*
X92075Y361950D01*
X105763Y375638D02*
X105763Y377825D01*
D24*
X105763Y377825D03*
X107950Y400050D03*
D27*
X130175Y422275D01*
X336550Y396875D02*
X339725Y396875D01*
D24*
X339725Y396875D03*
D27*
X105763Y375638D02*
X92075Y361950D01*
X130175Y422275D02*
X311150Y422275D01*
X336550Y396875D01*
D24*
X268996Y195971D03*
D27*
X268996Y230896D01*
X319994Y281894D02*
X333375Y281894D01*
D24*
X333375Y281894D03*
X288925Y323850D03*
D27*
X311150Y346075D01*
X311150Y400050D01*
D24*
X311150Y400050D03*
D27*
X319994Y281894D02*
X268996Y230896D01*
D24*
X253878Y152400D03*
D27*
X283691Y122587D01*
X283691Y121766D01*
D24*
X283691Y121766D03*
X238125Y82550D03*
D27*
X161925Y82550D01*
X139700Y104775D02*
X101600Y104775D01*
D24*
X66675Y244475D03*
D27*
X83693Y122682D02*
X101600Y104775D01*
X83693Y122682D02*
X83693Y141489D01*
X73025Y152157D01*
X73025Y238125D02*
X66675Y244475D01*
X73025Y238125D02*
X73025Y152157D01*
X139700Y104775D02*
X161925Y82550D01*
D24*
X152682Y100375D03*
D27*
X167459Y85598D01*
X228473Y85598D01*
X234950Y92075D01*
X250825Y92075D01*
X258313Y84587D01*
X286844Y84587D01*
D24*
X286844Y84587D03*
X390525Y327025D03*
D27*
X410691Y306859D01*
X413866Y306859D01*
D24*
X413866Y306859D03*
X350873Y328013D03*
D27*
X350873Y322227D01*
X352329Y320771D02*
X352329Y304896D01*
X352329Y320771D02*
X350873Y322227D01*
D24*
X352329Y304896D03*
D27*
X384175Y320675D02*
X390525Y327025D01*
X358211Y320675D02*
X350873Y328013D01*
X358211Y320675D02*
X384175Y320675D01*
X380319Y111806D02*
X380319Y85763D01*
X339725Y123825D02*
X336124Y127426D01*
D24*
X336124Y127426D03*
D27*
X368300Y123825D02*
X380319Y111806D01*
X368300Y123825D02*
X339725Y123825D01*
X358775Y203250D02*
X317550Y203250D01*
X311842Y197542D01*
D24*
X311842Y197542D03*
X301625Y190500D03*
D27*
X298450Y187325D01*
X269060Y187325D01*
X256360Y200025D01*
X256360Y206375D02*
X259535Y209550D01*
X256360Y206375D02*
X256360Y200025D01*
D24*
X259535Y209550D03*
X328013Y136525D03*
D27*
X323850Y132362D01*
X323850Y117475D01*
X320675Y114300D01*
X301625Y114300D01*
X292100Y123825D01*
X292100Y161925D01*
X301625Y171450D01*
X301625Y190500D01*
X152781Y343425D02*
X142793Y343425D01*
X139093Y339725D01*
D24*
X139093Y339725D03*
X193675Y296771D03*
D27*
X193675Y234950D01*
X231338Y197287D02*
X231338Y164855D01*
D24*
X231338Y164855D03*
D27*
X231338Y197287D02*
X193675Y234950D01*
D24*
X222250Y165100D03*
D27*
X206375Y149225D01*
X193827Y149225D01*
X168351Y174701D01*
D24*
X168351Y174701D03*
X158750Y190500D03*
D27*
X158750Y247650D01*
X133350Y273050D01*
X127000Y273050D01*
X123825Y276225D01*
X88900Y276225D01*
X76200Y288925D01*
X76200Y292100D01*
D24*
X84609Y303684D03*
D27*
X78714Y329918D02*
X73687Y329918D01*
X78714Y329918D02*
X82268Y326364D01*
X82268Y306026D02*
X84609Y303684D01*
X82268Y306026D02*
X82268Y326364D01*
D24*
X102037Y339310D03*
D27*
X102037Y352862D01*
X114300Y365125D01*
X149225Y365125D01*
X168275Y346075D01*
X168275Y339725D01*
X165475Y336925D01*
X76200Y292100D02*
X69850Y298450D01*
X69850Y326082D01*
X73687Y329918D01*
X152781Y336925D02*
X165475Y336925D01*
X165475Y304425D02*
X152781Y304425D01*
X177800Y292100D02*
X177800Y260350D01*
X177800Y231775D01*
X209550Y200025D01*
X209550Y184150D02*
X200025Y174625D01*
D24*
X200025Y174625D03*
D27*
X177800Y292100D02*
X165475Y304425D01*
X209550Y200025D02*
X209550Y184150D01*
X167664Y297925D02*
X152781Y297925D01*
X174752Y290837D02*
X174752Y230512D01*
X206375Y198889D02*
X206375Y187325D01*
X206375Y198889D02*
X174752Y230512D01*
X174752Y290837D02*
X167664Y297925D01*
X206375Y187325D02*
X201689Y182639D01*
X195186Y182639D01*
D24*
X195186Y182639D03*
X238125Y345087D03*
D27*
X233962Y345087D01*
X219075Y330200D01*
X209394Y330200D01*
X209169Y330425D01*
X208944Y311150D02*
X209169Y310925D01*
X208944Y311150D02*
X200025Y311150D01*
X196850Y314325D01*
X196850Y327025D01*
X200250Y330425D02*
X209169Y330425D01*
X200250Y330425D02*
X196850Y327025D01*
D24*
X95250Y323850D03*
D27*
X105000Y333600D01*
X130556Y330425D02*
X152781Y330425D01*
X130556Y330425D02*
X127381Y333600D01*
X105000Y333600D01*
X133575Y310925D02*
X152781Y310925D01*
X133575Y310925D02*
X127000Y317500D01*
X127000Y323850D01*
D24*
X127000Y323850D03*
X196850Y133350D03*
D27*
X219075Y155575D01*
X230639Y155575D01*
X244475Y169411D02*
X244475Y200025D01*
X238125Y206375D01*
X238125Y212725D01*
D24*
X238125Y212725D03*
D27*
X244475Y169411D02*
X230639Y155575D01*
D24*
X250825Y190500D03*
D27*
X250825Y177800D01*
D24*
X250825Y177800D03*
M02*
