G04 EAGLE Gerber RS-274X export*
G75*
%MOMM*%
%FSLAX34Y34*%
%LPD*%
%IN*%
%IPPOS*%
%AMOC8*
5,1,8,0,0,1.08239X$1,22.5*%
G01*
%ADD10C,0.254000*%


D10*
X486300Y250993D02*
X486300Y257007D01*
X486152Y263018D01*
X485857Y269025D01*
X485415Y275022D01*
X484826Y281006D01*
X484089Y286975D01*
X483207Y292923D01*
X482179Y298848D01*
X481006Y304746D01*
X479688Y310614D01*
X478227Y316447D01*
X476623Y322242D01*
X474878Y327997D01*
X472991Y333707D01*
X470965Y339369D01*
X468801Y344980D01*
X466500Y350535D01*
X464063Y356033D01*
X461492Y361469D01*
X458788Y366840D01*
X455953Y372144D01*
X452989Y377376D01*
X449898Y382534D01*
X446681Y387615D01*
X443340Y392615D01*
X439877Y397531D01*
X436295Y402361D01*
X432595Y407102D01*
X428780Y411751D01*
X424852Y416304D01*
X420814Y420760D01*
X416667Y425115D01*
X412415Y429367D01*
X408060Y433514D01*
X403604Y437552D01*
X399051Y441480D01*
X394402Y445295D01*
X389661Y448995D01*
X384831Y452577D01*
X379915Y456040D01*
X374915Y459381D01*
X369834Y462598D01*
X364676Y465689D01*
X359444Y468653D01*
X354140Y471488D01*
X348769Y474192D01*
X343333Y476763D01*
X337835Y479200D01*
X332280Y481501D01*
X326669Y483665D01*
X321007Y485691D01*
X315297Y487578D01*
X309542Y489323D01*
X303747Y490927D01*
X297914Y492388D01*
X292046Y493706D01*
X286148Y494879D01*
X280223Y495907D01*
X274275Y496789D01*
X268306Y497526D01*
X262322Y498115D01*
X256325Y498557D01*
X250318Y498852D01*
X244307Y499000D01*
X238293Y499000D01*
X232282Y498852D01*
X226275Y498557D01*
X220278Y498115D01*
X214294Y497526D01*
X208325Y496789D01*
X202377Y495907D01*
X196452Y494879D01*
X190554Y493706D01*
X184687Y492388D01*
X178853Y490927D01*
X173058Y489323D01*
X167303Y487578D01*
X161593Y485691D01*
X155931Y483665D01*
X150320Y481501D01*
X144765Y479200D01*
X139267Y476763D01*
X133831Y474192D01*
X128460Y471488D01*
X123156Y468653D01*
X117924Y465689D01*
X112766Y462598D01*
X107685Y459381D01*
X102685Y456040D01*
X97769Y452577D01*
X92939Y448995D01*
X88198Y445295D01*
X83549Y441480D01*
X78996Y437552D01*
X74540Y433514D01*
X70185Y429367D01*
X65933Y425115D01*
X61786Y420760D01*
X57748Y416304D01*
X53820Y411751D01*
X50005Y407102D01*
X46305Y402361D01*
X42723Y397531D01*
X39260Y392615D01*
X35919Y387615D01*
X32702Y382534D01*
X29611Y377376D01*
X26647Y372144D01*
X23812Y366840D01*
X21108Y361469D01*
X18537Y356033D01*
X16100Y350535D01*
X13799Y344980D01*
X11635Y339369D01*
X9609Y333707D01*
X7722Y327997D01*
X5977Y322242D01*
X4373Y316447D01*
X2912Y310614D01*
X1594Y304746D01*
X421Y298848D01*
X-607Y292923D01*
X-1489Y286975D01*
X-2226Y281006D01*
X-2815Y275022D01*
X-3257Y269025D01*
X-3552Y263018D01*
X-3700Y257007D01*
X-3700Y250993D01*
X-3552Y244982D01*
X-3257Y238975D01*
X-2815Y232978D01*
X-2226Y226994D01*
X-1489Y221025D01*
X-607Y215077D01*
X421Y209152D01*
X1594Y203254D01*
X2912Y197387D01*
X4373Y191553D01*
X5977Y185758D01*
X7722Y180003D01*
X9609Y174293D01*
X11635Y168631D01*
X13799Y163020D01*
X16100Y157465D01*
X18537Y151967D01*
X21108Y146531D01*
X23812Y141160D01*
X26647Y135856D01*
X29611Y130624D01*
X32702Y125466D01*
X35919Y120385D01*
X39260Y115385D01*
X42723Y110469D01*
X46305Y105639D01*
X50005Y100898D01*
X53820Y96249D01*
X57748Y91696D01*
X61786Y87240D01*
X65933Y82885D01*
X70185Y78633D01*
X74540Y74486D01*
X78996Y70448D01*
X83549Y66520D01*
X88198Y62705D01*
X92939Y59005D01*
X97769Y55423D01*
X102685Y51960D01*
X107685Y48619D01*
X112766Y45402D01*
X117924Y42311D01*
X123156Y39347D01*
X128460Y36512D01*
X133831Y33808D01*
X139267Y31237D01*
X144765Y28800D01*
X150320Y26499D01*
X155931Y24335D01*
X161593Y22309D01*
X167303Y20422D01*
X173058Y18677D01*
X178853Y17073D01*
X184687Y15612D01*
X190554Y14294D01*
X196452Y13121D01*
X202377Y12093D01*
X208325Y11211D01*
X214294Y10474D01*
X220278Y9885D01*
X226275Y9443D01*
X232282Y9148D01*
X238293Y9000D01*
X244307Y9000D01*
X250318Y9148D01*
X256325Y9443D01*
X262322Y9885D01*
X268306Y10474D01*
X274275Y11211D01*
X280223Y12093D01*
X286148Y13121D01*
X292046Y14294D01*
X297914Y15612D01*
X303747Y17073D01*
X309542Y18677D01*
X315297Y20422D01*
X321007Y22309D01*
X326669Y24335D01*
X332280Y26499D01*
X337835Y28800D01*
X343333Y31237D01*
X348769Y33808D01*
X354140Y36512D01*
X359444Y39347D01*
X364676Y42311D01*
X369834Y45402D01*
X374915Y48619D01*
X379915Y51960D01*
X384831Y55423D01*
X389661Y59005D01*
X394402Y62705D01*
X399051Y66520D01*
X403604Y70448D01*
X408060Y74486D01*
X412415Y78633D01*
X416667Y82885D01*
X420814Y87240D01*
X424852Y91696D01*
X428780Y96249D01*
X432595Y100898D01*
X436295Y105639D01*
X439877Y110469D01*
X443340Y115385D01*
X446681Y120385D01*
X449898Y125466D01*
X452989Y130624D01*
X455953Y135856D01*
X458788Y141160D01*
X461492Y146531D01*
X464063Y151967D01*
X466500Y157465D01*
X468801Y163020D01*
X470965Y168631D01*
X472991Y174293D01*
X474878Y180003D01*
X476623Y185758D01*
X478227Y191553D01*
X479688Y197387D01*
X481006Y203254D01*
X482179Y209152D01*
X483207Y215077D01*
X484089Y221025D01*
X484826Y226994D01*
X485415Y232978D01*
X485857Y238975D01*
X486152Y244982D01*
X486300Y250993D01*
X132825Y78982D02*
X132825Y79768D01*
X132757Y80551D01*
X132620Y81325D01*
X132417Y82084D01*
X132148Y82822D01*
X131816Y83535D01*
X131423Y84215D01*
X130972Y84859D01*
X130467Y85461D01*
X129911Y86017D01*
X129309Y86522D01*
X128665Y86973D01*
X127985Y87366D01*
X127272Y87698D01*
X126534Y87967D01*
X125775Y88170D01*
X125001Y88307D01*
X124218Y88375D01*
X123432Y88375D01*
X122649Y88307D01*
X121875Y88170D01*
X121116Y87967D01*
X120378Y87698D01*
X119665Y87366D01*
X118985Y86973D01*
X118341Y86522D01*
X117739Y86017D01*
X117183Y85461D01*
X116678Y84859D01*
X116227Y84215D01*
X115834Y83535D01*
X115502Y82822D01*
X115233Y82084D01*
X115030Y81325D01*
X114894Y80551D01*
X114825Y79768D01*
X114825Y78982D01*
X114894Y78199D01*
X115030Y77425D01*
X115233Y76666D01*
X115502Y75928D01*
X115834Y75215D01*
X116227Y74535D01*
X116678Y73891D01*
X117183Y73289D01*
X117739Y72733D01*
X118341Y72228D01*
X118985Y71777D01*
X119665Y71384D01*
X120378Y71052D01*
X121116Y70783D01*
X121875Y70580D01*
X122649Y70444D01*
X123432Y70375D01*
X124218Y70375D01*
X125001Y70444D01*
X125775Y70580D01*
X126534Y70783D01*
X127272Y71052D01*
X127985Y71384D01*
X128665Y71777D01*
X129309Y72228D01*
X129911Y72733D01*
X130467Y73289D01*
X130972Y73891D01*
X131423Y74535D01*
X131816Y75215D01*
X132148Y75928D01*
X132417Y76666D01*
X132620Y77425D01*
X132757Y78199D01*
X132825Y78982D01*
X367775Y428232D02*
X367775Y429018D01*
X367707Y429801D01*
X367570Y430575D01*
X367367Y431334D01*
X367098Y432072D01*
X366766Y432785D01*
X366373Y433465D01*
X365922Y434109D01*
X365417Y434711D01*
X364861Y435267D01*
X364259Y435772D01*
X363615Y436223D01*
X362935Y436616D01*
X362222Y436948D01*
X361484Y437217D01*
X360725Y437420D01*
X359951Y437557D01*
X359168Y437625D01*
X358382Y437625D01*
X357599Y437557D01*
X356825Y437420D01*
X356066Y437217D01*
X355328Y436948D01*
X354615Y436616D01*
X353935Y436223D01*
X353291Y435772D01*
X352689Y435267D01*
X352133Y434711D01*
X351628Y434109D01*
X351177Y433465D01*
X350784Y432785D01*
X350452Y432072D01*
X350183Y431334D01*
X349980Y430575D01*
X349844Y429801D01*
X349775Y429018D01*
X349775Y428232D01*
X349844Y427449D01*
X349980Y426675D01*
X350183Y425916D01*
X350452Y425178D01*
X350784Y424465D01*
X351177Y423785D01*
X351628Y423141D01*
X352133Y422539D01*
X352689Y421983D01*
X353291Y421478D01*
X353935Y421027D01*
X354615Y420634D01*
X355328Y420302D01*
X356066Y420033D01*
X356825Y419830D01*
X357599Y419694D01*
X358382Y419625D01*
X359168Y419625D01*
X359951Y419694D01*
X360725Y419830D01*
X361484Y420033D01*
X362222Y420302D01*
X362935Y420634D01*
X363615Y421027D01*
X364259Y421478D01*
X364861Y421983D01*
X365417Y422539D01*
X365922Y423141D01*
X366373Y423785D01*
X366766Y424465D01*
X367098Y425178D01*
X367367Y425916D01*
X367570Y426675D01*
X367707Y427449D01*
X367775Y428232D01*
X26546Y264500D02*
X27131Y264577D01*
X27700Y264730D01*
X28245Y264955D01*
X28756Y265250D01*
X29224Y265609D01*
X29641Y266027D01*
X30000Y266495D01*
X30295Y267005D01*
X30521Y267550D01*
X30674Y268120D01*
X30751Y268705D01*
X30751Y269295D01*
X30674Y269880D01*
X30521Y270450D01*
X30295Y270995D01*
X30000Y271505D01*
X29641Y271973D01*
X29224Y272391D01*
X28756Y272750D01*
X28245Y273045D01*
X27700Y273270D01*
X27131Y273423D01*
X26546Y273500D01*
X25956Y273500D01*
X25371Y273423D01*
X24801Y273270D01*
X24256Y273045D01*
X23745Y272750D01*
X23277Y272391D01*
X22860Y271973D01*
X22501Y271505D01*
X22206Y270995D01*
X21980Y270450D01*
X21828Y269880D01*
X21751Y269295D01*
X21751Y268705D01*
X21828Y268120D01*
X21980Y267550D01*
X22206Y267005D01*
X22501Y266495D01*
X22860Y266027D01*
X23277Y265609D01*
X23745Y265250D01*
X24256Y264955D01*
X24801Y264730D01*
X25371Y264577D01*
X25956Y264500D01*
X26546Y264500D01*
X26546Y234500D02*
X27131Y234577D01*
X27700Y234730D01*
X28245Y234955D01*
X28756Y235250D01*
X29224Y235609D01*
X29641Y236027D01*
X30000Y236495D01*
X30295Y237005D01*
X30521Y237550D01*
X30674Y238120D01*
X30751Y238705D01*
X30751Y239295D01*
X30674Y239880D01*
X30521Y240450D01*
X30295Y240995D01*
X30000Y241505D01*
X29641Y241973D01*
X29224Y242391D01*
X28756Y242750D01*
X28245Y243045D01*
X27700Y243270D01*
X27131Y243423D01*
X26546Y243500D01*
X25956Y243500D01*
X25371Y243423D01*
X24801Y243270D01*
X24256Y243045D01*
X23745Y242750D01*
X23277Y242391D01*
X22860Y241973D01*
X22501Y241505D01*
X22206Y240995D01*
X21980Y240450D01*
X21828Y239880D01*
X21751Y239295D01*
X21751Y238705D01*
X21828Y238120D01*
X21980Y237550D01*
X22206Y237005D01*
X22501Y236495D01*
X22860Y236027D01*
X23277Y235609D01*
X23745Y235250D01*
X24256Y234955D01*
X24801Y234730D01*
X25371Y234577D01*
X25956Y234500D01*
X26546Y234500D01*
M02*
