G04 EAGLE Gerber RS-274X export*
G75*
%MOMM*%
%FSLAX34Y34*%
%LPD*%
%INSoldermask Top*%
%IPPOS*%
%AMOC8*
5,1,8,0,0,1.08239X$1,22.5*%
G01*
%ADD10R,1.473200X0.762000*%
%ADD11R,0.762000X1.473200*%
%ADD12R,1.403200X0.903200*%
%ADD13C,2.082800*%
%ADD14C,1.103200*%
%ADD15R,0.753200X1.403200*%
%ADD16R,1.422400X2.438400*%
%ADD17R,3.803200X2.403200*%
%ADD18C,1.261200*%
%ADD19C,1.879600*%
%ADD20R,1.103200X1.053200*%
%ADD21R,1.203200X1.303200*%
%ADD22R,1.053200X1.103200*%
%ADD23R,1.303200X1.203200*%
%ADD24R,1.803200X1.603200*%
%ADD25R,1.203200X0.453200*%
%ADD26R,1.828800X0.711200*%
%ADD27R,1.103200X1.003200*%
%ADD28C,0.965200*%
%ADD29R,0.803200X2.053200*%
%ADD30R,0.803200X1.853200*%
%ADD31C,0.959600*%


D10*
G36*
X230085Y226400D02*
X219669Y236816D01*
X225057Y242204D01*
X235473Y231788D01*
X230085Y226400D01*
G37*
G36*
X224428Y220743D02*
X214012Y231159D01*
X219400Y236547D01*
X229816Y226131D01*
X224428Y220743D01*
G37*
G36*
X218771Y215087D02*
X208355Y225503D01*
X213743Y230891D01*
X224159Y220475D01*
X218771Y215087D01*
G37*
G36*
X213114Y209430D02*
X202698Y219846D01*
X208086Y225234D01*
X218502Y214818D01*
X213114Y209430D01*
G37*
G36*
X207457Y203773D02*
X197041Y214189D01*
X202429Y219577D01*
X212845Y209161D01*
X207457Y203773D01*
G37*
G36*
X201800Y198116D02*
X191384Y208532D01*
X196772Y213920D01*
X207188Y203504D01*
X201800Y198116D01*
G37*
G36*
X196144Y192459D02*
X185728Y202875D01*
X191116Y208263D01*
X201532Y197847D01*
X196144Y192459D01*
G37*
G36*
X190487Y186802D02*
X180071Y197218D01*
X185459Y202606D01*
X195875Y192190D01*
X190487Y186802D01*
G37*
D11*
G36*
X185459Y165694D02*
X180071Y171082D01*
X190487Y181498D01*
X195875Y176110D01*
X185459Y165694D01*
G37*
G36*
X191116Y160037D02*
X185728Y165425D01*
X196144Y175841D01*
X201532Y170453D01*
X191116Y160037D01*
G37*
G36*
X196772Y154380D02*
X191384Y159768D01*
X201800Y170184D01*
X207188Y164796D01*
X196772Y154380D01*
G37*
G36*
X202429Y148723D02*
X197041Y154111D01*
X207457Y164527D01*
X212845Y159139D01*
X202429Y148723D01*
G37*
G36*
X208086Y143066D02*
X202698Y148454D01*
X213114Y158870D01*
X218502Y153482D01*
X208086Y143066D01*
G37*
G36*
X213743Y137409D02*
X208355Y142797D01*
X218771Y153213D01*
X224159Y147825D01*
X213743Y137409D01*
G37*
G36*
X219400Y131753D02*
X214012Y137141D01*
X224428Y147557D01*
X229816Y142169D01*
X219400Y131753D01*
G37*
G36*
X225057Y126096D02*
X219669Y131484D01*
X230085Y141900D01*
X235473Y136512D01*
X225057Y126096D01*
G37*
D10*
G36*
X251193Y126096D02*
X240777Y136512D01*
X246165Y141900D01*
X256581Y131484D01*
X251193Y126096D01*
G37*
G36*
X256850Y131753D02*
X246434Y142169D01*
X251822Y147557D01*
X262238Y137141D01*
X256850Y131753D01*
G37*
G36*
X262507Y137409D02*
X252091Y147825D01*
X257479Y153213D01*
X267895Y142797D01*
X262507Y137409D01*
G37*
G36*
X268164Y143066D02*
X257748Y153482D01*
X263136Y158870D01*
X273552Y148454D01*
X268164Y143066D01*
G37*
G36*
X273821Y148723D02*
X263405Y159139D01*
X268793Y164527D01*
X279209Y154111D01*
X273821Y148723D01*
G37*
G36*
X279478Y154380D02*
X269062Y164796D01*
X274450Y170184D01*
X284866Y159768D01*
X279478Y154380D01*
G37*
G36*
X285134Y160037D02*
X274718Y170453D01*
X280106Y175841D01*
X290522Y165425D01*
X285134Y160037D01*
G37*
G36*
X290791Y165694D02*
X280375Y176110D01*
X285763Y181498D01*
X296179Y171082D01*
X290791Y165694D01*
G37*
D11*
G36*
X285763Y186802D02*
X280375Y192190D01*
X290791Y202606D01*
X296179Y197218D01*
X285763Y186802D01*
G37*
G36*
X280106Y192459D02*
X274718Y197847D01*
X285134Y208263D01*
X290522Y202875D01*
X280106Y192459D01*
G37*
G36*
X274450Y198116D02*
X269062Y203504D01*
X279478Y213920D01*
X284866Y208532D01*
X274450Y198116D01*
G37*
G36*
X268793Y203773D02*
X263405Y209161D01*
X273821Y219577D01*
X279209Y214189D01*
X268793Y203773D01*
G37*
G36*
X263136Y209430D02*
X257748Y214818D01*
X268164Y225234D01*
X273552Y219846D01*
X263136Y209430D01*
G37*
G36*
X257479Y215087D02*
X252091Y220475D01*
X262507Y230891D01*
X267895Y225503D01*
X257479Y215087D01*
G37*
G36*
X251822Y220743D02*
X246434Y226131D01*
X256850Y236547D01*
X262238Y231159D01*
X251822Y220743D01*
G37*
G36*
X246165Y226400D02*
X240777Y231788D01*
X251193Y242204D01*
X256581Y236816D01*
X246165Y226400D01*
G37*
D12*
X226300Y266050D03*
X226300Y280050D03*
X256300Y266050D03*
X256300Y280050D03*
D13*
X247650Y333375D03*
X273050Y333375D03*
X273050Y304800D03*
X247650Y304800D03*
D14*
X26251Y269000D03*
X26251Y239000D03*
D15*
X206400Y374349D03*
X215900Y374349D03*
X225400Y374349D03*
X225400Y400351D03*
X206400Y400351D03*
D16*
X154686Y261112D03*
X177800Y261112D03*
X200914Y261112D03*
D17*
X177800Y323090D03*
D13*
X292100Y400050D03*
X266700Y400050D03*
X130770Y441816D03*
X153790Y452551D03*
D18*
X228600Y21050D03*
X254000Y21050D03*
X266700Y21050D03*
X215900Y21050D03*
X430068Y117001D03*
X442768Y138999D03*
X449118Y149997D03*
X423718Y106003D03*
X442768Y369001D03*
X430068Y390999D03*
X423718Y401997D03*
X449118Y358003D03*
X254000Y486950D03*
X228600Y486950D03*
X215900Y486950D03*
X266700Y486950D03*
X52532Y390999D03*
X39832Y369001D03*
X33482Y358003D03*
X58882Y401997D03*
X39832Y138999D03*
X52532Y117001D03*
X58882Y106003D03*
X33482Y149997D03*
D19*
X450850Y234000D03*
X450850Y274000D03*
D20*
X323850Y340275D03*
X323850Y351875D03*
X336550Y351875D03*
X336550Y340275D03*
D21*
X365125Y354575D03*
X365125Y337575D03*
D22*
X186775Y377825D03*
X175175Y377825D03*
D23*
X172475Y390525D03*
X189475Y390525D03*
D22*
X175175Y365125D03*
X186775Y365125D03*
D23*
X291075Y355600D03*
X274075Y355600D03*
D24*
X107950Y283875D03*
X107950Y255875D03*
X104775Y201900D03*
X104775Y229900D03*
D25*
X328119Y308450D03*
X328119Y303450D03*
X328119Y298450D03*
X328119Y293450D03*
X328119Y288450D03*
X370381Y288450D03*
X370381Y293450D03*
X370381Y298450D03*
X370381Y303450D03*
X370381Y308450D03*
D20*
X155575Y377275D03*
X155575Y365675D03*
D26*
X328295Y273275D03*
X328295Y266775D03*
X328295Y260275D03*
X328295Y253775D03*
X370205Y253775D03*
X370205Y260275D03*
X370205Y266775D03*
X370205Y273275D03*
D22*
X127550Y177800D03*
X139150Y177800D03*
X127550Y165100D03*
X139150Y165100D03*
X127550Y152400D03*
X139150Y152400D03*
X289475Y285750D03*
X301075Y285750D03*
X289475Y273050D03*
X301075Y273050D03*
X289475Y260350D03*
X301075Y260350D03*
X337100Y149225D03*
X348700Y149225D03*
X337100Y161925D03*
X348700Y161925D03*
X348700Y136525D03*
X337100Y136525D03*
D23*
X351400Y114300D03*
X334400Y114300D03*
D22*
X139150Y139700D03*
X127550Y139700D03*
X418550Y215900D03*
X406950Y215900D03*
X339175Y371475D03*
X327575Y371475D03*
D20*
X295275Y443950D03*
X295275Y432350D03*
D22*
X64050Y292100D03*
X75650Y292100D03*
X127550Y127000D03*
X139150Y127000D03*
D27*
X301150Y225400D03*
X301150Y206400D03*
X322150Y215900D03*
D20*
X346075Y199475D03*
X346075Y187875D03*
X358775Y199475D03*
X358775Y187875D03*
X371475Y199475D03*
X371475Y187875D03*
X371475Y213275D03*
X371475Y224875D03*
X358775Y213275D03*
X358775Y224875D03*
X346075Y213275D03*
X346075Y224875D03*
X349250Y351875D03*
X349250Y340275D03*
D28*
X384175Y298450D03*
D20*
X304800Y316950D03*
X304800Y305350D03*
D21*
X104775Y305825D03*
X104775Y322825D03*
X120650Y322825D03*
X120650Y305825D03*
D29*
X214550Y101050D03*
X224550Y101050D03*
X204550Y101050D03*
X194550Y101050D03*
D30*
X194550Y63800D03*
X204550Y63800D03*
X214550Y63800D03*
X224550Y63800D03*
D31*
X85725Y377825D03*
X85725Y396875D03*
X107950Y412750D03*
X174625Y409575D03*
X234950Y374650D03*
X104775Y165100D03*
X419100Y234950D03*
X292100Y314325D03*
X149225Y117475D03*
X209550Y171450D03*
X301625Y244475D03*
X307975Y330200D03*
X321663Y305788D03*
X377825Y330200D03*
X314325Y187325D03*
X168275Y104775D03*
X365125Y114300D03*
X133350Y250825D03*
X117475Y269875D03*
X95250Y311150D03*
X266700Y174625D03*
X254000Y365125D03*
X285750Y374650D03*
X88900Y254000D03*
X206375Y387350D03*
X168275Y377825D03*
X222250Y38100D03*
X135918Y317164D03*
X333375Y98425D03*
X98425Y387854D03*
X73025Y142875D03*
X85725Y149225D03*
X267126Y282149D03*
X387350Y276225D03*
X412750Y276225D03*
X196850Y342900D03*
X203200Y288925D03*
X250543Y277297D03*
X384175Y311150D03*
X168275Y263525D03*
X76200Y323850D03*
X337941Y299518D03*
X282479Y73121D03*
X301625Y69568D03*
X330200Y73025D03*
X246178Y477953D03*
X133350Y371475D03*
X161925Y168275D03*
X165100Y245463D03*
X142875Y250825D03*
X136195Y261624D03*
X265712Y114300D03*
X165100Y152400D03*
X285750Y107950D03*
X273050Y95250D03*
X241300Y152400D03*
X180975Y120650D03*
X215900Y120650D03*
X234950Y142875D03*
X206375Y244475D03*
X228600Y209550D03*
X200307Y190370D03*
X171913Y223014D03*
X152400Y231775D03*
X127000Y193675D03*
X123825Y206375D03*
X123825Y215900D03*
X355600Y149225D03*
X288925Y211877D03*
X314043Y123255D03*
X387350Y257175D03*
X304800Y161925D03*
X323850Y180975D03*
X320675Y167528D03*
X282575Y218793D03*
X348134Y262409D03*
X301625Y139700D03*
X346075Y180975D03*
X358775Y179664D03*
X387350Y228600D03*
X403225Y244475D03*
X412750Y323850D03*
X387350Y244475D03*
X406400Y260350D03*
X425450Y339725D03*
X419100Y355600D03*
X406400Y355600D03*
X73025Y406400D03*
X101600Y136525D03*
X111125Y120650D03*
X158750Y47625D03*
X377194Y161294D03*
X390538Y165113D03*
X336550Y231775D03*
X206375Y38100D03*
X241300Y53975D03*
X257175Y50800D03*
X282575Y44450D03*
X431800Y174625D03*
X225270Y190500D03*
X184150Y301625D03*
X136525Y292100D03*
X105763Y377825D03*
X107950Y400050D03*
X339725Y396875D03*
X268996Y195971D03*
X333375Y281894D03*
X288925Y323850D03*
X311150Y400050D03*
X253878Y152400D03*
X283691Y121766D03*
X238125Y82550D03*
X66675Y244475D03*
X152682Y100375D03*
X286844Y84587D03*
X390525Y327025D03*
X413866Y306859D03*
X350873Y328013D03*
X352329Y304896D03*
X336124Y127426D03*
X311842Y197542D03*
X301625Y190500D03*
X259535Y209550D03*
X328013Y136525D03*
X139093Y339725D03*
X193675Y296771D03*
X231338Y164855D03*
X222250Y165100D03*
X168351Y174701D03*
X158750Y190500D03*
X84609Y303684D03*
X102037Y339310D03*
X200025Y174625D03*
X195186Y182639D03*
X238125Y345087D03*
X95250Y323850D03*
X127000Y323850D03*
X196850Y133350D03*
X238125Y212725D03*
X250825Y190500D03*
X250825Y177800D03*
M02*
