G04 EAGLE Gerber RS-274X export*
G75*
%MOMM*%
%FSLAX34Y34*%
%LPD*%
%INSoldermask Bottom*%
%IPPOS*%
%AMOC8*
5,1,8,0,0,1.08239X$1,22.5*%
G01*
%ADD10R,2.203200X0.853200*%
%ADD11R,0.853200X2.203200*%
%ADD12C,2.082800*%
%ADD13R,1.703200X0.903200*%
%ADD14R,0.803200X1.203200*%
%ADD15R,1.003200X1.203200*%
%ADD16C,1.103200*%
%ADD17C,1.473200*%
%ADD18C,1.261200*%
%ADD19C,1.879600*%
%ADD20C,0.505344*%
%ADD21R,1.903200X1.203200*%
%ADD22R,1.879600X0.558800*%
%ADD23R,2.663200X2.513200*%
%ADD24C,0.959600*%

G36*
X168038Y332985D02*
X168038Y332985D01*
X168036Y332986D01*
X167993Y332966D01*
X167949Y332948D01*
X167949Y332946D01*
X167947Y332945D01*
X167914Y332860D01*
X167914Y308490D01*
X167915Y308488D01*
X167914Y308486D01*
X167934Y308443D01*
X167952Y308399D01*
X167954Y308399D01*
X167955Y308397D01*
X168040Y308364D01*
X193910Y308364D01*
X193912Y308365D01*
X193914Y308364D01*
X193957Y308384D01*
X194001Y308402D01*
X194001Y308404D01*
X194003Y308405D01*
X194036Y308490D01*
X194036Y332860D01*
X194036Y332862D01*
X194035Y332862D01*
X194036Y332864D01*
X194016Y332907D01*
X193998Y332951D01*
X193996Y332951D01*
X193995Y332953D01*
X193910Y332986D01*
X168040Y332986D01*
X168038Y332985D01*
G37*
%LPC*%
G36*
X171227Y322738D02*
X171227Y322738D01*
X171227Y326486D01*
X174975Y326486D01*
X174975Y322738D01*
X171227Y322738D01*
G37*
%LPD*%
%LPC*%
G36*
X179101Y322738D02*
X179101Y322738D01*
X179101Y326486D01*
X182849Y326486D01*
X182849Y322738D01*
X179101Y322738D01*
G37*
%LPD*%
%LPC*%
G36*
X186975Y322738D02*
X186975Y322738D01*
X186975Y326486D01*
X190723Y326486D01*
X190723Y322738D01*
X186975Y322738D01*
G37*
%LPD*%
%LPC*%
G36*
X171227Y314864D02*
X171227Y314864D01*
X171227Y318612D01*
X174975Y318612D01*
X174975Y314864D01*
X171227Y314864D01*
G37*
%LPD*%
%LPC*%
G36*
X179101Y314864D02*
X179101Y314864D01*
X179101Y318612D01*
X182849Y318612D01*
X182849Y314864D01*
X179101Y314864D01*
G37*
%LPD*%
%LPC*%
G36*
X186975Y314864D02*
X186975Y314864D01*
X186975Y318612D01*
X190723Y318612D01*
X190723Y314864D01*
X186975Y314864D01*
G37*
%LPD*%
D10*
X139700Y143000D03*
X139700Y156500D03*
X139700Y169500D03*
X139700Y182000D03*
X139700Y194500D03*
X139700Y207500D03*
X139700Y220000D03*
X139700Y232500D03*
D11*
X254600Y246600D03*
D12*
X247650Y333375D03*
X273050Y333375D03*
X273050Y304800D03*
X247650Y304800D03*
D13*
X43751Y276500D03*
X43751Y261500D03*
X43751Y231500D03*
D14*
X16251Y290500D03*
D15*
X37251Y290500D03*
D14*
X16251Y217500D03*
D15*
X37251Y217500D03*
D16*
X26251Y269000D03*
X26251Y239000D03*
D12*
X292100Y400050D03*
X266700Y400050D03*
D17*
X347324Y66713D03*
X363821Y76238D03*
X380319Y85763D03*
X370794Y102261D03*
X354296Y92736D03*
X337799Y83211D03*
D12*
X130770Y441816D03*
X153790Y452551D03*
D18*
X228600Y21050D03*
X254000Y21050D03*
X266700Y21050D03*
X215900Y21050D03*
X430068Y117001D03*
X442768Y138999D03*
X449118Y149997D03*
X423718Y106003D03*
X442768Y369001D03*
X430068Y390999D03*
X423718Y401997D03*
X449118Y358003D03*
X254000Y486950D03*
X228600Y486950D03*
X215900Y486950D03*
X266700Y486950D03*
X52532Y390999D03*
X39832Y369001D03*
X33482Y358003D03*
X58882Y401997D03*
X39832Y138999D03*
X52532Y117001D03*
X58882Y106003D03*
X33482Y149997D03*
D19*
X450850Y234000D03*
X450850Y274000D03*
D20*
X123597Y405246D02*
X118662Y400311D01*
X123597Y405246D02*
X128532Y400311D01*
X123597Y395376D01*
X118662Y400311D01*
X118797Y400176D02*
X128397Y400176D01*
X123867Y404976D02*
X123327Y404976D01*
X136000Y392843D02*
X131065Y387908D01*
X136000Y392843D02*
X140935Y387908D01*
X136000Y382973D01*
X131065Y387908D01*
X131200Y387773D02*
X140800Y387773D01*
X136270Y392573D02*
X135730Y392573D01*
X130848Y378109D02*
X125913Y373174D01*
X120978Y378109D01*
X125913Y383044D01*
X130848Y378109D01*
X130713Y377974D02*
X121113Y377974D01*
X125643Y382774D02*
X126183Y382774D01*
X118445Y390512D02*
X113510Y385577D01*
X108575Y390512D01*
X113510Y395447D01*
X118445Y390512D01*
X118310Y390377D02*
X108710Y390377D01*
X113240Y395177D02*
X113780Y395177D01*
D21*
X358775Y241250D03*
X358775Y203250D03*
D22*
X209169Y343425D03*
X209169Y336925D03*
X209169Y330425D03*
X209169Y323925D03*
X209169Y317425D03*
X209169Y310925D03*
X209169Y304425D03*
X209169Y297925D03*
X152781Y297925D03*
X152781Y304425D03*
X152781Y310925D03*
X152781Y317425D03*
X152781Y323925D03*
X152781Y330425D03*
X152781Y336925D03*
X152781Y343425D03*
D23*
X180975Y320675D03*
D24*
X85725Y377825D03*
X85725Y396875D03*
X107950Y412750D03*
X174625Y409575D03*
X234950Y374650D03*
X104775Y165100D03*
X419100Y234950D03*
X292100Y314325D03*
X149225Y117475D03*
X209550Y171450D03*
X301625Y244475D03*
X307975Y330200D03*
X321663Y305788D03*
X377825Y330200D03*
X314325Y187325D03*
X168275Y104775D03*
X365125Y114300D03*
X133350Y250825D03*
X117475Y269875D03*
X95250Y311150D03*
X266700Y174625D03*
X254000Y365125D03*
X285750Y374650D03*
X88900Y254000D03*
X206375Y387350D03*
X168275Y377825D03*
X222250Y38100D03*
X135918Y317164D03*
X333375Y98425D03*
X98425Y387854D03*
X73025Y142875D03*
X85725Y149225D03*
X267126Y282149D03*
X387350Y276225D03*
X412750Y276225D03*
X196850Y342900D03*
X203200Y288925D03*
X250543Y277297D03*
X384175Y311150D03*
X168275Y263525D03*
X76200Y323850D03*
X337941Y299518D03*
X282479Y73121D03*
X301625Y69568D03*
X330200Y73025D03*
X246178Y477953D03*
X133350Y371475D03*
X161925Y168275D03*
X165100Y245463D03*
X142875Y250825D03*
X136195Y261624D03*
X265712Y114300D03*
X165100Y152400D03*
X285750Y107950D03*
X273050Y95250D03*
X241300Y152400D03*
X180975Y120650D03*
X215900Y120650D03*
X234950Y142875D03*
X206375Y244475D03*
X228600Y209550D03*
X200307Y190370D03*
X171913Y223014D03*
X152400Y231775D03*
X127000Y193675D03*
X123825Y206375D03*
X123825Y215900D03*
X355600Y149225D03*
X288925Y211877D03*
X314043Y123255D03*
X387350Y257175D03*
X304800Y161925D03*
X323850Y180975D03*
X320675Y167528D03*
X282575Y218793D03*
X348134Y262409D03*
X301625Y139700D03*
X346075Y180975D03*
X358775Y179664D03*
X387350Y228600D03*
X403225Y244475D03*
X412750Y323850D03*
X387350Y244475D03*
X406400Y260350D03*
X425450Y339725D03*
X419100Y355600D03*
X406400Y355600D03*
X73025Y406400D03*
X101600Y136525D03*
X111125Y120650D03*
X158750Y47625D03*
X377194Y161294D03*
X390538Y165113D03*
X336550Y231775D03*
X206375Y38100D03*
X241300Y53975D03*
X257175Y50800D03*
X282575Y44450D03*
X431800Y174625D03*
X225270Y190500D03*
X184150Y301625D03*
X136525Y292100D03*
X105763Y377825D03*
X107950Y400050D03*
X339725Y396875D03*
X268996Y195971D03*
X333375Y281894D03*
X288925Y323850D03*
X311150Y400050D03*
X253878Y152400D03*
X283691Y121766D03*
X238125Y82550D03*
X66675Y244475D03*
X152682Y100375D03*
X286844Y84587D03*
X390525Y327025D03*
X413866Y306859D03*
X350873Y328013D03*
X352329Y304896D03*
X336124Y127426D03*
X311842Y197542D03*
X301625Y190500D03*
X259535Y209550D03*
X328013Y136525D03*
X139093Y339725D03*
X193675Y296771D03*
X231338Y164855D03*
X222250Y165100D03*
X168351Y174701D03*
X158750Y190500D03*
X84609Y303684D03*
X102037Y339310D03*
X200025Y174625D03*
X195186Y182639D03*
X238125Y345087D03*
X95250Y323850D03*
X127000Y323850D03*
X196850Y133350D03*
X238125Y212725D03*
X250825Y190500D03*
X250825Y177800D03*
M02*
