M48
;GenerationSoftware,Autodesk,EAGLE,9.2.2*%
;CreationDate,2019-07-14T05:02:34Z*%
FMAT,2
ICI,OFF
METRIC,TZ,000.000
T5C0.350
T4C0.550
T3C0.800
T2C0.900
T1C1.016
%
G90
M71
T1
X24765Y33338
X27305Y33338
X27305Y30480
X24765Y30480
X29210Y40005
X26670Y40005
X13077Y44182
X15379Y45255
T2
X2625Y26900
X2625Y23900
T3
X45085Y23400
X45085Y27400
T4
X22860Y2105
X25400Y2105
X26670Y2105
X43007Y11700
X44277Y13900
X44912Y15000
X21590Y2105
X44277Y36900
X43007Y39100
X42372Y40200
X44912Y35800
X25400Y48695
X22860Y48695
X21590Y48695
X26670Y48695
X5253Y39100
X3983Y36900
X3348Y35800
X5888Y40200
X3983Y13900
X5253Y11700
X5888Y10600
X3348Y15000
X42372Y10600
T5
X20320Y28892
X25054Y27730
X38418Y31115
X16828Y26352
X7620Y32385
X33794Y29952
X28248Y7312
X30162Y6957
X33020Y7302
X24618Y47795
X13335Y37148
X16192Y16828
X16510Y24546
X14287Y25082
X13619Y26162
X26571Y11430
X16510Y15240
X28575Y10795
X27305Y9525
X24130Y15240
X18098Y12065
X21590Y12065
X23495Y14287
X20638Y24447
X22860Y20955
X20031Y19037
X17191Y22301
X15240Y23177
X12700Y19368
X12382Y20638
X12382Y21590
X35560Y14922
X28892Y21188
X31404Y12325
X38735Y25717
X30480Y16192
X32385Y18098
X32067Y16753
X28257Y21879
X34813Y26241
X30162Y13970
X34608Y18098
X35878Y17966
X38735Y22860
X40323Y24447
X41275Y32385
X38735Y24447
X40640Y26035
X42545Y33973
X41910Y35560
X40640Y35560
X7302Y40640
X28575Y37465
X11112Y12065
X15875Y4763
X37719Y16129
X39054Y16511
X33655Y23177
X20638Y3810
X24130Y5398
X25717Y5080
X28257Y4445
X43180Y17463
X22527Y19050
X18415Y30162
X13652Y29210
X10576Y37783
X10795Y40005
X33973Y39688
X26900Y19597
X33338Y28189
X28892Y32385
X31115Y40005
X25388Y15240
X28369Y12177
X23812Y8255
X6667Y24447
X15268Y10037
X28684Y8459
X39053Y32702
X41387Y30686
X35087Y32801
X35233Y30490
X33612Y12743
X31184Y19754
X30162Y19050
X25953Y20955
X32801Y13652
X13909Y33973
X19368Y29677
X23134Y16486
X22225Y16510
X16835Y17470
X15875Y19050
X8461Y30368
X10204Y33931
X8573Y37783
X19519Y18264
X23812Y34509
X9525Y32385
X12700Y32385
X19685Y13335
X23812Y21273
X25082Y19050
X25082Y17780
X8573Y39688
X10795Y41275
X17463Y40958
X23495Y37465
X10478Y16510
X41910Y23495
X29210Y31432
X14922Y11747
X20955Y17145
X30162Y24447
X30797Y33020
X32166Y30579
X37783Y33020
X10160Y13652
X31432Y18733
X16828Y10478
X36513Y11430
X13335Y25082
X11747Y26987
X9525Y31115
X26670Y17463
X25400Y36513
X8890Y25400
X20638Y38735
X16828Y37783
X22225Y3810
X13592Y31716
X33338Y9843
X9843Y38785
X7302Y14287
X8573Y14922
X26713Y28215
X38735Y27622
X41275Y27622
X19685Y34290
X20003Y17463
M30